<svg xmlns="http://www.w3.org/2000/svg" width="20.167" height="19.771" viewBox="0 0 20.167 19.771">
  <g id="cart" transform="translate(0 0)">
    <path id="Path_41" data-name="Path 41" d="M15.2,54.394a2.2,2.2,0,1,1,2.2-2.2A2.2,2.2,0,0,1,15.2,54.394Zm0-3.766A1.569,1.569,0,1,0,16.766,52.2,1.571,1.571,0,0,0,15.2,50.628Zm7.532,3.766a2.2,2.2,0,1,1,2.2-2.2A2.2,2.2,0,0,1,22.729,54.394Zm0-3.766A1.569,1.569,0,1,0,24.3,52.2,1.571,1.571,0,0,0,22.729,50.628Z" transform="translate(-8.92 -34.622)" fill="#fff"/>
    <path id="Path_42" data-name="Path 42" d="M8.16,18.261h3.766v.628H8.16ZM4.08,18.6,2.846,1.628H0V1H3.43L4.707,18.551Z" transform="translate(0 -1)" fill="#fff"/>
    <path id="Path_43" data-name="Path 43" d="M11.65,19.983l-.044-.626,13.264-.925,2.054-8.8H11V9H27.714L25.375,19.026Z" transform="translate(-7.548 -6.489)" fill="#fff"/>
  </g>
</svg>
