<svg xmlns="http://www.w3.org/2000/svg" width="10.416" height="15.394"><g data-name="Group 67092" fill="#fff"><path data-name="Path 54" d="M5.208 2.449a2.716 2.716 0 011.9.761 2.54 2.54 0 010 3.672 2.742 2.742 0 01-3.791 0 2.54 2.54 0 010-3.672 2.716 2.716 0 011.9-.761zm1.427 1.215a2.065 2.065 0 00-2.854 0 1.913 1.913 0 00-.003 2.763 2.065 2.065 0 002.854 0 1.913 1.913 0 000-2.765z"/><path data-name="Path 55" d="M4.915 15.222a105.21 105.21 0 00-1.487-2.593A52.507 52.507 0 01.365 6.91a4.9 4.9 0 01-.369-1.864 4.952 4.952 0 011.53-3.568 5.327 5.327 0 017.365 0 4.929 4.929 0 011.431 4.527 4.891 4.891 0 01-.28.921 53.48 53.48 0 01-3.049 5.691c-.541.926-1.062 1.816-1.493 2.606a.336.336 0 01-.446.134.324.324 0 01-.139-.135zm-.913-2.909c.428.731.842 1.438 1.205 2.085.367-.652.782-1.363 1.211-2.1a53.089 53.089 0 003.01-5.613 4.263 4.263 0 00.326-1.642 4.323 4.323 0 00-1.331-3.114 4.65 4.65 0 00-6.429 0A4.317 4.317 0 00.742 5.878a4.263 4.263 0 00.239.8 52.245 52.245 0 003.021 5.638z"/></g></svg>