<svg xmlns="http://www.w3.org/2000/svg" width="266.94" height="89.271"><g data-name="Group 67051" fill="#fff"><g data-name="Group 66960"><path data-name="Path 2" d="M21.126.736c-.194.242-.332.435-.492.609A11.459 11.459 0 0017.588 9.2c-.026 1.964 0 3.93 0 5.894v.942l-1.312.13.005.223h8.679c.106.2.175.27.175.34-.012 3.541.134 7.092-.082 10.62a16.018 16.018 0 01-6.825 12.184c-.852.64-.859.83-.023 1.442a19.264 19.264 0 018.327 16.076c.07 6.686-.185 13.383-.041 20.066a20.694 20.694 0 001.078 6.156 10.52 10.52 0 002.467 4.593 7.067 7.067 0 002.43 1.188 5.322 5.322 0 01-5.48-1.647 25.8 25.8 0 01-6.233-16.321c-.086-8.025-.019-16.051-.015-24.076a7.014 7.014 0 00-2.551-5.533 6.406 6.406 0 00-.572-.381c0 .421.005.713 0 1.006-.064 3.124.09 6.27-.247 9.364a18.517 18.517 0 01-5.7 11.339 6.407 6.407 0 01-5.683 1.715c.332-.2.516-.319.712-.418a8.379 8.379 0 004.1-4.582 21.258 21.258 0 001.513-8.347c-.062-3.1-.015-6.2-.015-9.3v-1.031H10.97v.873c0 3.376.054 6.753-.009 10.128a13.57 13.57 0 01-7 11.951 4.746 4.746 0 01-3.966.324c.3-.183.442-.288.6-.368a9.452 9.452 0 005.328-7.7 18.772 18.772 0 00.139-2.314c.01-8.052-.015-16.1.014-24.158a13.894 13.894 0 015.634-11.305 1.618 1.618 0 00.733-1.5 21.048 21.048 0 01.359-4.575 17.736 17.736 0 013.662-7.858 20.206 20.206 0 011.854-1.974c.331-.314.668-.621 1.007-.924a4.78 4.78 0 01.991-.764.716.716 0 01.38-.073 3.113 3.113 0 01.43.131zm-3.523 36.369a9.566 9.566 0 001.953-5.256c.027-4.615.009-9.23.01-13.845v-.895h-1.963zm-5.353 3.124V22.565a13.416 13.416 0 00-1.266 5.813c-.044 3.617-.013 7.235-.013 10.853v1z"/><path data-name="Path 3" d="M20.87 2.629A2.577 2.577 0 0123.386 0a2.593 2.593 0 11.071 5.185 2.569 2.569 0 01-2.587-2.556z"/></g><g data-name="Group 66963"><g data-name="Group 66961"><path data-name="Path 4" d="M134.918 15.747a7.767 7.767 0 015.383 1.9 6.247 6.247 0 012.092 4.835 5.358 5.358 0 01-.085.778 5.378 5.378 0 00-.093.821.4.4 0 00.438.4c.483 0 .679-.617.679-2.13a7.45 7.45 0 00-2.406-5.668 8.576 8.576 0 00-6.061-2.236 14.427 14.427 0 00-9.451 3.7c-2.878 2.433-5.9 6.427-8.985 11.873-2.942 5.186-4.6 7.984-5.521 9.47a37.5 37.5 0 001.369-10.43 77.219 77.219 0 01.5-9.03 9.159 9.159 0 011.716-3.9c.3-.375.344-.453.344-.563v-.044l-.013-.04a.4.4 0 00-.3-.261l-.031-.008h-.033c-.295 0-.859.2-2.623 1.734-1.867 1.642-4.385 5.113-7.487 10.318-3.767 6.339-7.152 10.853-10.064 13.418a14.039 14.039 0 01-9.408 3.828 7.61 7.61 0 01-4.294-1.124 3.21 3.21 0 01-1.63-2.771 5.011 5.011 0 01.023-.523 1.231 1.231 0 001.348 1.209 1.741 1.741 0 001.338-.61 2.078 2.078 0 00.543-1.438 1.532 1.532 0 00-1.71-1.687 2.36 2.36 0 00-1.87.883 3.187 3.187 0 00-.729 2.115 4.144 4.144 0 001.994 3.532 8.547 8.547 0 004.915 1.336 16.72 16.72 0 0010.033-3.555 30.79 30.79 0 008.372-10.017c2.758-4.987 4.488-8.068 5.145-9.157a27.549 27.549 0 012.215-3.152c.679-.839 1.2-1.423 1.6-1.826a14.161 14.161 0 00-2.182 4.379 28.335 28.335 0 00-.936 7.943c0 1.915.076 4.218.224 6.846.058 1.064.088 1.83.088 2.278 0 2.3-.608 3.743-1.812 4.3-.785.384-1.15.749-1.15 1.15a.559.559 0 00.608.6c.359 0 .959-.29 2.686-2.445a46.945 46.945 0 003.679-5.381c4.08-6.867 6.864-11.258 8.276-13.053 4.447-5.704 8.911-8.597 13.266-8.597z"/><path data-name="Path 5" d="M156.978 36.89c-.151 0-.309.09-.752.577l-.019.024c-1.308 1.837-2.511 2.768-3.573 2.768-.489 0-1.139-.166-1.139-1.6a5.673 5.673 0 01.277-1.539l.192-.158c.664-.408 1.141-.7 1.455-.905 2.193-1.4 3.212-2.442 3.212-3.269 0-.549-.346-.864-.953-.864a3.605 3.605 0 00-2.449 1.418 11.435 11.435 0 00-2.127 3.331q-.334.274-.684.6a6.58 6.58 0 00.787-2.793c0-2.112-1.112-2.555-2.046-2.555-.582 0-1.72.484-4.868 4.678l-.381.529a2.219 2.219 0 00-.17.2l-.015.019a7.823 7.823 0 01-2.114 2.166 4.073 4.073 0 01-2.188.883 1.707 1.707 0 01-.6-.1c1.694-2.329 2.553-4.367 2.553-6.061 0-1.512-.752-2.31-2.176-2.31s-3.216.773-5.356 2.294a14.29 14.29 0 00-3.143 2.912 2.211 2.211 0 00-.17.2l-.015.019a7.824 7.824 0 01-2.114 2.166 4.073 4.073 0 01-2.188.883 1.706 1.706 0 01-.6-.1c1.694-2.329 2.553-4.367 2.553-6.061 0-1.512-.752-2.31-2.176-2.31s-3.216.773-5.356 2.294c-3.054 2.163-4.6 4.457-4.6 6.82a4.184 4.184 0 001.009 2.807 3.169 3.169 0 002.479 1.176c1.767 0 3.653-1.376 5.609-4.093a3.087 3.087 0 001.134.2 5.011 5.011 0 003.138-1.425 5.457 5.457 0 00-.162 1.317 4.183 4.183 0 001.009 2.807 3.169 3.169 0 002.48 1.194c1.767 0 3.653-1.376 5.609-4.093a3.087 3.087 0 001.134.2 5.713 5.713 0 003.792-2.028 8.318 8.318 0 001.254-1.447 1.459 1.459 0 00.157-.21c2.782-4.069 3.892-4.676 4.307-4.676.111 0 .248 0 .248.359 0 .453-.469 1.754-2.7 5.376l-3.909 6.36.512-.036a50.991 50.991 0 011.338-.089c.089 0 .4.015 1.36.088l.164.013.084-.143c1.428-2.442 2.444-4.08 3.021-4.87a13.9 13.9 0 011.617-1.813 4.7 4.7 0 00-.081.812c0 1.836 1.064 2.221 1.957 2.221a4.861 4.861 0 003.38-1.96c1.406-1.524 1.406-1.669 1.406-1.806a.381.381 0 00-.403-.397zm-32.155-.328a4.044 4.044 0 00-.919 2.405 2.352 2.352 0 00.573 1.481c-1.79 2.442-3.442 3.681-4.912 3.681-.833 0-1.2-.391-1.2-1.271 0-1.7.962-3.836 2.86-6.357 1.881-2.5 3.47-3.765 4.727-3.765.927 0 1.358.489 1.358 1.537a4.117 4.117 0 01-.158 1.161.705.705 0 00-.422-.135 2.56 2.56 0 00-1.907 1.263zm13.209 0a4.044 4.044 0 00-.919 2.405 2.352 2.352 0 00.573 1.481c-1.79 2.442-3.442 3.681-4.912 3.681-.833 0-1.2-.391-1.2-1.271 0-1.7.962-3.836 2.86-6.357 1.881-2.5 3.47-3.765 4.727-3.765.927 0 1.358.489 1.358 1.537a4.117 4.117 0 01-.158 1.161.705.705 0 00-.422-.135 2.56 2.56 0 00-1.908 1.263z"/><path data-name="Path 6" d="M266.543 36.911c-.166 0-.309.117-.609.5a33.323 33.323 0 01-4.147 4.573 21.676 21.676 0 01-3.745 2.575c2.923-5.235 5.285-9.288 7.027-12.058l.317-.5-.585.1a8.6 8.6 0 01-1.445.152 7.149 7.149 0 01-1.2-.085l-.18-.031-2.139 3.649c-2.238 3.825-5.3 8.386-7.155 8.386-.337 0-.649-.089-.649-.736 0-.391.318-1.373 1.83-3.82l4.679-7.6-.563.086a11.247 11.247 0 01-1.562.152 6.688 6.688 0 01-1.133-.085l-.179-.031-2.968 5.01a6.368 6.368 0 00-.308.319l-.021.024c-1.307 1.837-2.509 2.768-3.572 2.768-.489 0-1.141-.166-1.141-1.6a5.683 5.683 0 01.278-1.539l.191-.158a73.65 73.65 0 001.456-.905c2.191-1.4 3.212-2.442 3.212-3.269 0-.549-.348-.864-.953-.864a3.61 3.61 0 00-2.45 1.418 11.432 11.432 0 00-2.126 3.331q-.336.274-.684.6a6.58 6.58 0 00.787-2.793c0-2.112-1.112-2.555-2.046-2.555-.582 0-1.721.484-4.87 4.678l-.377.525a1.854 1.854 0 00-.221.251c-3.331 4.482-6.157 6.754-8.4 6.754-1.233 0-1.806-.524-1.806-1.648a7.129 7.129 0 011.401-3.591 27.369 27.369 0 006.946-2.106c1.479-.794 2.23-1.788 2.23-2.956a1.731 1.731 0 00-.662-1.369 2.313 2.313 0 00-1.537-.541 11.029 11.029 0 00-4.907 1.634c-2.7 1.472-4.45 3.136-5.238 4.966-3.406 4.633-4.982 5.652-5.709 5.652-.3 0-.582-.089-.582-.736 0-.375.261-1.285 1.51-3.494 1.022-1.809 4.684-7.957 10.882-18.273l.39-.649-.709.265a4.155 4.155 0 01-1.464.251 4.407 4.407 0 01-1.11-.17l-.2-.053-.1.179c-1.827 3.256-4.107 7.159-6.778 11.6q-1.425 2.366-2.345 3.935a.779.779 0 00-.158.211c-4.051 5.731-5.842 6.933-6.632 6.933-.3 0-.582-.089-.582-.736 0-.375.261-1.285 1.51-3.494 1.022-1.809 4.684-7.957 10.882-18.273l.39-.649-.709.265a4.155 4.155 0 01-1.464.251 4.408 4.408 0 01-1.11-.17l-.2-.053-.1.179c-1.827 3.256-4.107 7.159-6.778 11.6q-1.389 2.306-2.3 3.854a.829.829 0 00-.269.287 38.064 38.064 0 01-3.953 4.983c-1.555 1.617-2.306 1.956-2.661 1.956-.314 0-.6-.094-.6-.78 0-.465.349-1.6 2.007-4.378l4.232-7-.564.091a9.956 9.956 0 01-1.514.152 5.062 5.062 0 01-1.119-.148l-.2-.046-.579 1.1a1.438 1.438 0 00-1.617-1.241 9.82 9.82 0 00-4.4 1.5c-4.091 2.234-6.163 4.855-6.163 7.792a4.252 4.252 0 00.857 2.71 2.694 2.694 0 002.185 1.111 3.719 3.719 0 002.469-1.159 22.364 22.364 0 002.351-2.759 4.776 4.776 0 00-.1.964 3.155 3.155 0 00.708 2.094 2.344 2.344 0 001.872.86c1.1 0 2.522-1.065 4.342-3.256.254-.3.485-.577.7-.838a5.449 5.449 0 00-.152 1.273 3.014 3.014 0 00.675 2.006 2.229 2.229 0 001.772.815c1.187 0 2.826-1.32 4.984-4.02a5.369 5.369 0 00-.136 1.2 3.013 3.013 0 00.675 2.006 2.227 2.227 0 001.772.815c1.266 0 3.044-1.5 5.417-4.571a5.697 5.697 0 00-.013.371 4.215 4.215 0 001.129 2.995 3.717 3.717 0 002.807 1.205c2.3 0 4.953-1.891 8.108-5.784l.958-1.2c.174-.221.281-.367.348-.469.032-.042.062-.084.086-.124 2.782-4.069 3.892-4.676 4.306-4.676.111 0 .249 0 .249.359 0 .453-.467 1.754-2.7 5.376l-3.917 6.354.514-.036a50.991 50.991 0 011.338-.089c.088 0 .4.015 1.358.088l.165.013.084-.143c1.427-2.442 2.444-4.08 3.021-4.87a13.8 13.8 0 011.617-1.813 4.71 4.71 0 00-.082.812c0 1.836 1.065 2.221 1.957 2.221a3.829 3.829 0 002.348-.975 5.477 5.477 0 00-.569 2.09 2.957 2.957 0 00.743 2 2.316 2.316 0 001.79.868 3.364 3.364 0 002.293-1.061 14.244 14.244 0 001.109-1.223l-2.042 3.632-.26.156c-1.115.5-1.966.895-2.524 1.173a32.213 32.213 0 00-7.787 4.747c-1.767 1.586-2.661 3.183-2.661 4.743a2.142 2.142 0 00.694 1.615 2.4 2.4 0 001.7.65c1.832 0 4.006-1 6.458-2.97a29.507 29.507 0 006.8-8.683l1.053-1.891a27.542 27.542 0 007.082-5.392c2.517-2.785 2.517-3.046 2.517-3.219a.381.381 0 00-.378-.405zm-32.095-2.6a5.326 5.326 0 012.93-1.572c.429 0 .515.173.515.448 0 .792-.709 1.673-2.108 2.616a16.523 16.523 0 01-4.622 2.09 21.784 21.784 0 013.285-3.585zm-29.681 4.875c-3.059 4.121-4.464 4.985-5.1 4.985-.709 0-1.025-.364-1.025-1.181 0-1.575 1.1-3.7 3.263-6.3s3.892-3.908 5.168-3.908c.516 0 .736.247.736.825-.003.975-1.022 2.852-3.042 5.579zm42.8 16.992c-1.5 1.639-3.01 2.471-4.5 2.471-1.094 0-1.6-.445-1.6-1.4 0-2.548 3.354-5.507 9.971-8.793.712-.351 1.273-.632 1.689-.842a46.6 46.6 0 01-5.559 8.564z"/><path data-name="Path 7" d="M200.966 26.428c1.581-1.869 1.781-2.458 1.781-2.761v-.042l-.014-.041a.437.437 0 00-.427-.313c-.315 0-.858.207-2.267 1.824a33.737 33.737 0 00-2.972 4.018c-4.078 4.792-7.572 7.679-10.4 8.588v-.091c0-3.626-1.949-5.84-5.791-6.587a10 10 0 01.913-1.964 35.687 35.687 0 008.663-3.37 43.875 43.875 0 007.978-5.428l1.029-.939.012-.01c1.5-1.54 2.23-2.821 2.23-3.918 0-.931-.42-2.042-2.421-2.042a11.014 11.014 0 00-3.406.834l-.03-.021-.133.05c-.122.045-.258.1-.4.152l-.408.157.013.012q-.479.2-.945.408l-.291.131-.048.021-.035.017c-5.249 2.365-9.2 5.127-11.739 8.212a16.1 16.1 0 00-3.211 6.292v.01a11.224 11.224 0 00-.187 1.168 3.069 3.069 0 00-.219-.008 15.43 15.43 0 00-6.981 1.942 15.958 15.958 0 00-5.933 5.1 11.67 11.67 0 00-2.182 6.7 8.588 8.588 0 002.914 6.735 11.09 11.09 0 007.58 2.556 21.851 21.851 0 0010.691-2.9 18.415 18.415 0 005.673-4.627 22.162 22.162 0 003.391-7 50.233 50.233 0 011.813-5.207 35.557 35.557 0 012.273-4.124 30.573 30.573 0 003.486-3.534zm-12.819-5.517a34.04 34.04 0 016.662-5.069l.212-.12-.005-.012.339-.169c.183-.1.342-.182.491-.256l.013.012.153-.073a14.4 14.4 0 011.656-.711l.009.019.207-.062a5.2 5.2 0 011.445-.236c.986 0 1.427.371 1.427 1.2a4.923 4.923 0 01-1.687 3.019 14.464 14.464 0 01-2.078 1.848l-.009.008a44.322 44.322 0 01-6.751 4.467 36.024 36.024 0 01-7.844 3.218 33.615 33.615 0 015.76-7.083zm-7.464 11a6.476 6.476 0 013.834 2.059 5.624 5.624 0 011.259 3.967 8.083 8.083 0 01-.97.057 4.488 4.488 0 01-3.188-1.129 3.872 3.872 0 01-1.2-2.987 7.711 7.711 0 01.267-1.97zm11.925 4.165c-3.747 6.246-7.08 10.653-9.908 13.1a14.045 14.045 0 01-9.368 3.649 9.21 9.21 0 01-6.085-1.943 6.263 6.263 0 01-2.3-5.023 13.354 13.354 0 014.116-9.5 14.454 14.454 0 019.346-4.559 7.885 7.885 0 001.706 5.1 5.875 5.875 0 004.692 2.016 7.724 7.724 0 00.823-.041 8.919 8.919 0 01-2.58 4.642c-1.535 1.585-3.039 2.388-4.469 2.388a2.427 2.427 0 01-1.712-.621 1.981 1.981 0 01-.67-1.54 3.032 3.032 0 01.309-1.257 1.984 1.984 0 01.265-.447v.012a2.363 2.363 0 00-.1.558c0 .845.512 1.309 1.443 1.309a1.833 1.833 0 001.32-.588 1.858 1.858 0 00.59-1.343c0-1.088-.648-1.688-1.821-1.688a2.679 2.679 0 00-2.057 1.071 3.576 3.576 0 00-.9 2.373 2.836 2.836 0 00.964 2.175 3.4 3.4 0 002.368.869 7.181 7.181 0 005.072-2.583 10.319 10.319 0 002.9-5.524c2.211-.648 4.8-2.414 7.714-5.267q-.85 1.297-1.656 2.659z"/></g><g data-name="Group 66962"><path data-name="Path 8" d="M118.712 72.747V64.72h1.31v6.9h3.4v1.125z"/><path data-name="Path 9" d="M131.197 72.747l-.18-.8h-.067a1.828 1.828 0 01-.766.663 2.562 2.562 0 01-1.133.242 2.226 2.226 0 01-1.647-.549 2.278 2.278 0 01-.543-1.663v-3.97h1.3v3.744a1.627 1.627 0 00.286 1.047 1.1 1.1 0 00.895.348 1.427 1.427 0 001.195-.487 2.679 2.679 0 00.381-1.626v-3.021h1.294v6.072z"/><path data-name="Path 10" d="M137.651 69.645l-2.036-2.97h1.472l1.383 2.124 1.394-2.124h1.46l-2.042 2.97 2.146 3.1h-1.46l-1.5-2.273-1.493 2.275h-1.46z"/><path data-name="Path 11" d="M149.023 72.747l-.182-.8h-.066a1.828 1.828 0 01-.766.663 2.561 2.561 0 01-1.133.242 2.226 2.226 0 01-1.647-.549 2.278 2.278 0 01-.543-1.663v-3.97h1.3v3.744a1.635 1.635 0 00.285 1.047 1.1 1.1 0 00.9.348 1.423 1.423 0 001.194-.487 2.67 2.67 0 00.381-1.626v-3.021h1.3v6.072z"/><path data-name="Path 12" d="M157.206 66.566a3.129 3.129 0 01.641.055l-.126 1.2a2.383 2.383 0 00-.57-.066 1.656 1.656 0 00-1.255.5 1.833 1.833 0 00-.48 1.313v3.173h-1.29v-6.067h1.005l.17 1.071h.066a2.417 2.417 0 01.788-.863 1.885 1.885 0 011.051-.316z"/><path data-name="Path 13" d="M160.3 66.675h1.41l1.235 3.443a6.669 6.669 0 01.373 1.383h.044a5.669 5.669 0 01.18-.733q.133-.431 1.4-4.093h1.394l-2.6 6.879a2.465 2.465 0 01-2.361 1.893 3.731 3.731 0 01-.834-.093v-1.021a3.039 3.039 0 00.664.066 1.36 1.36 0 001.312-1.082l.224-.57z"/><path data-name="Path 14" d="M181.329 68.654a4 4 0 01-1.1 3.037 4.432 4.432 0 01-3.178 1.052h-2.244V64.72h2.48a4.112 4.112 0 012.982 1.033 3.862 3.862 0 011.06 2.901zm-1.383.042q0-2.882-2.695-2.882h-1.137v5.824h.933q2.902.004 2.902-2.938z"/><path data-name="Path 15" d="M187.816 72.856a2.935 2.935 0 01-2.215-.827 3.132 3.132 0 01-.8-2.274 3.448 3.448 0 01.742-2.339 2.56 2.56 0 012.039-.85 2.5 2.5 0 011.9.73 2.792 2.792 0 01.7 2.01v.7h-4.045a2 2 0 00.478 1.36 1.666 1.666 0 001.268.474 4.821 4.821 0 001-.1 5.337 5.337 0 001-.339v1.048a3.876 3.876 0 01-.955.318 5.791 5.791 0 01-1.112.089zm-.234-5.314a1.3 1.3 0 00-.984.389 1.857 1.857 0 00-.443 1.137h2.757a1.68 1.68 0 00-.363-1.138 1.238 1.238 0 00-.967-.388z"/><path data-name="Path 16" d="M197.97 71.017a1.593 1.593 0 01-.648 1.365 3.111 3.111 0 01-1.857.474 4.383 4.383 0 01-1.947-.367v-1.115a4.767 4.767 0 001.992.493q1.192 0 1.191-.717a.568.568 0 00-.131-.385 1.591 1.591 0 00-.434-.318 7.3 7.3 0 00-.839-.373 3.874 3.874 0 01-1.419-.812 1.506 1.506 0 01-.371-1.055 1.382 1.382 0 01.628-1.21 2.972 2.972 0 011.71-.431 4.846 4.846 0 012.027.434l-.418.972a4.483 4.483 0 00-1.652-.407q-1.022 0-1.021.582a.586.586 0 00.265.483 5.848 5.848 0 001.163.543 5.372 5.372 0 011.092.532 1.481 1.481 0 01.67 1.313z"/><path data-name="Path 17" d="M201.535 65.071a.712.712 0 01.191-.532.734.734 0 01.541-.188.722.722 0 01.529.188.712.712 0 01.189.532.7.7 0 01-.189.519.717.717 0 01-.529.189.73.73 0 01-.541-.189.7.7 0 01-.191-.519zm1.367 7.68h-1.29v-6.08h1.29z"/><path data-name="Path 18" d="M212.123 66.674v.709l-1.038.191a1.707 1.707 0 01.237.473 1.876 1.876 0 01.093.592 1.82 1.82 0 01-.648 1.478 2.718 2.718 0 01-1.785.538 2.982 2.982 0 01-.527-.044.726.726 0 00-.417.6.334.334 0 00.194.313 1.686 1.686 0 00.717.106h1.058a2.357 2.357 0 011.527.427 1.511 1.511 0 01.521 1.236 1.8 1.8 0 01-.851 1.591 4.477 4.477 0 01-2.459.559 3.4 3.4 0 01-1.894-.438 1.423 1.423 0 01-.654-1.253 1.329 1.329 0 01.355-.941 1.891 1.891 0 01.99-.53.955.955 0 01-.425-.353.9.9 0 01-.167-.514.881.881 0 01.192-.577 2.223 2.223 0 01.57-.466 1.7 1.7 0 01-.766-.662 1.956 1.956 0 01-.292-1.074 1.926 1.926 0 01.622-1.531 2.623 2.623 0 011.777-.543 4.449 4.449 0 01.541.036 3.3 3.3 0 01.425.073zm-4.77 7.016a.71.71 0 00.376.642 2.077 2.077 0 001.057.225 3.2 3.2 0 001.569-.3.91.91 0 00.516-.8.6.6 0 00-.283-.563 2.26 2.26 0 00-1.051-.167h-.976a1.379 1.379 0 00-.881.26.857.857 0 00-.327.703zm.554-5.051a1.224 1.224 0 00.295.879 1.108 1.108 0 00.842.306q1.12 0 1.119-1.2a1.357 1.357 0 00-.276-.913 1.057 1.057 0 00-.843-.322 1.088 1.088 0 00-.848.319 1.34 1.34 0 00-.29.931z"/><path data-name="Path 19" d="M220.837 72.747h-1.294v-3.734a1.64 1.64 0 00-.283-1.048 1.1 1.1 0 00-.9-.346 1.422 1.422 0 00-1.2.484 2.665 2.665 0 00-.38 1.618v3.026h-1.29v-6.073h1.011l.182.8h.066a1.789 1.789 0 01.779-.668 2.6 2.6 0 011.12-.237 1.948 1.948 0 012.184 2.224z"/><path data-name="Path 20" d="M228.96 71.017a1.593 1.593 0 01-.648 1.365 3.107 3.107 0 01-1.855.474 4.389 4.389 0 01-1.948-.367v-1.115a4.771 4.771 0 001.992.493q1.192 0 1.192-.717a.568.568 0 00-.133-.385 1.571 1.571 0 00-.434-.318 7.3 7.3 0 00-.84-.373 3.884 3.884 0 01-1.419-.812 1.506 1.506 0 01-.371-1.055 1.38 1.38 0 01.63-1.21 2.97 2.97 0 011.71-.431 4.84 4.84 0 012.025.434l-.417.972a4.494 4.494 0 00-1.653-.407q-1.022 0-1.021.582a.584.584 0 00.266.483 5.787 5.787 0 001.161.543 5.354 5.354 0 011.093.532 1.483 1.483 0 01.668 1.313z"/></g></g></g></svg>