<svg xmlns="http://www.w3.org/2000/svg" width="162.968" height="54.5"><g data-name="Group 67091" fill="#fff"><g data-name="Group 66960"><path data-name="Path 2" d="M12.898.448c-.119.148-.2.266-.3.372a7 7 0 00-1.86 4.8c-.016 1.2 0 2.4 0 3.6v.573l-.8.079v.136h5.3c.064.123.107.165.107.208-.007 2.162.082 4.33-.05 6.483a9.779 9.779 0 01-4.167 7.438c-.52.391-.524.507-.014.88a11.761 11.761 0 015.083 9.815c.042 4.082-.113 8.17-.025 12.251a12.634 12.634 0 00.658 3.758 6.422 6.422 0 001.506 2.8 4.314 4.314 0 001.483.726 3.249 3.249 0 01-3.345-1.005 15.75 15.75 0 01-3.805-9.963c-.053-4.9-.012-9.8-.009-14.7a4.282 4.282 0 00-1.557-3.378 3.911 3.911 0 00-.349-.233v.614c-.039 1.907.055 3.828-.151 5.717a11.3 11.3 0 01-3.48 6.923 3.912 3.912 0 01-3.47 1.047c.2-.119.315-.195.435-.255a5.115 5.115 0 002.5-2.8 12.978 12.978 0 00.922-5.094c-.038-1.891-.009-3.784-.009-5.676v-.631h-.806v.533c0 2.061.033 4.123-.006 6.183a8.285 8.285 0 01-4.271 7.3 2.9 2.9 0 01-2.421.2c.181-.112.27-.176.366-.225a5.77 5.77 0 003.253-4.7 11.461 11.461 0 00.085-1.413c.006-4.916-.009-9.832.009-14.749a8.482 8.482 0 013.438-6.9.988.988 0 00.447-.913 12.85 12.85 0 01.219-2.793 10.828 10.828 0 012.236-4.8 12.336 12.336 0 011.132-1.205c.2-.192.408-.379.615-.564a2.918 2.918 0 01.605-.466.437.437 0 01.232-.045 1.9 1.9 0 01.264.072zm-2.151 22.2a5.84 5.84 0 001.192-3.209c.017-2.817.006-5.635.006-8.452v-.546h-1.2zm-3.268 1.911V13.775a8.19 8.19 0 00-.773 3.549c-.027 2.208-.008 4.417-.008 6.626v.609z"/><path data-name="Path 3" d="M12.738 1.605A1.573 1.573 0 0114.277 0a1.583 1.583 0 11.043 3.165 1.568 1.568 0 01-1.582-1.56z"/></g><g data-name="Group 66963"><g data-name="Group 66961"><path data-name="Path 4" d="M82.367 9.613a4.742 4.742 0 013.286 1.159 3.814 3.814 0 011.277 2.952 3.27 3.27 0 01-.052.475 3.284 3.284 0 00-.057.5.241.241 0 00.267.242c.295 0 .414-.377.414-1.3a4.548 4.548 0 00-1.469-3.46 5.236 5.236 0 00-3.7-1.365 8.808 8.808 0 00-5.77 2.259 27.044 27.044 0 00-5.485 7.248c-1.8 3.166-2.806 4.874-3.371 5.781a22.893 22.893 0 00.836-6.368 47.147 47.147 0 01.3-5.513 5.592 5.592 0 011.048-2.381c.186-.229.21-.277.21-.344v-.027l-.008-.024a.244.244 0 00-.182-.16h-.039c-.18 0-.524.12-1.6 1.059a29.015 29.015 0 00-4.571 6.3 35.532 35.532 0 01-6.144 8.191 8.571 8.571 0 01-5.744 2.337 4.646 4.646 0 01-2.621-.686 1.96 1.96 0 01-1-1.692 3.059 3.059 0 01.014-.319.751.751 0 00.823.738 1.063 1.063 0 00.817-.373 1.269 1.269 0 00.329-.875.935.935 0 00-1.044-1.03 1.441 1.441 0 00-1.141.539 1.946 1.946 0 00-.445 1.291 2.53 2.53 0 001.218 2.156 5.218 5.218 0 003 .815 10.207 10.207 0 006.125-2.17 18.8 18.8 0 005.111-6.115c1.684-3.044 2.74-4.925 3.141-5.59a16.817 16.817 0 011.352-1.924c.414-.513.733-.869.975-1.115a8.646 8.646 0 00-1.318 2.676 17.3 17.3 0 00-.571 4.849c0 1.169.046 2.575.137 4.179.035.649.053 1.117.053 1.391 0 1.4-.371 2.285-1.106 2.627-.479.234-.7.457-.7.7a.341.341 0 00.371.365c.219 0 .586-.177 1.64-1.493a28.659 28.659 0 002.246-3.285c2.491-4.192 4.19-6.873 5.053-7.969 2.712-3.485 5.437-5.251 8.095-5.251z"/><path data-name="Path 5" d="M95.836 22.521c-.092 0-.189.055-.459.352l-.012.015c-.8 1.122-1.533 1.69-2.181 1.69-.3 0-.7-.1-.7-.979a3.464 3.464 0 01.169-.939l.117-.1c.406-.249.7-.43.888-.553 1.339-.857 1.961-1.491 1.961-2 0-.335-.211-.527-.582-.527a2.2 2.2 0 00-1.5.865 6.981 6.981 0 00-1.3 2.034q-.2.167-.417.366a4.017 4.017 0 00.48-1.7c0-1.289-.679-1.56-1.249-1.56-.355 0-1.05.3-2.972 2.856l-.233.323a1.354 1.354 0 00-.1.12l-.009.012a4.776 4.776 0 01-1.291 1.322 2.486 2.486 0 01-1.335.539 1.042 1.042 0 01-.366-.062 6.717 6.717 0 001.559-3.7c0-.923-.459-1.41-1.328-1.41a6.177 6.177 0 00-3.27 1.4 8.724 8.724 0 00-1.919 1.778 1.351 1.351 0 00-.1.12l-.009.012a4.777 4.777 0 01-1.291 1.322 2.486 2.486 0 01-1.336.539 1.042 1.042 0 01-.366-.062 6.717 6.717 0 001.559-3.7c0-.923-.459-1.41-1.328-1.41a6.177 6.177 0 00-3.27 1.4c-1.865 1.321-2.81 2.721-2.81 4.164a2.554 2.554 0 00.616 1.714 1.935 1.935 0 001.515.728c1.078 0 2.23-.84 3.424-2.5a1.885 1.885 0 00.693.123 3.059 3.059 0 001.916-.87 3.332 3.332 0 00-.1.8 2.554 2.554 0 00.616 1.714 1.935 1.935 0 001.514.739c1.078 0 2.23-.84 3.424-2.5a1.885 1.885 0 00.693.123 3.488 3.488 0 002.315-1.238 5.078 5.078 0 00.766-.884.89.89 0 00.1-.128c1.7-2.484 2.376-2.855 2.629-2.855.068 0 .152 0 .152.219 0 .277-.286 1.071-1.646 3.282l-2.393 3.881.313-.022c.685-.049.8-.054.817-.054.054 0 .242.009.83.053l.1.008.051-.087c.872-1.491 1.492-2.491 1.844-2.973a8.483 8.483 0 01.987-1.107 2.87 2.87 0 00-.05.5c0 1.121.649 1.356 1.195 1.356a2.967 2.967 0 002.063-1.2c.858-.931.858-1.019.858-1.1a.232.232 0 00-.242-.249zm-19.631-.2a2.469 2.469 0 00-.561 1.468 1.436 1.436 0 00.35.9c-1.093 1.491-2.1 2.247-3 2.247-.509 0-.735-.239-.735-.776a7.075 7.075 0 011.746-3.881c1.148-1.525 2.118-2.3 2.886-2.3.566 0 .829.3.829.939a2.513 2.513 0 01-.1.709.431.431 0 00-.258-.083 1.563 1.563 0 00-1.157.777zm8.064 0a2.469 2.469 0 00-.561 1.468 1.436 1.436 0 00.35.9c-1.093 1.491-2.1 2.247-3 2.247-.509 0-.735-.239-.735-.776a7.075 7.075 0 011.746-3.881c1.148-1.525 2.118-2.3 2.886-2.3.566 0 .829.3.829.939a2.513 2.513 0 01-.1.709.431.431 0 00-.258-.083 1.563 1.563 0 00-1.157.777z"/><path data-name="Path 6" d="M162.726 22.534c-.1 0-.189.072-.372.307a20.345 20.345 0 01-2.534 2.79 13.234 13.234 0 01-2.287 1.572c1.784-3.2 3.227-5.671 4.29-7.361l.193-.307-.357.062a5.248 5.248 0 01-.882.093 4.364 4.364 0 01-.733-.052l-.11-.019-1.306 2.228c-1.366 2.335-3.233 5.12-4.368 5.12-.206 0-.4-.054-.4-.45a6.251 6.251 0 011.117-2.332l2.857-4.64-.344.053a6.867 6.867 0 01-.953.093 4.083 4.083 0 01-.692-.052l-.109-.019-1.812 3.059c-.052.05-.113.112-.188.195l-.013.015c-.8 1.122-1.532 1.69-2.181 1.69-.3 0-.7-.1-.7-.979a3.469 3.469 0 01.17-.939l.116-.1c.406-.249.7-.43.889-.553 1.338-.857 1.961-1.491 1.961-2 0-.335-.212-.527-.582-.527a2.2 2.2 0 00-1.5.865 6.98 6.98 0 00-1.3 2.034q-.205.167-.417.366a4.017 4.017 0 00.48-1.7c0-1.289-.679-1.56-1.249-1.56-.355 0-1.051.3-2.973 2.856l-.23.321a1.132 1.132 0 00-.135.153c-2.034 2.736-3.759 4.124-5.13 4.124-.753 0-1.1-.32-1.1-1.006a4.352 4.352 0 01.86-2.191 16.709 16.709 0 004.241-1.286 2.121 2.121 0 001.361-1.8 1.057 1.057 0 00-.4-.836 1.412 1.412 0 00-.939-.33 6.733 6.733 0 00-3 1 6.825 6.825 0 00-3.2 3.032c-2.079 2.828-3.041 3.451-3.485 3.451-.185 0-.355-.054-.355-.45a5.817 5.817 0 01.922-2.133c.624-1.1 2.86-4.858 6.644-11.156l.238-.4-.433.162a2.537 2.537 0 01-.894.153 2.691 2.691 0 01-.678-.1l-.121-.032-.061.109a280.584 280.584 0 01-4.138 7.082q-.87 1.444-1.431 2.4a.475.475 0 00-.1.129c-2.473 3.5-3.566 4.233-4.049 4.233-.185 0-.355-.054-.355-.45a5.817 5.817 0 01.922-2.133c.624-1.1 2.86-4.858 6.644-11.156l.238-.4-.433.162a2.537 2.537 0 01-.894.153 2.691 2.691 0 01-.678-.1l-.103-.04-.061.109a280.584 280.584 0 01-4.138 7.082q-.848 1.408-1.4 2.353a.506.506 0 00-.164.175 23.237 23.237 0 01-2.413 3.042c-.95.987-1.408 1.194-1.625 1.194-.192 0-.369-.057-.369-.476a7.13 7.13 0 011.225-2.673l2.584-4.276-.344.056a6.078 6.078 0 01-.924.093 3.09 3.09 0 01-.683-.09l-.121-.028-.354.673a.878.878 0 00-.987-.758 6 6 0 00-2.684.916c-2.5 1.364-3.763 2.964-3.763 4.757a2.6 2.6 0 00.523 1.655 1.645 1.645 0 001.334.678 2.27 2.27 0 001.508-.707 13.654 13.654 0 001.435-1.685 2.916 2.916 0 00-.063.589 1.926 1.926 0 00.432 1.278 1.431 1.431 0 001.143.525c.672 0 1.54-.65 2.651-1.988.155-.183.3-.352.428-.512a3.327 3.327 0 00-.093.777 1.84 1.84 0 00.412 1.225 1.361 1.361 0 001.082.5c.725 0 1.725-.806 3.043-2.454a3.277 3.277 0 00-.083.732 1.84 1.84 0 00.412 1.225 1.36 1.36 0 001.082.5c.773 0 1.858-.915 3.307-2.79 0 .075-.008.151-.008.226a2.573 2.573 0 00.689 1.828 2.269 2.269 0 001.714.736c1.4 0 3.024-1.155 4.95-3.531l.585-.733c.106-.135.171-.224.212-.286a.959.959 0 00.053-.075c1.7-2.484 2.376-2.855 2.629-2.855.068 0 .152 0 .152.219 0 .277-.285 1.071-1.646 3.282l-2.391 3.879.314-.022c.685-.049.8-.054.817-.054.053 0 .241.009.829.053l.1.008.051-.087c.871-1.491 1.492-2.491 1.844-2.973a8.427 8.427 0 01.987-1.107 2.877 2.877 0 00-.05.5c0 1.121.65 1.356 1.195 1.356a2.338 2.338 0 001.434-.6 3.344 3.344 0 00-.347 1.276 1.805 1.805 0 00.454 1.219 1.414 1.414 0 001.093.53 2.054 2.054 0 001.4-.648 8.7 8.7 0 00.677-.747l-1.247 2.217-.159.1c-.681.3-1.2.546-1.541.716a19.666 19.666 0 00-4.754 2.9 4.061 4.061 0 00-1.625 2.9 1.308 1.308 0 00.424.986 1.464 1.464 0 001.041.4 6.753 6.753 0 003.943-1.813 18.014 18.014 0 004.154-5.3l.643-1.155a16.814 16.814 0 004.323-3.292c1.537-1.7 1.537-1.86 1.537-1.965a.232.232 0 00-.247-.258zm-19.594-1.589a3.252 3.252 0 011.789-.96c.262 0 .314.105.314.274 0 .483-.433 1.021-1.287 1.6a10.087 10.087 0 01-2.822 1.276 13.3 13.3 0 012.006-2.19zm-18.12 2.978c-1.868 2.516-2.725 3.044-3.116 3.044-.433 0-.626-.222-.626-.721 0-.961.67-2.256 1.992-3.848s2.376-2.386 3.155-2.386c.315 0 .45.151.45.5-.002.6-.625 1.746-1.856 3.411zm26.13 10.374a3.86 3.86 0 01-2.745 1.508c-.668 0-.979-.272-.979-.857 0-1.556 2.048-3.362 6.087-5.368.435-.215.777-.386 1.031-.514a28.446 28.446 0 01-3.395 5.231z"/><path data-name="Path 7" d="M122.691 16.134c.966-1.141 1.09-1.5 1.09-1.686v-.026l-.009-.025a.267.267 0 00-.261-.191c-.193 0-.524.127-1.384 1.114a20.6 20.6 0 00-1.814 2.453c-2.489 2.926-4.623 4.688-6.347 5.243v-.056c0-2.214-1.19-3.566-3.536-4.021a6.1 6.1 0 01.557-1.2 21.787 21.787 0 005.289-2.058 26.785 26.785 0 004.87-3.314l.628-.573.007-.006a3.809 3.809 0 001.361-2.392c0-.568-.256-1.247-1.478-1.247a6.724 6.724 0 00-2.079.509l-.018-.013-.081.031-.244.093-.249.1.008.007q-.292.123-.577.249l-.178.08-.029.013-.021.01a19.567 19.567 0 00-7.166 5.013 9.827 9.827 0 00-1.96 3.841v-.001a6.852 6.852 0 00-.114.713h-.134a9.42 9.42 0 00-4.262 1.185 9.742 9.742 0 00-3.622 3.114 7.124 7.124 0 00-1.338 4.088 5.243 5.243 0 001.779 4.112 6.771 6.771 0 004.628 1.56 13.34 13.34 0 006.527-1.771 11.243 11.243 0 003.463-2.825 13.53 13.53 0 002.07-4.275 30.669 30.669 0 011.107-3.179 21.708 21.708 0 011.387-2.518 18.664 18.664 0 002.13-2.151zm-7.825-3.368a20.782 20.782 0 014.067-3.095l.13-.073v-.007l.207-.1c.112-.06.209-.111.3-.156l.008.007.094-.045a8.792 8.792 0 011.011-.434l.006.012.127-.038a3.172 3.172 0 01.882-.144c.6 0 .871.226.871.735a3.006 3.006 0 01-1.03 1.843 8.83 8.83 0 01-1.269 1.128h-.006a27.058 27.058 0 01-4.121 2.727 21.992 21.992 0 01-4.789 1.964 20.522 20.522 0 013.511-4.324zm-4.557 6.715a3.954 3.954 0 012.341 1.257 3.433 3.433 0 01.769 2.422 4.934 4.934 0 01-.592.035 2.74 2.74 0 01-1.946-.689 2.364 2.364 0 01-.731-1.825 4.707 4.707 0 01.159-1.2zm7.28 2.543a34.487 34.487 0 01-6.049 8 8.574 8.574 0 01-5.719 2.228 5.623 5.623 0 01-3.718-1.185 3.823 3.823 0 01-1.4-3.066 8.153 8.153 0 012.513-5.8 8.825 8.825 0 015.706-2.783 4.814 4.814 0 001.042 3.115 3.587 3.587 0 002.864 1.231 4.714 4.714 0 00.5-.025 5.445 5.445 0 01-1.575 2.834 3.974 3.974 0 01-2.728 1.458 1.482 1.482 0 01-1.045-.379 1.209 1.209 0 01-.409-.94 1.851 1.851 0 01.189-.767 1.211 1.211 0 01.162-.273v.007a1.444 1.444 0 00-.06.34c0 .516.313.8.881.8a1.119 1.119 0 00.806-.359 1.134 1.134 0 00.36-.82c0-.664-.4-1.031-1.111-1.031a1.635 1.635 0 00-1.256.654 2.183 2.183 0 00-.548 1.449 1.732 1.732 0 00.589 1.328 2.075 2.075 0 001.446.531 4.384 4.384 0 003.1-1.577 6.3 6.3 0 001.772-3.372 12.374 12.374 0 004.699-3.221q-.519.79-1.011 1.621z"/></g><g data-name="Group 66962"><path data-name="Path 8" d="M72.474 44.411v-4.9h.8v4.213h2.074v.687z"/><path data-name="Path 9" d="M80.096 44.411l-.11-.486h-.041a1.116 1.116 0 01-.468.4 1.564 1.564 0 01-.692.148 1.359 1.359 0 01-1.005-.335 1.391 1.391 0 01-.332-1.016v-2.418h.794v2.286a.993.993 0 00.175.639.668.668 0 00.546.212.871.871 0 00.729-.3 1.636 1.636 0 00.233-.993v-1.844h.79v3.707z"/><path data-name="Path 10" d="M84.036 42.52l-1.244-1.816h.9l.844 1.3.851-1.3h.891l-1.246 1.816 1.31 1.894h-.891l-.915-1.387-.912 1.387h-.891z"/><path data-name="Path 11" d="M90.979 44.411l-.111-.486h-.04a1.116 1.116 0 01-.468.4 1.564 1.564 0 01-.692.148 1.359 1.359 0 01-1.005-.335 1.391 1.391 0 01-.332-1.016v-2.418h.794v2.286a1 1 0 00.174.639.671.671 0 00.547.212.869.869 0 00.729-.3 1.63 1.63 0 00.233-.993v-1.844h.791v3.707z"/><path data-name="Path 12" d="M95.975 40.638a1.91 1.91 0 01.391.034l-.077.734a1.455 1.455 0 00-.348-.04 1.011 1.011 0 00-.766.307 1.119 1.119 0 00-.293.8v1.937h-.788v-3.706h.617l.1.654h.04a1.475 1.475 0 01.481-.527 1.151 1.151 0 01.643-.193z"/><path data-name="Path 13" d="M97.864 40.704h.858l.754 2.1a4.07 4.07 0 01.228.844h.027a3.463 3.463 0 01.11-.447q.081-.263.852-2.5h.851l-1.585 4.2a1.5 1.5 0 01-1.442 1.156 2.279 2.279 0 01-.509-.057v-.623a1.855 1.855 0 00.406.04.831.831 0 00.8-.66l.137-.348z"/><path data-name="Path 14" d="M110.702 41.915a2.439 2.439 0 01-.674 1.854 2.706 2.706 0 01-1.94.642h-1.37v-4.9h1.514a2.51 2.51 0 011.821.63 2.358 2.358 0 01.649 1.774zm-.844.026q0-1.759-1.645-1.759h-.694v3.555h.57a1.575 1.575 0 001.769-1.792z"/><path data-name="Path 15" d="M114.662 44.478a1.792 1.792 0 01-1.352-.5 1.912 1.912 0 01-.488-1.388 2.1 2.1 0 01.453-1.428 1.563 1.563 0 011.243-.52 1.528 1.528 0 011.16.446 1.7 1.7 0 01.425 1.227v.423h-2.47a1.22 1.22 0 00.292.83 1.017 1.017 0 00.774.289 2.943 2.943 0 00.612-.061 3.257 3.257 0 00.608-.207v.64a2.366 2.366 0 01-.583.194 3.536 3.536 0 01-.674.055zm-.145-3.244a.79.79 0 00-.6.237 1.134 1.134 0 00-.27.694h1.683a1.026 1.026 0 00-.222-.695.756.756 0 00-.59-.232z"/><path data-name="Path 16" d="M120.861 43.355a.973.973 0 01-.4.833 1.9 1.9 0 01-1.133.289 2.676 2.676 0 01-1.189-.224v-.681a2.91 2.91 0 001.216.3q.728 0 .727-.438a.347.347 0 00-.08-.235.971.971 0 00-.265-.194 4.456 4.456 0 00-.512-.228 2.365 2.365 0 01-.866-.5.92.92 0 01-.226-.644.843.843 0 01.384-.739 1.815 1.815 0 011.044-.263 2.959 2.959 0 011.237.265l-.255.593a2.737 2.737 0 00-1.008-.248q-.624 0-.623.355a.358.358 0 00.162.295 3.57 3.57 0 00.71.332 3.28 3.28 0 01.667.325.9.9 0 01.409.8z"/><path data-name="Path 17" d="M123.038 39.722a.435.435 0 01.116-.325.448.448 0 01.33-.115.441.441 0 01.323.115.434.434 0 01.116.325.428.428 0 01-.116.317.438.438 0 01-.323.116.445.445 0 01-.33-.116.428.428 0 01-.116-.317zm.835 4.689h-.788v-3.704h.788z"/><path data-name="Path 18" d="M129.502 40.704v.434l-.634.116a1.042 1.042 0 01.145.288 1.145 1.145 0 01.057.362 1.111 1.111 0 01-.4.9 1.66 1.66 0 01-1.089.329 1.82 1.82 0 01-.322-.027.443.443 0 00-.255.368.2.2 0 00.119.191 1.029 1.029 0 00.438.064h.646a1.439 1.439 0 01.932.261.922.922 0 01.318.755 1.1 1.1 0 01-.52.972 2.733 2.733 0 01-1.5.341 2.074 2.074 0 01-1.156-.267.869.869 0 01-.4-.765.812.812 0 01.217-.575 1.154 1.154 0 01.6-.324.583.583 0 01-.259-.215.546.546 0 01-.1-.314.538.538 0 01.117-.352 1.357 1.357 0 01.348-.285 1.04 1.04 0 01-.468-.4 1.194 1.194 0 01-.178-.656 1.176 1.176 0 01.38-.935 1.6 1.6 0 011.085-.332 2.715 2.715 0 01.33.022 2.017 2.017 0 01.259.045zm-2.912 4.283a.433.433 0 00.23.392 1.268 1.268 0 00.645.138 1.95 1.95 0 00.958-.184.556.556 0 00.315-.49.366.366 0 00-.173-.344 1.38 1.38 0 00-.641-.1h-.6a.842.842 0 00-.538.159.523.523 0 00-.197.429zm.338-3.084a.747.747 0 00.18.537.676.676 0 00.514.187q.684 0 .683-.73a.828.828 0 00-.168-.557.645.645 0 00-.515-.2.664.664 0 00-.518.195.818.818 0 00-.177.568z"/><path data-name="Path 19" d="M134.822 44.411h-.79v-2.28a1 1 0 00-.173-.64.668.668 0 00-.548-.211.868.868 0 00-.73.3 1.627 1.627 0 00-.232.988v1.847h-.788v-3.711h.617l.111.486h.04a1.093 1.093 0 01.476-.408 1.589 1.589 0 01.684-.145 1.189 1.189 0 011.333 1.358z"/><path data-name="Path 20" d="M139.78 43.355a.973.973 0 01-.4.833 1.9 1.9 0 01-1.133.289 2.68 2.68 0 01-1.189-.224v-.681a2.913 2.913 0 001.216.3q.728 0 .728-.438a.347.347 0 00-.081-.235.959.959 0 00-.265-.194 4.455 4.455 0 00-.513-.228 2.371 2.371 0 01-.866-.5.919.919 0 01-.226-.644.842.842 0 01.384-.739 1.813 1.813 0 011.044-.263 2.955 2.955 0 011.236.265l-.255.593a2.744 2.744 0 00-1.009-.248q-.624 0-.623.355a.357.357 0 00.163.295 3.534 3.534 0 00.709.332 3.269 3.269 0 01.667.325.906.906 0 01.408.8z"/></g></g></g></svg>