<svg data-name="Group 67012" xmlns="http://www.w3.org/2000/svg" width="25.294" height="35.788"><defs><clipPath id="a"><circle data-name="Ellipse 7" cx="3.751" cy="3.751" r="3.751" fill="#fff" stroke="#707070"/></clipPath><clipPath id="b"><circle data-name="Ellipse 8" cx="1.767" cy="1.767" fill="#fff" stroke="#707070" r="1.767"/></clipPath></defs><g data-name="Group 67012"><g data-name="Layer 2"><path data-name="Path 48" d="M24.742 0H.552A.552.552 0 000 .552v34.681a.552.552 0 001.1 0v-1.875h23.091v1.879a.552.552 0 001.1 0V.552A.552.552 0 0024.742 0zM13.675 32.255a.54.54 0 00.026-.162V1.838a.552.552 0 10-1.1 0v30.255a.541.541 0 00.026.162H1.1V1.1h23.091v31.155z"/><path data-name="Path 49" d="M17.499 14.002a.552.552 0 00-.552.552v4.045a.552.552 0 001.1 0v-4.045a.552.552 0 00-.548-.552zm-8.674 0a.552.552 0 00-.552.552v4.045a.552.552 0 001.1 0v-4.045a.552.552 0 00-.548-.552z"/></g><g data-name="Mask Group 3" transform="translate(9.37 12.577)" clip-path="url(#a)"><path data-name="sofa (2)" d="M-.991-10.101a7.081 7.081 0 00-7.07 7.07v4.83a6.017 6.017 0 00-4.713 5.909v24.11a5.2 5.2 0 004.713 5.164v3.586a1.178 1.178 0 001.178 1.178h4.713a1.178 1.178 0 001.178-1.178v-3.535h51.848v3.535a1.178 1.178 0 001.178 1.178h4.713a1.178 1.178 0 001.179-1.178v-3.586a5.2 5.2 0 004.713-5.164V7.708a6.017 6.017 0 00-4.713-5.909v-4.83a7.081 7.081 0 00-7.07-7.07h-9.43a7.063 7.063 0 00-5.892 3.181 7.063 7.063 0 00-5.888-3.181h-9.427a7.063 7.063 0 00-5.893 3.181 7.063 7.063 0 00-5.89-3.181zm0 2.357h9.427a4.677 4.677 0 014.713 4.713v18.853H-1.032l-.037 1.114.078-.028v-3.442a1.178 1.178 0 001.178-1.178 1.179 1.179 0 000-2.357A1.178 1.178 0 00-.991 8.757v-1.05a6.016 6.016 0 00-4.713-5.908v-4.83A4.677 4.677 0 01-.991-7.744zm21.21 0h9.427a4.677 4.677 0 014.713 4.713v18.853H15.506V-3.031a4.677 4.677 0 014.713-4.713zm21.21 0h9.427a4.677 4.677 0 014.713 4.713v4.83a6.017 6.017 0 00-4.713 5.906v1.049h-.018a1.179 1.179 0 00-1.16 1.174 1.179 1.179 0 000 2.357 1.178 1.178 0 001.178 1.178v2.357h-14.14V-3.031a4.677 4.677 0 014.71-4.713zM-1.009-5.388a1.178 1.178 0 00-1.16 1.178 1.179 1.179 0 000 2.357 1.179 1.179 0 102.357 0 1.179 1.179 0 000-2.357 1.178 1.178 0 00-1.197-1.178zm9.427 0a1.178 1.178 0 00-1.16 1.178 1.179 1.179 0 000 2.357 1.179 1.179 0 102.357 0 1.179 1.179 0 000-2.357 1.178 1.178 0 00-1.197-1.178zm11.783 0a1.178 1.178 0 00-1.16 1.178 1.179 1.179 0 000 2.357 1.179 1.179 0 102.357 0 1.179 1.179 0 000-2.357 1.178 1.178 0 00-1.2-1.178zm9.427 0a1.178 1.178 0 00-1.16 1.178 1.179 1.179 0 000 2.357 1.179 1.179 0 102.357 0 1.179 1.179 0 000-2.357 1.178 1.178 0 00-1.2-1.178zm11.783 0a1.178 1.178 0 00-1.16 1.178 1.179 1.179 0 000 2.357 1.179 1.179 0 102.357 0 1.179 1.179 0 000-2.357 1.178 1.178 0 00-1.2-1.178zm9.427 0a1.178 1.178 0 00-1.16 1.178 1.179 1.179 0 000 2.357 1.179 1.179 0 102.357 0 1.179 1.179 0 000-2.357 1.178 1.178 0 00-1.2-1.178zM3.704 1.682a1.178 1.178 0 00-1.16 1.178 1.179 1.179 0 000 2.357 1.179 1.179 0 102.357 0 1.179 1.179 0 000-2.357 1.178 1.178 0 00-1.2-1.178zm21.21 0a1.178 1.178 0 00-1.16 1.178 1.179 1.179 0 000 2.357 1.179 1.179 0 102.357 0 1.179 1.179 0 000-2.357 1.178 1.178 0 00-1.2-1.178zm21.21 0a1.178 1.178 0 00-1.16 1.178 1.179 1.179 0 000 2.357 1.179 1.179 0 102.357 0 1.179 1.179 0 000-2.357 1.178 1.178 0 00-1.195-1.178zM-6.882 4.039a3.57 3.57 0 013.535 3.668v26.969h-4.227a2.817 2.817 0 01-2.84-2.858V7.707a3.57 3.57 0 013.532-3.668zm63.63 0a3.57 3.57 0 013.535 3.669v24.11a2.817 2.817 0 01-2.84 2.858h-4.23V7.707a3.57 3.57 0 013.535-3.668zM8.418 8.757a1.178 1.178 0 00-1.16 1.174 1.179 1.179 0 000 2.357 1.179 1.179 0 102.357 0 1.179 1.179 0 000-2.357 1.178 1.178 0 00-1.2-1.174zm11.783 0a1.178 1.178 0 00-1.16 1.174 1.179 1.179 0 000 2.357 1.179 1.179 0 102.357 0 1.179 1.179 0 000-2.357 1.178 1.178 0 00-1.2-1.174zm9.427 0a1.178 1.178 0 00-1.16 1.174 1.179 1.179 0 000 2.357 1.179 1.179 0 102.357 0 1.179 1.179 0 000-2.357 1.178 1.178 0 00-1.2-1.174zm11.783 0a1.178 1.178 0 00-1.16 1.174 1.179 1.179 0 000 2.357 1.179 1.179 0 102.357 0 1.179 1.179 0 000-2.357 1.178 1.178 0 00-1.2-1.174zm-42.4 9.422h51.845v4.741H-.991zm0 7.1h51.845v9.4H-.991zm-4.715 11.754h2.357v2.356h-2.357zm58.917 0h2.357v2.356h-2.357z"/></g></g><g data-name="Group 67013"><g data-name="Mask Group 4" transform="translate(1.694 28.542)" clip-path="url(#b)"><path data-name="sofa (2)" d="M-.467-4.759a3.336 3.336 0 00-3.331 3.331V.849a2.835 2.835 0 00-2.221 2.783v11.36a2.453 2.453 0 002.221 2.433v1.69a.555.555 0 00.555.555h2.224a.555.555 0 00.555-.555V17.45h24.43v1.666a.555.555 0 00.555.555h2.221a.555.555 0 00.555-.555v-1.69a2.453 2.453 0 002.221-2.433V3.632A2.835 2.835 0 0027.297.849v-2.277a3.336 3.336 0 00-3.334-3.331h-4.442a3.328 3.328 0 00-2.776 1.5 3.328 3.328 0 00-2.776-1.5H9.527a3.328 3.328 0 00-2.776 1.5 3.328 3.328 0 00-2.776-1.5zm0 1.11h4.442a2.2 2.2 0 012.221 2.221v8.884H-.486l-.017.525.037-.013V6.341a.555.555 0 00.555-.555.555.555 0 000-1.11.555.555 0 00-.555-.553v-.495A2.835 2.835 0 00-2.687.845v-2.273a2.2 2.2 0 012.22-2.221zm9.994 0h4.442a2.2 2.2 0 012.221 2.221v8.884H7.306v-8.884a2.2 2.2 0 012.221-2.221zm9.994 0h4.442a2.2 2.2 0 012.218 2.221V.849a2.835 2.835 0 00-2.221 2.783v.494h-.009a.555.555 0 00-.547.553.555.555 0 000 1.11.555.555 0 00.555.555v1.11H17.3v-8.882a2.2 2.2 0 012.221-2.221zm-20 1.11a.555.555 0 00-.54.556.555.555 0 000 1.11.555.555 0 101.11 0 .555.555 0 000-1.11.555.555 0 00-.566-.555zm4.442 0a.555.555 0 00-.547.555.555.555 0 000 1.11.555.555 0 101.11 0 .555.555 0 000-1.11.555.555 0 00-.564-.555zm5.552 0a.555.555 0 00-.547.555.555.555 0 000 1.11.555.555 0 101.11 0 .555.555 0 000-1.11.555.555 0 00-.564-.555zm4.442 0a.555.555 0 00-.547.555.555.555 0 000 1.11.555.555 0 101.11 0 .555.555 0 000-1.11.555.555 0 00-.564-.555zm5.552 0a.555.555 0 00-.547.555.555.555 0 000 1.11.555.555 0 101.11 0 .555.555 0 000-1.11.555.555 0 00-.564-.555zm4.442 0a.555.555 0 00-.547.555.555.555 0 000 1.11.555.555 0 101.11 0 .555.555 0 000-1.11.555.555 0 00-.564-.555zM1.745.793a.555.555 0 00-.547.555.555.555 0 000 1.11.555.555 0 101.11 0 .555.555 0 000-1.11.555.555 0 00-.564-.555zm9.994 0a.555.555 0 00-.547.555.555.555 0 000 1.11.555.555 0 101.11 0 .555.555 0 000-1.11.555.555 0 00-.564-.555zm9.994 0a.555.555 0 00-.547.555.555.555 0 000 1.11.555.555 0 101.11 0 .555.555 0 000-1.11.555.555 0 00-.563-.555zM-3.243 1.904a1.682 1.682 0 011.666 1.729v12.708H-3.57a1.327 1.327 0 01-1.339-1.348V3.632a1.682 1.682 0 011.666-1.728zm29.982 0a1.682 1.682 0 011.666 1.729v11.36a1.327 1.327 0 01-1.338 1.348h-1.994V3.632a1.682 1.682 0 011.666-1.728zM3.966 4.127a.555.555 0 00-.547.553.555.555 0 000 1.11.555.555 0 101.11 0 .555.555 0 000-1.11.555.555 0 00-.564-.553zm5.552 0a.555.555 0 00-.547.553.555.555 0 000 1.11.555.555 0 101.11 0 .555.555 0 000-1.11.555.555 0 00-.564-.553zm4.442 0a.555.555 0 00-.547.553.555.555 0 000 1.11.555.555 0 101.11 0 .555.555 0 000-1.11.555.555 0 00-.564-.553zm5.552 0a.555.555 0 00-.547.553.555.555 0 000 1.11.555.555 0 101.11 0 .555.555 0 000-1.11.555.555 0 00-.564-.553zM-.467 8.566h24.43V10.8H-.467zm0 3.344h24.43v4.431H-.467zm-2.221 5.54h1.11v1.11h-1.11zm27.761 0h1.108v1.11h-1.11z"/></g><g data-name="Mask Group 5" transform="translate(5.229 28.542)" clip-path="url(#b)"><path data-name="sofa (2)" d="M-.467-4.759a3.336 3.336 0 00-3.331 3.331V.849a2.835 2.835 0 00-2.221 2.783v11.36a2.453 2.453 0 002.221 2.433v1.69a.555.555 0 00.555.555h2.224a.555.555 0 00.555-.555V17.45h24.43v1.666a.555.555 0 00.555.555h2.221a.555.555 0 00.555-.555v-1.69a2.453 2.453 0 002.221-2.433V3.632A2.835 2.835 0 0027.297.849v-2.277a3.336 3.336 0 00-3.334-3.331h-4.442a3.328 3.328 0 00-2.776 1.5 3.328 3.328 0 00-2.776-1.5H9.527a3.328 3.328 0 00-2.776 1.5 3.328 3.328 0 00-2.776-1.5zm0 1.11h4.442a2.2 2.2 0 012.221 2.221v8.884H-.486l-.017.525.037-.013V6.341a.555.555 0 00.555-.555.555.555 0 000-1.11.555.555 0 00-.555-.553v-.495A2.835 2.835 0 00-2.687.845v-2.273a2.2 2.2 0 012.22-2.221zm9.994 0h4.442a2.2 2.2 0 012.221 2.221v8.884H7.306v-8.884a2.2 2.2 0 012.221-2.221zm9.994 0h4.442a2.2 2.2 0 012.218 2.221V.849a2.835 2.835 0 00-2.221 2.783v.494h-.009a.555.555 0 00-.547.553.555.555 0 000 1.11.555.555 0 00.555.555v1.11H17.3v-8.882a2.2 2.2 0 012.221-2.221zm-20 1.11a.555.555 0 00-.54.556.555.555 0 000 1.11.555.555 0 101.11 0 .555.555 0 000-1.11.555.555 0 00-.566-.555zm4.442 0a.555.555 0 00-.547.555.555.555 0 000 1.11.555.555 0 101.11 0 .555.555 0 000-1.11.555.555 0 00-.564-.555zm5.552 0a.555.555 0 00-.547.555.555.555 0 000 1.11.555.555 0 101.11 0 .555.555 0 000-1.11.555.555 0 00-.564-.555zm4.442 0a.555.555 0 00-.547.555.555.555 0 000 1.11.555.555 0 101.11 0 .555.555 0 000-1.11.555.555 0 00-.564-.555zm5.552 0a.555.555 0 00-.547.555.555.555 0 000 1.11.555.555 0 101.11 0 .555.555 0 000-1.11.555.555 0 00-.564-.555zm4.442 0a.555.555 0 00-.547.555.555.555 0 000 1.11.555.555 0 101.11 0 .555.555 0 000-1.11.555.555 0 00-.564-.555zM1.745.793a.555.555 0 00-.547.555.555.555 0 000 1.11.555.555 0 101.11 0 .555.555 0 000-1.11.555.555 0 00-.564-.555zm9.994 0a.555.555 0 00-.547.555.555.555 0 000 1.11.555.555 0 101.11 0 .555.555 0 000-1.11.555.555 0 00-.564-.555zm9.994 0a.555.555 0 00-.547.555.555.555 0 000 1.11.555.555 0 101.11 0 .555.555 0 000-1.11.555.555 0 00-.563-.555zM-3.243 1.904a1.682 1.682 0 011.666 1.729v12.708H-3.57a1.327 1.327 0 01-1.339-1.348V3.632a1.682 1.682 0 011.666-1.728zm29.982 0a1.682 1.682 0 011.666 1.729v11.36a1.327 1.327 0 01-1.338 1.348h-1.994V3.632a1.682 1.682 0 011.666-1.728zM3.966 4.127a.555.555 0 00-.547.553.555.555 0 000 1.11.555.555 0 101.11 0 .555.555 0 000-1.11.555.555 0 00-.564-.553zm5.552 0a.555.555 0 00-.547.553.555.555 0 000 1.11.555.555 0 101.11 0 .555.555 0 000-1.11.555.555 0 00-.564-.553zm4.442 0a.555.555 0 00-.547.553.555.555 0 000 1.11.555.555 0 101.11 0 .555.555 0 000-1.11.555.555 0 00-.564-.553zm5.552 0a.555.555 0 00-.547.553.555.555 0 000 1.11.555.555 0 101.11 0 .555.555 0 000-1.11.555.555 0 00-.564-.553zM-.467 8.566h24.43V10.8H-.467zm0 3.344h24.43v4.431H-.467zm-2.221 5.54h1.11v1.11h-1.11zm27.761 0h1.108v1.11h-1.11z"/></g><g data-name="Mask Group 6" transform="translate(8.763 28.542)" clip-path="url(#b)"><path data-name="sofa (2)" d="M-.467-4.759a3.336 3.336 0 00-3.331 3.331V.849a2.835 2.835 0 00-2.221 2.783v11.36a2.453 2.453 0 002.221 2.433v1.69a.555.555 0 00.555.555h2.224a.555.555 0 00.555-.555V17.45h24.43v1.666a.555.555 0 00.555.555h2.221a.555.555 0 00.555-.555v-1.69a2.453 2.453 0 002.221-2.433V3.632A2.835 2.835 0 0027.297.849v-2.277a3.336 3.336 0 00-3.334-3.331h-4.442a3.328 3.328 0 00-2.776 1.5 3.328 3.328 0 00-2.776-1.5H9.527a3.328 3.328 0 00-2.776 1.5 3.328 3.328 0 00-2.776-1.5zm0 1.11h4.442a2.2 2.2 0 012.221 2.221v8.884H-.486l-.017.525.037-.013V6.341a.555.555 0 00.555-.555.555.555 0 000-1.11.555.555 0 00-.555-.553v-.495A2.835 2.835 0 00-2.687.845v-2.273a2.2 2.2 0 012.22-2.221zm9.994 0h4.442a2.2 2.2 0 012.221 2.221v8.884H7.306v-8.884a2.2 2.2 0 012.221-2.221zm9.994 0h4.442a2.2 2.2 0 012.218 2.221V.849a2.835 2.835 0 00-2.221 2.783v.494h-.009a.555.555 0 00-.547.553.555.555 0 000 1.11.555.555 0 00.555.555v1.11H17.3v-8.882a2.2 2.2 0 012.221-2.221zm-20 1.11a.555.555 0 00-.54.556.555.555 0 000 1.11.555.555 0 101.11 0 .555.555 0 000-1.11.555.555 0 00-.566-.555zm4.442 0a.555.555 0 00-.547.555.555.555 0 000 1.11.555.555 0 101.11 0 .555.555 0 000-1.11.555.555 0 00-.564-.555zm5.552 0a.555.555 0 00-.547.555.555.555 0 000 1.11.555.555 0 101.11 0 .555.555 0 000-1.11.555.555 0 00-.564-.555zm4.442 0a.555.555 0 00-.547.555.555.555 0 000 1.11.555.555 0 101.11 0 .555.555 0 000-1.11.555.555 0 00-.564-.555zm5.552 0a.555.555 0 00-.547.555.555.555 0 000 1.11.555.555 0 101.11 0 .555.555 0 000-1.11.555.555 0 00-.564-.555zm4.442 0a.555.555 0 00-.547.555.555.555 0 000 1.11.555.555 0 101.11 0 .555.555 0 000-1.11.555.555 0 00-.564-.555zM1.745.793a.555.555 0 00-.547.555.555.555 0 000 1.11.555.555 0 101.11 0 .555.555 0 000-1.11.555.555 0 00-.564-.555zm9.994 0a.555.555 0 00-.547.555.555.555 0 000 1.11.555.555 0 101.11 0 .555.555 0 000-1.11.555.555 0 00-.564-.555zm9.994 0a.555.555 0 00-.547.555.555.555 0 000 1.11.555.555 0 101.11 0 .555.555 0 000-1.11.555.555 0 00-.563-.555zM-3.243 1.904a1.682 1.682 0 011.666 1.729v12.708H-3.57a1.327 1.327 0 01-1.339-1.348V3.632a1.682 1.682 0 011.666-1.728zm29.982 0a1.682 1.682 0 011.666 1.729v11.36a1.327 1.327 0 01-1.338 1.348h-1.994V3.632a1.682 1.682 0 011.666-1.728zM3.966 4.127a.555.555 0 00-.547.553.555.555 0 000 1.11.555.555 0 101.11 0 .555.555 0 000-1.11.555.555 0 00-.564-.553zm5.552 0a.555.555 0 00-.547.553.555.555 0 000 1.11.555.555 0 101.11 0 .555.555 0 000-1.11.555.555 0 00-.564-.553zm4.442 0a.555.555 0 00-.547.553.555.555 0 000 1.11.555.555 0 101.11 0 .555.555 0 000-1.11.555.555 0 00-.564-.553zm5.552 0a.555.555 0 00-.547.553.555.555 0 000 1.11.555.555 0 101.11 0 .555.555 0 000-1.11.555.555 0 00-.564-.553zM-.467 8.566h24.43V10.8H-.467zm0 3.344h24.43v4.431H-.467zm-2.221 5.54h1.11v1.11h-1.11zm27.761 0h1.108v1.11h-1.11z"/></g><g data-name="Mask Group 7" transform="translate(13.182 28.542)" clip-path="url(#b)"><path data-name="sofa (2)" d="M-.467-4.759a3.336 3.336 0 00-3.331 3.331V.849a2.835 2.835 0 00-2.221 2.783v11.36a2.453 2.453 0 002.221 2.433v1.69a.555.555 0 00.555.555h2.224a.555.555 0 00.555-.555V17.45h24.43v1.666a.555.555 0 00.555.555h2.221a.555.555 0 00.555-.555v-1.69a2.453 2.453 0 002.221-2.433V3.632A2.835 2.835 0 0027.297.849v-2.277a3.336 3.336 0 00-3.334-3.331h-4.442a3.328 3.328 0 00-2.776 1.5 3.328 3.328 0 00-2.776-1.5H9.527a3.328 3.328 0 00-2.776 1.5 3.328 3.328 0 00-2.776-1.5zm0 1.11h4.442a2.2 2.2 0 012.221 2.221v8.884H-.486l-.017.525.037-.013V6.341a.555.555 0 00.555-.555.555.555 0 000-1.11.555.555 0 00-.555-.553v-.495A2.835 2.835 0 00-2.687.845v-2.273a2.2 2.2 0 012.22-2.221zm9.994 0h4.442a2.2 2.2 0 012.221 2.221v8.884H7.306v-8.884a2.2 2.2 0 012.221-2.221zm9.994 0h4.442a2.2 2.2 0 012.218 2.221V.849a2.835 2.835 0 00-2.221 2.783v.494h-.009a.555.555 0 00-.547.553.555.555 0 000 1.11.555.555 0 00.555.555v1.11H17.3v-8.882a2.2 2.2 0 012.221-2.221zm-20 1.11a.555.555 0 00-.54.556.555.555 0 000 1.11.555.555 0 101.11 0 .555.555 0 000-1.11.555.555 0 00-.566-.555zm4.442 0a.555.555 0 00-.547.555.555.555 0 000 1.11.555.555 0 101.11 0 .555.555 0 000-1.11.555.555 0 00-.564-.555zm5.552 0a.555.555 0 00-.547.555.555.555 0 000 1.11.555.555 0 101.11 0 .555.555 0 000-1.11.555.555 0 00-.564-.555zm4.442 0a.555.555 0 00-.547.555.555.555 0 000 1.11.555.555 0 101.11 0 .555.555 0 000-1.11.555.555 0 00-.564-.555zm5.552 0a.555.555 0 00-.547.555.555.555 0 000 1.11.555.555 0 101.11 0 .555.555 0 000-1.11.555.555 0 00-.564-.555zm4.442 0a.555.555 0 00-.547.555.555.555 0 000 1.11.555.555 0 101.11 0 .555.555 0 000-1.11.555.555 0 00-.564-.555zM1.745.793a.555.555 0 00-.547.555.555.555 0 000 1.11.555.555 0 101.11 0 .555.555 0 000-1.11.555.555 0 00-.564-.555zm9.994 0a.555.555 0 00-.547.555.555.555 0 000 1.11.555.555 0 101.11 0 .555.555 0 000-1.11.555.555 0 00-.564-.555zm9.994 0a.555.555 0 00-.547.555.555.555 0 000 1.11.555.555 0 101.11 0 .555.555 0 000-1.11.555.555 0 00-.563-.555zM-3.243 1.904a1.682 1.682 0 011.666 1.729v12.708H-3.57a1.327 1.327 0 01-1.339-1.348V3.632a1.682 1.682 0 011.666-1.728zm29.982 0a1.682 1.682 0 011.666 1.729v11.36a1.327 1.327 0 01-1.338 1.348h-1.994V3.632a1.682 1.682 0 011.666-1.728zM3.966 4.127a.555.555 0 00-.547.553.555.555 0 000 1.11.555.555 0 101.11 0 .555.555 0 000-1.11.555.555 0 00-.564-.553zm5.552 0a.555.555 0 00-.547.553.555.555 0 000 1.11.555.555 0 101.11 0 .555.555 0 000-1.11.555.555 0 00-.564-.553zm4.442 0a.555.555 0 00-.547.553.555.555 0 000 1.11.555.555 0 101.11 0 .555.555 0 000-1.11.555.555 0 00-.564-.553zm5.552 0a.555.555 0 00-.547.553.555.555 0 000 1.11.555.555 0 101.11 0 .555.555 0 000-1.11.555.555 0 00-.564-.553zM-.467 8.566h24.43V10.8H-.467zm0 3.344h24.43v4.431H-.467zm-2.221 5.54h1.11v1.11h-1.11zm27.761 0h1.108v1.11h-1.11z"/></g><g data-name="Mask Group 8" transform="translate(16.716 28.542)" clip-path="url(#b)"><path data-name="sofa (2)" d="M-.467-4.759a3.336 3.336 0 00-3.331 3.331V.849a2.835 2.835 0 00-2.221 2.783v11.36a2.453 2.453 0 002.221 2.433v1.69a.555.555 0 00.555.555h2.224a.555.555 0 00.555-.555V17.45h24.43v1.666a.555.555 0 00.555.555h2.221a.555.555 0 00.555-.555v-1.69a2.453 2.453 0 002.221-2.433V3.632A2.835 2.835 0 0027.297.849v-2.277a3.336 3.336 0 00-3.334-3.331h-4.442a3.328 3.328 0 00-2.776 1.5 3.328 3.328 0 00-2.776-1.5H9.527a3.328 3.328 0 00-2.776 1.5 3.328 3.328 0 00-2.776-1.5zm0 1.11h4.442a2.2 2.2 0 012.221 2.221v8.884H-.486l-.017.525.037-.013V6.341a.555.555 0 00.555-.555.555.555 0 000-1.11.555.555 0 00-.555-.553v-.495A2.835 2.835 0 00-2.687.845v-2.273a2.2 2.2 0 012.22-2.221zm9.994 0h4.442a2.2 2.2 0 012.221 2.221v8.884H7.306v-8.884a2.2 2.2 0 012.221-2.221zm9.994 0h4.442a2.2 2.2 0 012.218 2.221V.849a2.835 2.835 0 00-2.221 2.783v.494h-.009a.555.555 0 00-.547.553.555.555 0 000 1.11.555.555 0 00.555.555v1.11H17.3v-8.882a2.2 2.2 0 012.221-2.221zm-20 1.11a.555.555 0 00-.54.556.555.555 0 000 1.11.555.555 0 101.11 0 .555.555 0 000-1.11.555.555 0 00-.566-.555zm4.442 0a.555.555 0 00-.547.555.555.555 0 000 1.11.555.555 0 101.11 0 .555.555 0 000-1.11.555.555 0 00-.564-.555zm5.552 0a.555.555 0 00-.547.555.555.555 0 000 1.11.555.555 0 101.11 0 .555.555 0 000-1.11.555.555 0 00-.564-.555zm4.442 0a.555.555 0 00-.547.555.555.555 0 000 1.11.555.555 0 101.11 0 .555.555 0 000-1.11.555.555 0 00-.564-.555zm5.552 0a.555.555 0 00-.547.555.555.555 0 000 1.11.555.555 0 101.11 0 .555.555 0 000-1.11.555.555 0 00-.564-.555zm4.442 0a.555.555 0 00-.547.555.555.555 0 000 1.11.555.555 0 101.11 0 .555.555 0 000-1.11.555.555 0 00-.564-.555zM1.745.793a.555.555 0 00-.547.555.555.555 0 000 1.11.555.555 0 101.11 0 .555.555 0 000-1.11.555.555 0 00-.564-.555zm9.994 0a.555.555 0 00-.547.555.555.555 0 000 1.11.555.555 0 101.11 0 .555.555 0 000-1.11.555.555 0 00-.564-.555zm9.994 0a.555.555 0 00-.547.555.555.555 0 000 1.11.555.555 0 101.11 0 .555.555 0 000-1.11.555.555 0 00-.563-.555zM-3.243 1.904a1.682 1.682 0 011.666 1.729v12.708H-3.57a1.327 1.327 0 01-1.339-1.348V3.632a1.682 1.682 0 011.666-1.728zm29.982 0a1.682 1.682 0 011.666 1.729v11.36a1.327 1.327 0 01-1.338 1.348h-1.994V3.632a1.682 1.682 0 011.666-1.728zM3.966 4.127a.555.555 0 00-.547.553.555.555 0 000 1.11.555.555 0 101.11 0 .555.555 0 000-1.11.555.555 0 00-.564-.553zm5.552 0a.555.555 0 00-.547.553.555.555 0 000 1.11.555.555 0 101.11 0 .555.555 0 000-1.11.555.555 0 00-.564-.553zm4.442 0a.555.555 0 00-.547.553.555.555 0 000 1.11.555.555 0 101.11 0 .555.555 0 000-1.11.555.555 0 00-.564-.553zm5.552 0a.555.555 0 00-.547.553.555.555 0 000 1.11.555.555 0 101.11 0 .555.555 0 000-1.11.555.555 0 00-.564-.553zM-.467 8.566h24.43V10.8H-.467zm0 3.344h24.43v4.431H-.467zm-2.221 5.54h1.11v1.11h-1.11zm27.761 0h1.108v1.11h-1.11z"/></g><g data-name="Mask Group 9" transform="translate(20.251 28.542)" clip-path="url(#b)"><path data-name="sofa (2)" d="M-.467-4.759a3.336 3.336 0 00-3.331 3.331V.849a2.835 2.835 0 00-2.221 2.783v11.36a2.453 2.453 0 002.221 2.433v1.69a.555.555 0 00.555.555h2.224a.555.555 0 00.555-.555V17.45h24.43v1.666a.555.555 0 00.555.555h2.221a.555.555 0 00.555-.555v-1.69a2.453 2.453 0 002.221-2.433V3.632A2.835 2.835 0 0027.297.849v-2.277a3.336 3.336 0 00-3.334-3.331h-4.442a3.328 3.328 0 00-2.776 1.5 3.328 3.328 0 00-2.776-1.5H9.527a3.328 3.328 0 00-2.776 1.5 3.328 3.328 0 00-2.776-1.5zm0 1.11h4.442a2.2 2.2 0 012.221 2.221v8.884H-.486l-.017.525.037-.013V6.341a.555.555 0 00.555-.555.555.555 0 000-1.11.555.555 0 00-.555-.553v-.495A2.835 2.835 0 00-2.687.845v-2.273a2.2 2.2 0 012.22-2.221zm9.994 0h4.442a2.2 2.2 0 012.221 2.221v8.884H7.306v-8.884a2.2 2.2 0 012.221-2.221zm9.994 0h4.442a2.2 2.2 0 012.218 2.221V.849a2.835 2.835 0 00-2.221 2.783v.494h-.009a.555.555 0 00-.547.553.555.555 0 000 1.11.555.555 0 00.555.555v1.11H17.3v-8.882a2.2 2.2 0 012.221-2.221zm-20 1.11a.555.555 0 00-.54.556.555.555 0 000 1.11.555.555 0 101.11 0 .555.555 0 000-1.11.555.555 0 00-.566-.555zm4.442 0a.555.555 0 00-.547.555.555.555 0 000 1.11.555.555 0 101.11 0 .555.555 0 000-1.11.555.555 0 00-.564-.555zm5.552 0a.555.555 0 00-.547.555.555.555 0 000 1.11.555.555 0 101.11 0 .555.555 0 000-1.11.555.555 0 00-.564-.555zm4.442 0a.555.555 0 00-.547.555.555.555 0 000 1.11.555.555 0 101.11 0 .555.555 0 000-1.11.555.555 0 00-.564-.555zm5.552 0a.555.555 0 00-.547.555.555.555 0 000 1.11.555.555 0 101.11 0 .555.555 0 000-1.11.555.555 0 00-.564-.555zm4.442 0a.555.555 0 00-.547.555.555.555 0 000 1.11.555.555 0 101.11 0 .555.555 0 000-1.11.555.555 0 00-.564-.555zM1.745.793a.555.555 0 00-.547.555.555.555 0 000 1.11.555.555 0 101.11 0 .555.555 0 000-1.11.555.555 0 00-.564-.555zm9.994 0a.555.555 0 00-.547.555.555.555 0 000 1.11.555.555 0 101.11 0 .555.555 0 000-1.11.555.555 0 00-.564-.555zm9.994 0a.555.555 0 00-.547.555.555.555 0 000 1.11.555.555 0 101.11 0 .555.555 0 000-1.11.555.555 0 00-.563-.555zM-3.243 1.904a1.682 1.682 0 011.666 1.729v12.708H-3.57a1.327 1.327 0 01-1.339-1.348V3.632a1.682 1.682 0 011.666-1.728zm29.982 0a1.682 1.682 0 011.666 1.729v11.36a1.327 1.327 0 01-1.338 1.348h-1.994V3.632a1.682 1.682 0 011.666-1.728zM3.966 4.127a.555.555 0 00-.547.553.555.555 0 000 1.11.555.555 0 101.11 0 .555.555 0 000-1.11.555.555 0 00-.564-.553zm5.552 0a.555.555 0 00-.547.553.555.555 0 000 1.11.555.555 0 101.11 0 .555.555 0 000-1.11.555.555 0 00-.564-.553zm4.442 0a.555.555 0 00-.547.553.555.555 0 000 1.11.555.555 0 101.11 0 .555.555 0 000-1.11.555.555 0 00-.564-.553zm5.552 0a.555.555 0 00-.547.553.555.555 0 000 1.11.555.555 0 101.11 0 .555.555 0 000-1.11.555.555 0 00-.564-.553zM-.467 8.566h24.43V10.8H-.467zm0 3.344h24.43v4.431H-.467zm-2.221 5.54h1.11v1.11h-1.11zm27.761 0h1.108v1.11h-1.11z"/></g></g></svg>