<svg data-name="Group 67019" xmlns="http://www.w3.org/2000/svg" width="37.167" height="39.473"><defs><clipPath id="a"><circle data-name="Ellipse 8" cx="1.767" cy="1.767" fill="#fff" stroke="#707070" r="1.767"/></clipPath></defs><g data-name="Group 67018"><g data-name="Layer 2"><path data-name="Path 50" d="M34.526 21.259H22.842a8.05 8.05 0 003.8-6.826V11.4h1.791a.616.616 0 100-1.232h-1.791v-2.11a8.059 8.059 0 10-16.117 0V10.2a.608.608 0 00-.164-.025H8.232a.616.616 0 100 1.232h2.128a.608.608 0 00.164-.025v3.056a8.05 8.05 0 003.8 6.826H2.642a2.744 2.744 0 000 5.483h.444V32.5a.616.616 0 00.616.616h3.647l-1.848 5.545a.617.617 0 101.171.39l1.98-5.939h19.3l2 5.947a.616.616 0 001.158-.39l-1.85-5.549h4.206a.616.616 0 00.616-.616v-5.75h.448a2.744 2.744 0 000-5.483zm-22.77-6.822V8.058a6.826 6.826 0 1113.652 0v6.378a6.826 6.826 0 11-13.652 0zm21.086 17.455h-4.284a.612.612 0 00-.292 0H8.355a.608.608 0 00-.292 0H4.314v-5.146H32.85zm1.68-6.378H2.642a1.511 1.511 0 010-3.019h31.884a1.511 1.511 0 010 3.019z"/><path data-name="Path 51" d="M20.2 5.08a.616.616 0 00-.821.275l-4.256 8.506a.616.616 0 101.1.55l4.251-8.5a.616.616 0 00-.275-.83zm1.606 6.042a.616.616 0 00-.821.275l-2.128 4.251a.616.616 0 101.1.55l2.119-4.251a.616.616 0 00-.267-.826z"/></g><g data-name="Group 67017"><g data-name="Mask Group 4" transform="translate(7.762 27.221)" clip-path="url(#a)"><path data-name="sofa (2)" d="M-.467-4.759a3.336 3.336 0 00-3.331 3.331V.849a2.835 2.835 0 00-2.221 2.783v11.36a2.453 2.453 0 002.221 2.433v1.69a.555.555 0 00.555.555h2.224a.555.555 0 00.555-.555V17.45h24.43v1.666a.555.555 0 00.555.555h2.221a.555.555 0 00.555-.555v-1.69a2.453 2.453 0 002.221-2.433V3.632A2.835 2.835 0 0027.297.849v-2.277a3.336 3.336 0 00-3.334-3.331h-4.442a3.328 3.328 0 00-2.776 1.5 3.328 3.328 0 00-2.776-1.5H9.527a3.328 3.328 0 00-2.776 1.5 3.328 3.328 0 00-2.776-1.5zm0 1.11h4.442a2.2 2.2 0 012.221 2.221v8.884H-.486l-.017.525.037-.013V6.341a.555.555 0 00.555-.555.555.555 0 000-1.11.555.555 0 00-.555-.553v-.495A2.835 2.835 0 00-2.687.845v-2.273a2.2 2.2 0 012.22-2.221zm9.994 0h4.442a2.2 2.2 0 012.221 2.221v8.884H7.306v-8.884a2.2 2.2 0 012.221-2.221zm9.994 0h4.442a2.2 2.2 0 012.218 2.221V.849a2.835 2.835 0 00-2.221 2.783v.494h-.009a.555.555 0 00-.547.553.555.555 0 000 1.11.555.555 0 00.555.555v1.11H17.3v-8.882a2.2 2.2 0 012.221-2.221zm-20 1.11a.555.555 0 00-.54.556.555.555 0 000 1.11.555.555 0 101.11 0 .555.555 0 000-1.11.555.555 0 00-.566-.555zm4.442 0a.555.555 0 00-.547.555.555.555 0 000 1.11.555.555 0 101.11 0 .555.555 0 000-1.11.555.555 0 00-.564-.555zm5.552 0a.555.555 0 00-.547.555.555.555 0 000 1.11.555.555 0 101.11 0 .555.555 0 000-1.11.555.555 0 00-.564-.555zm4.442 0a.555.555 0 00-.547.555.555.555 0 000 1.11.555.555 0 101.11 0 .555.555 0 000-1.11.555.555 0 00-.564-.555zm5.552 0a.555.555 0 00-.547.555.555.555 0 000 1.11.555.555 0 101.11 0 .555.555 0 000-1.11.555.555 0 00-.564-.555zm4.442 0a.555.555 0 00-.547.555.555.555 0 000 1.11.555.555 0 101.11 0 .555.555 0 000-1.11.555.555 0 00-.564-.555zM1.745.793a.555.555 0 00-.547.555.555.555 0 000 1.11.555.555 0 101.11 0 .555.555 0 000-1.11.555.555 0 00-.564-.555zm9.994 0a.555.555 0 00-.547.555.555.555 0 000 1.11.555.555 0 101.11 0 .555.555 0 000-1.11.555.555 0 00-.564-.555zm9.994 0a.555.555 0 00-.547.555.555.555 0 000 1.11.555.555 0 101.11 0 .555.555 0 000-1.11.555.555 0 00-.563-.555zM-3.243 1.904a1.682 1.682 0 011.666 1.729v12.708H-3.57a1.327 1.327 0 01-1.339-1.348V3.632a1.682 1.682 0 011.666-1.728zm29.982 0a1.682 1.682 0 011.666 1.729v11.36a1.327 1.327 0 01-1.338 1.348h-1.994V3.632a1.682 1.682 0 011.666-1.728zM3.966 4.127a.555.555 0 00-.547.553.555.555 0 000 1.11.555.555 0 101.11 0 .555.555 0 000-1.11.555.555 0 00-.564-.553zm5.552 0a.555.555 0 00-.547.553.555.555 0 000 1.11.555.555 0 101.11 0 .555.555 0 000-1.11.555.555 0 00-.564-.553zm4.442 0a.555.555 0 00-.547.553.555.555 0 000 1.11.555.555 0 101.11 0 .555.555 0 000-1.11.555.555 0 00-.564-.553zm5.552 0a.555.555 0 00-.547.553.555.555 0 000 1.11.555.555 0 101.11 0 .555.555 0 000-1.11.555.555 0 00-.564-.553zM-.467 8.566h24.43V10.8H-.467zm0 3.344h24.43v4.431H-.467zm-2.221 5.54h1.11v1.11h-1.11zm27.761 0h1.108v1.11h-1.11z"/></g><g data-name="Mask Group 5" transform="translate(11.297 27.221)" clip-path="url(#a)"><path data-name="sofa (2)" d="M-.467-4.759a3.336 3.336 0 00-3.331 3.331V.849a2.835 2.835 0 00-2.221 2.783v11.36a2.453 2.453 0 002.221 2.433v1.69a.555.555 0 00.555.555h2.224a.555.555 0 00.555-.555V17.45h24.43v1.666a.555.555 0 00.555.555h2.221a.555.555 0 00.555-.555v-1.69a2.453 2.453 0 002.221-2.433V3.632A2.835 2.835 0 0027.297.849v-2.277a3.336 3.336 0 00-3.334-3.331h-4.442a3.328 3.328 0 00-2.776 1.5 3.328 3.328 0 00-2.776-1.5H9.527a3.328 3.328 0 00-2.776 1.5 3.328 3.328 0 00-2.776-1.5zm0 1.11h4.442a2.2 2.2 0 012.221 2.221v8.884H-.486l-.017.525.037-.013V6.341a.555.555 0 00.555-.555.555.555 0 000-1.11.555.555 0 00-.555-.553v-.495A2.835 2.835 0 00-2.687.845v-2.273a2.2 2.2 0 012.22-2.221zm9.994 0h4.442a2.2 2.2 0 012.221 2.221v8.884H7.306v-8.884a2.2 2.2 0 012.221-2.221zm9.994 0h4.442a2.2 2.2 0 012.218 2.221V.849a2.835 2.835 0 00-2.221 2.783v.494h-.009a.555.555 0 00-.547.553.555.555 0 000 1.11.555.555 0 00.555.555v1.11H17.3v-8.882a2.2 2.2 0 012.221-2.221zm-20 1.11a.555.555 0 00-.54.556.555.555 0 000 1.11.555.555 0 101.11 0 .555.555 0 000-1.11.555.555 0 00-.566-.555zm4.442 0a.555.555 0 00-.547.555.555.555 0 000 1.11.555.555 0 101.11 0 .555.555 0 000-1.11.555.555 0 00-.564-.555zm5.552 0a.555.555 0 00-.547.555.555.555 0 000 1.11.555.555 0 101.11 0 .555.555 0 000-1.11.555.555 0 00-.564-.555zm4.442 0a.555.555 0 00-.547.555.555.555 0 000 1.11.555.555 0 101.11 0 .555.555 0 000-1.11.555.555 0 00-.564-.555zm5.552 0a.555.555 0 00-.547.555.555.555 0 000 1.11.555.555 0 101.11 0 .555.555 0 000-1.11.555.555 0 00-.564-.555zm4.442 0a.555.555 0 00-.547.555.555.555 0 000 1.11.555.555 0 101.11 0 .555.555 0 000-1.11.555.555 0 00-.564-.555zM1.745.793a.555.555 0 00-.547.555.555.555 0 000 1.11.555.555 0 101.11 0 .555.555 0 000-1.11.555.555 0 00-.564-.555zm9.994 0a.555.555 0 00-.547.555.555.555 0 000 1.11.555.555 0 101.11 0 .555.555 0 000-1.11.555.555 0 00-.564-.555zm9.994 0a.555.555 0 00-.547.555.555.555 0 000 1.11.555.555 0 101.11 0 .555.555 0 000-1.11.555.555 0 00-.563-.555zM-3.243 1.904a1.682 1.682 0 011.666 1.729v12.708H-3.57a1.327 1.327 0 01-1.339-1.348V3.632a1.682 1.682 0 011.666-1.728zm29.982 0a1.682 1.682 0 011.666 1.729v11.36a1.327 1.327 0 01-1.338 1.348h-1.994V3.632a1.682 1.682 0 011.666-1.728zM3.966 4.127a.555.555 0 00-.547.553.555.555 0 000 1.11.555.555 0 101.11 0 .555.555 0 000-1.11.555.555 0 00-.564-.553zm5.552 0a.555.555 0 00-.547.553.555.555 0 000 1.11.555.555 0 101.11 0 .555.555 0 000-1.11.555.555 0 00-.564-.553zm4.442 0a.555.555 0 00-.547.553.555.555 0 000 1.11.555.555 0 101.11 0 .555.555 0 000-1.11.555.555 0 00-.564-.553zm5.552 0a.555.555 0 00-.547.553.555.555 0 000 1.11.555.555 0 101.11 0 .555.555 0 000-1.11.555.555 0 00-.564-.553zM-.467 8.566h24.43V10.8H-.467zm0 3.344h24.43v4.431H-.467zm-2.221 5.54h1.11v1.11h-1.11zm27.761 0h1.108v1.11h-1.11z"/></g><g data-name="Mask Group 6" transform="translate(14.831 27.221)" clip-path="url(#a)"><path data-name="sofa (2)" d="M-.467-4.759a3.336 3.336 0 00-3.331 3.331V.849a2.835 2.835 0 00-2.221 2.783v11.36a2.453 2.453 0 002.221 2.433v1.69a.555.555 0 00.555.555h2.224a.555.555 0 00.555-.555V17.45h24.43v1.666a.555.555 0 00.555.555h2.221a.555.555 0 00.555-.555v-1.69a2.453 2.453 0 002.221-2.433V3.632A2.835 2.835 0 0027.297.849v-2.277a3.336 3.336 0 00-3.334-3.331h-4.442a3.328 3.328 0 00-2.776 1.5 3.328 3.328 0 00-2.776-1.5H9.527a3.328 3.328 0 00-2.776 1.5 3.328 3.328 0 00-2.776-1.5zm0 1.11h4.442a2.2 2.2 0 012.221 2.221v8.884H-.486l-.017.525.037-.013V6.341a.555.555 0 00.555-.555.555.555 0 000-1.11.555.555 0 00-.555-.553v-.495A2.835 2.835 0 00-2.687.845v-2.273a2.2 2.2 0 012.22-2.221zm9.994 0h4.442a2.2 2.2 0 012.221 2.221v8.884H7.306v-8.884a2.2 2.2 0 012.221-2.221zm9.994 0h4.442a2.2 2.2 0 012.218 2.221V.849a2.835 2.835 0 00-2.221 2.783v.494h-.009a.555.555 0 00-.547.553.555.555 0 000 1.11.555.555 0 00.555.555v1.11H17.3v-8.882a2.2 2.2 0 012.221-2.221zm-20 1.11a.555.555 0 00-.54.556.555.555 0 000 1.11.555.555 0 101.11 0 .555.555 0 000-1.11.555.555 0 00-.566-.555zm4.442 0a.555.555 0 00-.547.555.555.555 0 000 1.11.555.555 0 101.11 0 .555.555 0 000-1.11.555.555 0 00-.564-.555zm5.552 0a.555.555 0 00-.547.555.555.555 0 000 1.11.555.555 0 101.11 0 .555.555 0 000-1.11.555.555 0 00-.564-.555zm4.442 0a.555.555 0 00-.547.555.555.555 0 000 1.11.555.555 0 101.11 0 .555.555 0 000-1.11.555.555 0 00-.564-.555zm5.552 0a.555.555 0 00-.547.555.555.555 0 000 1.11.555.555 0 101.11 0 .555.555 0 000-1.11.555.555 0 00-.564-.555zm4.442 0a.555.555 0 00-.547.555.555.555 0 000 1.11.555.555 0 101.11 0 .555.555 0 000-1.11.555.555 0 00-.564-.555zM1.745.793a.555.555 0 00-.547.555.555.555 0 000 1.11.555.555 0 101.11 0 .555.555 0 000-1.11.555.555 0 00-.564-.555zm9.994 0a.555.555 0 00-.547.555.555.555 0 000 1.11.555.555 0 101.11 0 .555.555 0 000-1.11.555.555 0 00-.564-.555zm9.994 0a.555.555 0 00-.547.555.555.555 0 000 1.11.555.555 0 101.11 0 .555.555 0 000-1.11.555.555 0 00-.563-.555zM-3.243 1.904a1.682 1.682 0 011.666 1.729v12.708H-3.57a1.327 1.327 0 01-1.339-1.348V3.632a1.682 1.682 0 011.666-1.728zm29.982 0a1.682 1.682 0 011.666 1.729v11.36a1.327 1.327 0 01-1.338 1.348h-1.994V3.632a1.682 1.682 0 011.666-1.728zM3.966 4.127a.555.555 0 00-.547.553.555.555 0 000 1.11.555.555 0 101.11 0 .555.555 0 000-1.11.555.555 0 00-.564-.553zm5.552 0a.555.555 0 00-.547.553.555.555 0 000 1.11.555.555 0 101.11 0 .555.555 0 000-1.11.555.555 0 00-.564-.553zm4.442 0a.555.555 0 00-.547.553.555.555 0 000 1.11.555.555 0 101.11 0 .555.555 0 000-1.11.555.555 0 00-.564-.553zm5.552 0a.555.555 0 00-.547.553.555.555 0 000 1.11.555.555 0 101.11 0 .555.555 0 000-1.11.555.555 0 00-.564-.553zM-.467 8.566h24.43V10.8H-.467zm0 3.344h24.43v4.431H-.467zm-2.221 5.54h1.11v1.11h-1.11zm27.761 0h1.108v1.11h-1.11z"/></g><g data-name="Mask Group 7" transform="translate(19.25 27.221)" clip-path="url(#a)"><path data-name="sofa (2)" d="M-.467-4.759a3.336 3.336 0 00-3.331 3.331V.849a2.835 2.835 0 00-2.221 2.783v11.36a2.453 2.453 0 002.221 2.433v1.69a.555.555 0 00.555.555h2.224a.555.555 0 00.555-.555V17.45h24.43v1.666a.555.555 0 00.555.555h2.221a.555.555 0 00.555-.555v-1.69a2.453 2.453 0 002.221-2.433V3.632A2.835 2.835 0 0027.297.849v-2.277a3.336 3.336 0 00-3.334-3.331h-4.442a3.328 3.328 0 00-2.776 1.5 3.328 3.328 0 00-2.776-1.5H9.527a3.328 3.328 0 00-2.776 1.5 3.328 3.328 0 00-2.776-1.5zm0 1.11h4.442a2.2 2.2 0 012.221 2.221v8.884H-.486l-.017.525.037-.013V6.341a.555.555 0 00.555-.555.555.555 0 000-1.11.555.555 0 00-.555-.553v-.495A2.835 2.835 0 00-2.687.845v-2.273a2.2 2.2 0 012.22-2.221zm9.994 0h4.442a2.2 2.2 0 012.221 2.221v8.884H7.306v-8.884a2.2 2.2 0 012.221-2.221zm9.994 0h4.442a2.2 2.2 0 012.218 2.221V.849a2.835 2.835 0 00-2.221 2.783v.494h-.009a.555.555 0 00-.547.553.555.555 0 000 1.11.555.555 0 00.555.555v1.11H17.3v-8.882a2.2 2.2 0 012.221-2.221zm-20 1.11a.555.555 0 00-.54.556.555.555 0 000 1.11.555.555 0 101.11 0 .555.555 0 000-1.11.555.555 0 00-.566-.555zm4.442 0a.555.555 0 00-.547.555.555.555 0 000 1.11.555.555 0 101.11 0 .555.555 0 000-1.11.555.555 0 00-.564-.555zm5.552 0a.555.555 0 00-.547.555.555.555 0 000 1.11.555.555 0 101.11 0 .555.555 0 000-1.11.555.555 0 00-.564-.555zm4.442 0a.555.555 0 00-.547.555.555.555 0 000 1.11.555.555 0 101.11 0 .555.555 0 000-1.11.555.555 0 00-.564-.555zm5.552 0a.555.555 0 00-.547.555.555.555 0 000 1.11.555.555 0 101.11 0 .555.555 0 000-1.11.555.555 0 00-.564-.555zm4.442 0a.555.555 0 00-.547.555.555.555 0 000 1.11.555.555 0 101.11 0 .555.555 0 000-1.11.555.555 0 00-.564-.555zM1.745.793a.555.555 0 00-.547.555.555.555 0 000 1.11.555.555 0 101.11 0 .555.555 0 000-1.11.555.555 0 00-.564-.555zm9.994 0a.555.555 0 00-.547.555.555.555 0 000 1.11.555.555 0 101.11 0 .555.555 0 000-1.11.555.555 0 00-.564-.555zm9.994 0a.555.555 0 00-.547.555.555.555 0 000 1.11.555.555 0 101.11 0 .555.555 0 000-1.11.555.555 0 00-.563-.555zM-3.243 1.904a1.682 1.682 0 011.666 1.729v12.708H-3.57a1.327 1.327 0 01-1.339-1.348V3.632a1.682 1.682 0 011.666-1.728zm29.982 0a1.682 1.682 0 011.666 1.729v11.36a1.327 1.327 0 01-1.338 1.348h-1.994V3.632a1.682 1.682 0 011.666-1.728zM3.966 4.127a.555.555 0 00-.547.553.555.555 0 000 1.11.555.555 0 101.11 0 .555.555 0 000-1.11.555.555 0 00-.564-.553zm5.552 0a.555.555 0 00-.547.553.555.555 0 000 1.11.555.555 0 101.11 0 .555.555 0 000-1.11.555.555 0 00-.564-.553zm4.442 0a.555.555 0 00-.547.553.555.555 0 000 1.11.555.555 0 101.11 0 .555.555 0 000-1.11.555.555 0 00-.564-.553zm5.552 0a.555.555 0 00-.547.553.555.555 0 000 1.11.555.555 0 101.11 0 .555.555 0 000-1.11.555.555 0 00-.564-.553zM-.467 8.566h24.43V10.8H-.467zm0 3.344h24.43v4.431H-.467zm-2.221 5.54h1.11v1.11h-1.11zm27.761 0h1.108v1.11h-1.11z"/></g><g data-name="Mask Group 8" transform="translate(22.784 27.221)" clip-path="url(#a)"><path data-name="sofa (2)" d="M-.467-4.759a3.336 3.336 0 00-3.331 3.331V.849a2.835 2.835 0 00-2.221 2.783v11.36a2.453 2.453 0 002.221 2.433v1.69a.555.555 0 00.555.555h2.224a.555.555 0 00.555-.555V17.45h24.43v1.666a.555.555 0 00.555.555h2.221a.555.555 0 00.555-.555v-1.69a2.453 2.453 0 002.221-2.433V3.632A2.835 2.835 0 0027.297.849v-2.277a3.336 3.336 0 00-3.334-3.331h-4.442a3.328 3.328 0 00-2.776 1.5 3.328 3.328 0 00-2.776-1.5H9.527a3.328 3.328 0 00-2.776 1.5 3.328 3.328 0 00-2.776-1.5zm0 1.11h4.442a2.2 2.2 0 012.221 2.221v8.884H-.486l-.017.525.037-.013V6.341a.555.555 0 00.555-.555.555.555 0 000-1.11.555.555 0 00-.555-.553v-.495A2.835 2.835 0 00-2.687.845v-2.273a2.2 2.2 0 012.22-2.221zm9.994 0h4.442a2.2 2.2 0 012.221 2.221v8.884H7.306v-8.884a2.2 2.2 0 012.221-2.221zm9.994 0h4.442a2.2 2.2 0 012.218 2.221V.849a2.835 2.835 0 00-2.221 2.783v.494h-.009a.555.555 0 00-.547.553.555.555 0 000 1.11.555.555 0 00.555.555v1.11H17.3v-8.882a2.2 2.2 0 012.221-2.221zm-20 1.11a.555.555 0 00-.54.556.555.555 0 000 1.11.555.555 0 101.11 0 .555.555 0 000-1.11.555.555 0 00-.566-.555zm4.442 0a.555.555 0 00-.547.555.555.555 0 000 1.11.555.555 0 101.11 0 .555.555 0 000-1.11.555.555 0 00-.564-.555zm5.552 0a.555.555 0 00-.547.555.555.555 0 000 1.11.555.555 0 101.11 0 .555.555 0 000-1.11.555.555 0 00-.564-.555zm4.442 0a.555.555 0 00-.547.555.555.555 0 000 1.11.555.555 0 101.11 0 .555.555 0 000-1.11.555.555 0 00-.564-.555zm5.552 0a.555.555 0 00-.547.555.555.555 0 000 1.11.555.555 0 101.11 0 .555.555 0 000-1.11.555.555 0 00-.564-.555zm4.442 0a.555.555 0 00-.547.555.555.555 0 000 1.11.555.555 0 101.11 0 .555.555 0 000-1.11.555.555 0 00-.564-.555zM1.745.793a.555.555 0 00-.547.555.555.555 0 000 1.11.555.555 0 101.11 0 .555.555 0 000-1.11.555.555 0 00-.564-.555zm9.994 0a.555.555 0 00-.547.555.555.555 0 000 1.11.555.555 0 101.11 0 .555.555 0 000-1.11.555.555 0 00-.564-.555zm9.994 0a.555.555 0 00-.547.555.555.555 0 000 1.11.555.555 0 101.11 0 .555.555 0 000-1.11.555.555 0 00-.563-.555zM-3.243 1.904a1.682 1.682 0 011.666 1.729v12.708H-3.57a1.327 1.327 0 01-1.339-1.348V3.632a1.682 1.682 0 011.666-1.728zm29.982 0a1.682 1.682 0 011.666 1.729v11.36a1.327 1.327 0 01-1.338 1.348h-1.994V3.632a1.682 1.682 0 011.666-1.728zM3.966 4.127a.555.555 0 00-.547.553.555.555 0 000 1.11.555.555 0 101.11 0 .555.555 0 000-1.11.555.555 0 00-.564-.553zm5.552 0a.555.555 0 00-.547.553.555.555 0 000 1.11.555.555 0 101.11 0 .555.555 0 000-1.11.555.555 0 00-.564-.553zm4.442 0a.555.555 0 00-.547.553.555.555 0 000 1.11.555.555 0 101.11 0 .555.555 0 000-1.11.555.555 0 00-.564-.553zm5.552 0a.555.555 0 00-.547.553.555.555 0 000 1.11.555.555 0 101.11 0 .555.555 0 000-1.11.555.555 0 00-.564-.553zM-.467 8.566h24.43V10.8H-.467zm0 3.344h24.43v4.431H-.467zm-2.221 5.54h1.11v1.11h-1.11zm27.761 0h1.108v1.11h-1.11z"/></g><g data-name="Mask Group 9" transform="translate(26.319 27.221)" clip-path="url(#a)"><path data-name="sofa (2)" d="M-.467-4.759a3.336 3.336 0 00-3.331 3.331V.849a2.835 2.835 0 00-2.221 2.783v11.36a2.453 2.453 0 002.221 2.433v1.69a.555.555 0 00.555.555h2.224a.555.555 0 00.555-.555V17.45h24.43v1.666a.555.555 0 00.555.555h2.221a.555.555 0 00.555-.555v-1.69a2.453 2.453 0 002.221-2.433V3.632A2.835 2.835 0 0027.297.849v-2.277a3.336 3.336 0 00-3.334-3.331h-4.442a3.328 3.328 0 00-2.776 1.5 3.328 3.328 0 00-2.776-1.5H9.527a3.328 3.328 0 00-2.776 1.5 3.328 3.328 0 00-2.776-1.5zm0 1.11h4.442a2.2 2.2 0 012.221 2.221v8.884H-.486l-.017.525.037-.013V6.341a.555.555 0 00.555-.555.555.555 0 000-1.11.555.555 0 00-.555-.553v-.495A2.835 2.835 0 00-2.687.845v-2.273a2.2 2.2 0 012.22-2.221zm9.994 0h4.442a2.2 2.2 0 012.221 2.221v8.884H7.306v-8.884a2.2 2.2 0 012.221-2.221zm9.994 0h4.442a2.2 2.2 0 012.218 2.221V.849a2.835 2.835 0 00-2.221 2.783v.494h-.009a.555.555 0 00-.547.553.555.555 0 000 1.11.555.555 0 00.555.555v1.11H17.3v-8.882a2.2 2.2 0 012.221-2.221zm-20 1.11a.555.555 0 00-.54.556.555.555 0 000 1.11.555.555 0 101.11 0 .555.555 0 000-1.11.555.555 0 00-.566-.555zm4.442 0a.555.555 0 00-.547.555.555.555 0 000 1.11.555.555 0 101.11 0 .555.555 0 000-1.11.555.555 0 00-.564-.555zm5.552 0a.555.555 0 00-.547.555.555.555 0 000 1.11.555.555 0 101.11 0 .555.555 0 000-1.11.555.555 0 00-.564-.555zm4.442 0a.555.555 0 00-.547.555.555.555 0 000 1.11.555.555 0 101.11 0 .555.555 0 000-1.11.555.555 0 00-.564-.555zm5.552 0a.555.555 0 00-.547.555.555.555 0 000 1.11.555.555 0 101.11 0 .555.555 0 000-1.11.555.555 0 00-.564-.555zm4.442 0a.555.555 0 00-.547.555.555.555 0 000 1.11.555.555 0 101.11 0 .555.555 0 000-1.11.555.555 0 00-.564-.555zM1.745.793a.555.555 0 00-.547.555.555.555 0 000 1.11.555.555 0 101.11 0 .555.555 0 000-1.11.555.555 0 00-.564-.555zm9.994 0a.555.555 0 00-.547.555.555.555 0 000 1.11.555.555 0 101.11 0 .555.555 0 000-1.11.555.555 0 00-.564-.555zm9.994 0a.555.555 0 00-.547.555.555.555 0 000 1.11.555.555 0 101.11 0 .555.555 0 000-1.11.555.555 0 00-.563-.555zM-3.243 1.904a1.682 1.682 0 011.666 1.729v12.708H-3.57a1.327 1.327 0 01-1.339-1.348V3.632a1.682 1.682 0 011.666-1.728zm29.982 0a1.682 1.682 0 011.666 1.729v11.36a1.327 1.327 0 01-1.338 1.348h-1.994V3.632a1.682 1.682 0 011.666-1.728zM3.966 4.127a.555.555 0 00-.547.553.555.555 0 000 1.11.555.555 0 101.11 0 .555.555 0 000-1.11.555.555 0 00-.564-.553zm5.552 0a.555.555 0 00-.547.553.555.555 0 000 1.11.555.555 0 101.11 0 .555.555 0 000-1.11.555.555 0 00-.564-.553zm4.442 0a.555.555 0 00-.547.553.555.555 0 000 1.11.555.555 0 101.11 0 .555.555 0 000-1.11.555.555 0 00-.564-.553zm5.552 0a.555.555 0 00-.547.553.555.555 0 000 1.11.555.555 0 101.11 0 .555.555 0 000-1.11.555.555 0 00-.564-.553zM-.467 8.566h24.43V10.8H-.467zm0 3.344h24.43v4.431H-.467zm-2.221 5.54h1.11v1.11h-1.11zm27.761 0h1.108v1.11h-1.11z"/></g></g></g></svg>