<svg xmlns="http://www.w3.org/2000/svg" width="31.175" height="35.988"><defs><clipPath id="a"><circle data-name="Ellipse 5" cx="1.767" cy="1.767" fill="#fff" stroke="#707070" r="1.767"/></clipPath></defs><g data-name="Group 67011"><path data-name="Subtraction 1" d="M18.041 15.531h-4.908a.684.684 0 110-1.368h1.638a.875.875 0 00-.068.341.884.884 0 101.7-.341h1.638a.684.684 0 110 1.368z" stroke="#000" stroke-width=".2"/><path data-name="Subtraction 2" d="M18.041 3.247h-4.908a.685.685 0 110-1.37h1.608a.883.883 0 101.692 0h1.608a.685.685 0 010 1.37z" stroke="#000" stroke-width=".2"/><g data-name="Group 67010"><g data-name="Group 67009"><g data-name="Group 67008"><g data-name="Layer 2"><path data-name="Path 46" d="M30.519.1H.655A.555.555 0 00.1.655v9.952h0v9.953h0v14.773a.555.555 0 101.111 0v-2.281h28.753v2.273a.555.555 0 101.111 0V.655A.555.555 0 0030.519.1zM1.211 20.008v-8.841h28.753v8.841zm28.753-18.8v8.848H1.211V1.211zM1.211 31.356V21.119h13.821v10.822H1.211zm14.932.585V21.119h13.821v10.822z" stroke="#000" stroke-width=".2"/></g><g data-name="Mask Group 1" transform="translate(20.889 24.224)" clip-path="url(#a)"><path data-name="sofa (2)" d="M-.467-4.759a3.336 3.336 0 00-3.331 3.331V.849a2.835 2.835 0 00-2.221 2.783v11.36a2.453 2.453 0 002.221 2.433v1.69a.555.555 0 00.555.555h2.224a.555.555 0 00.555-.555V17.45h24.43v1.666a.555.555 0 00.555.555h2.221a.555.555 0 00.555-.555v-1.69a2.453 2.453 0 002.221-2.433V3.632A2.835 2.835 0 0027.297.849v-2.277a3.336 3.336 0 00-3.334-3.331h-4.442a3.328 3.328 0 00-2.776 1.5 3.328 3.328 0 00-2.776-1.5H9.527a3.328 3.328 0 00-2.776 1.5 3.328 3.328 0 00-2.776-1.5zm0 1.11h4.442a2.2 2.2 0 012.221 2.221v8.884H-.486l-.017.525.037-.013V6.341a.555.555 0 00.555-.555.555.555 0 000-1.11.555.555 0 00-.555-.553v-.495A2.835 2.835 0 00-2.687.845v-2.273a2.2 2.2 0 012.22-2.221zm9.994 0h4.442a2.2 2.2 0 012.221 2.221v8.884H7.306v-8.884a2.2 2.2 0 012.221-2.221zm9.994 0h4.442a2.2 2.2 0 012.218 2.221V.849a2.835 2.835 0 00-2.221 2.783v.494h-.009a.555.555 0 00-.547.553.555.555 0 000 1.11.555.555 0 00.555.555v1.11H17.3v-8.882a2.2 2.2 0 012.221-2.221zm-20 1.11a.555.555 0 00-.54.556.555.555 0 000 1.11.555.555 0 101.11 0 .555.555 0 000-1.11.555.555 0 00-.566-.555zm4.442 0a.555.555 0 00-.547.555.555.555 0 000 1.11.555.555 0 101.11 0 .555.555 0 000-1.11.555.555 0 00-.564-.555zm5.552 0a.555.555 0 00-.547.555.555.555 0 000 1.11.555.555 0 101.11 0 .555.555 0 000-1.11.555.555 0 00-.564-.555zm4.442 0a.555.555 0 00-.547.555.555.555 0 000 1.11.555.555 0 101.11 0 .555.555 0 000-1.11.555.555 0 00-.564-.555zm5.552 0a.555.555 0 00-.547.555.555.555 0 000 1.11.555.555 0 101.11 0 .555.555 0 000-1.11.555.555 0 00-.564-.555zm4.442 0a.555.555 0 00-.547.555.555.555 0 000 1.11.555.555 0 101.11 0 .555.555 0 000-1.11.555.555 0 00-.564-.555zM1.745.793a.555.555 0 00-.547.555.555.555 0 000 1.11.555.555 0 101.11 0 .555.555 0 000-1.11.555.555 0 00-.564-.555zm9.994 0a.555.555 0 00-.547.555.555.555 0 000 1.11.555.555 0 101.11 0 .555.555 0 000-1.11.555.555 0 00-.564-.555zm9.994 0a.555.555 0 00-.547.555.555.555 0 000 1.11.555.555 0 101.11 0 .555.555 0 000-1.11.555.555 0 00-.563-.555zM-3.243 1.904a1.682 1.682 0 011.666 1.729v12.708H-3.57a1.327 1.327 0 01-1.339-1.348V3.632a1.682 1.682 0 011.666-1.728zm29.982 0a1.682 1.682 0 011.666 1.729v11.36a1.327 1.327 0 01-1.338 1.348h-1.994V3.632a1.682 1.682 0 011.666-1.728zM3.966 4.127a.555.555 0 00-.547.553.555.555 0 000 1.11.555.555 0 101.11 0 .555.555 0 000-1.11.555.555 0 00-.564-.553zm5.552 0a.555.555 0 00-.547.553.555.555 0 000 1.11.555.555 0 101.11 0 .555.555 0 000-1.11.555.555 0 00-.564-.553zm4.442 0a.555.555 0 00-.547.553.555.555 0 000 1.11.555.555 0 101.11 0 .555.555 0 000-1.11.555.555 0 00-.564-.553zm5.552 0a.555.555 0 00-.547.553.555.555 0 000 1.11.555.555 0 101.11 0 .555.555 0 000-1.11.555.555 0 00-.564-.553zM-.467 8.566h24.43V10.8H-.467zm0 3.344h24.43v4.431H-.467zm-2.221 5.54h1.11v1.11h-1.11zm27.761 0h1.108v1.11h-1.11z"/></g><g data-name="Mask Group 2" transform="translate(5.867 24.224)" clip-path="url(#a)"><path data-name="sofa (2)" d="M-.506-4.759a3.336 3.336 0 00-3.331 3.331V.849a2.835 2.835 0 00-2.221 2.783v11.36a2.453 2.453 0 002.221 2.433v1.69a.555.555 0 00.555.555h2.224a.555.555 0 00.555-.555V17.45h24.43v1.666a.555.555 0 00.555.555h2.221a.555.555 0 00.555-.555v-1.69a2.453 2.453 0 002.221-2.433V3.632A2.835 2.835 0 0027.258.849v-2.277a3.336 3.336 0 00-3.334-3.331h-4.442a3.328 3.328 0 00-2.776 1.5 3.328 3.328 0 00-2.776-1.5H9.488a3.328 3.328 0 00-2.776 1.5 3.328 3.328 0 00-2.776-1.5zm0 1.11h4.442a2.2 2.2 0 012.221 2.221v8.884H-.525l-.017.525.037-.013V6.341a.555.555 0 00.555-.555.555.555 0 000-1.11.555.555 0 00-.555-.553v-.495A2.835 2.835 0 00-2.726.845v-2.273a2.2 2.2 0 012.22-2.221zm9.994 0h4.442a2.2 2.2 0 012.221 2.221v8.884H7.267v-8.884a2.2 2.2 0 012.221-2.221zm9.994 0h4.442a2.2 2.2 0 012.218 2.221V.849a2.835 2.835 0 00-2.221 2.783v.494h-.009a.555.555 0 00-.547.553.555.555 0 000 1.11.555.555 0 00.555.555v1.11h-6.659v-8.882a2.2 2.2 0 012.221-2.221zm-20 1.11a.555.555 0 00-.54.556.555.555 0 000 1.11.555.555 0 101.11 0 .555.555 0 000-1.11.555.555 0 00-.566-.555zm4.442 0a.555.555 0 00-.547.555.555.555 0 000 1.11.555.555 0 101.11 0 .555.555 0 000-1.11.555.555 0 00-.564-.555zm5.552 0a.555.555 0 00-.547.555.555.555 0 000 1.11.555.555 0 101.11 0 .555.555 0 000-1.11.555.555 0 00-.564-.555zm4.442 0a.555.555 0 00-.547.555.555.555 0 000 1.11.555.555 0 101.11 0 .555.555 0 000-1.11.555.555 0 00-.564-.555zm5.552 0a.555.555 0 00-.547.555.555.555 0 000 1.11.555.555 0 101.11 0 .555.555 0 000-1.11.555.555 0 00-.564-.555zm4.442 0a.555.555 0 00-.547.555.555.555 0 000 1.11.555.555 0 101.11 0 .555.555 0 000-1.11.555.555 0 00-.564-.555zM1.706.793a.555.555 0 00-.547.555.555.555 0 000 1.11.555.555 0 101.11 0 .555.555 0 000-1.11.555.555 0 00-.564-.555zm9.994 0a.555.555 0 00-.547.555.555.555 0 000 1.11.555.555 0 101.11 0 .555.555 0 000-1.11.555.555 0 00-.564-.555zm9.994 0a.555.555 0 00-.547.555.555.555 0 000 1.11.555.555 0 101.11 0 .555.555 0 000-1.11.555.555 0 00-.563-.555zM-3.282 1.904a1.682 1.682 0 011.666 1.729v12.708h-1.993a1.327 1.327 0 01-1.339-1.348V3.632a1.682 1.682 0 011.666-1.728zm29.982 0a1.682 1.682 0 011.666 1.729v11.36a1.327 1.327 0 01-1.338 1.348h-1.994V3.632A1.682 1.682 0 0126.7 1.904zM3.927 4.127a.555.555 0 00-.547.553.555.555 0 000 1.11.555.555 0 101.11 0 .555.555 0 000-1.11.555.555 0 00-.564-.553zm5.552 0a.555.555 0 00-.547.553.555.555 0 000 1.11.555.555 0 101.11 0 .555.555 0 000-1.11.555.555 0 00-.564-.553zm4.442 0a.555.555 0 00-.547.553.555.555 0 000 1.11.555.555 0 101.11 0 .555.555 0 000-1.11.555.555 0 00-.564-.553zm5.552 0a.555.555 0 00-.547.553.555.555 0 000 1.11.555.555 0 101.11 0 .555.555 0 000-1.11.555.555 0 00-.564-.553zM-.506 8.566h24.43V10.8H-.506zm0 3.344h24.43v4.431H-.506zm-2.221 5.54h1.11v1.11h-1.11zm27.761 0h1.108v1.11h-1.11z"/></g></g></g></g></g></svg>