<svg xmlns="http://www.w3.org/2000/svg" width="47.574" height="27.504"><defs><clipPath id="a"><circle data-name="Ellipse 8" cx="1.487" cy="1.487" r="1.487" fill="#fff" stroke="#707070"/></clipPath></defs><g data-name="Group 67027"><g data-name="Group 67026"><g data-name="Group 67021"><g data-name="14-Desk Cabinet" fill="#1a1a1a"><path data-name="Path 52" d="M46.831 0H.743a.743.743 0 100 1.487H2.23V26.76a.743.743 0 101.487 0v-2.973h40.14v2.973a.743.743 0 101.487 0V1.487h1.487a.743.743 0 000-1.487zM23.044 5.947H3.717v-4.46h19.327zM3.717 7.433h40.14V22.3H3.717zm40.141-1.487H24.53v-4.46h19.327z"/><rect data-name="Rectangle 908" width="13.255" height="1.767" rx=".884" transform="translate(5.23 2.706)"/><rect data-name="Rectangle 909" width=".884" height="1.767" rx=".442" transform="translate(20.252 2.706)"/><rect data-name="Rectangle 910" width="13.255" height="1.767" rx=".884" transform="translate(29.089 2.706)"/><rect data-name="Rectangle 911" width=".884" height="1.767" rx=".442" transform="translate(26.438 2.706)"/></g></g><g data-name="Group 67025"><g data-name="Mask Group 4" transform="translate(13.813 13.398)" clip-path="url(#a)"><path data-name="sofa (2)" d="M-.392-4.004a2.807 2.807 0 00-2.8 2.8V.714a2.385 2.385 0 00-1.871 2.341v9.557a2.063 2.063 0 001.868 2.047v1.421a.467.467 0 00.467.467h1.865a.467.467 0 00.467-.467v-1.4h20.554v1.4a.467.467 0 00.467.467h1.868a.467.467 0 00.467-.467v-1.422a2.063 2.063 0 001.868-2.047V3.055A2.385 2.385 0 0022.96.714v-1.918a2.807 2.807 0 00-2.8-2.8h-3.738a2.8 2.8 0 00-2.335 1.261 2.8 2.8 0 00-2.336-1.261H8.015A2.8 2.8 0 005.68-2.743a2.8 2.8 0 00-2.336-1.261zm0 .934h3.736a1.854 1.854 0 011.868 1.866v7.473H-.409l-.015.442.031-.011V5.337a.467.467 0 00.467-.467.467.467 0 000-.934.467.467 0 00-.467-.465v-.416A2.385 2.385 0 00-2.263.714v-1.918A1.854 1.854 0 01-.392-3.07zm8.407 0h3.736a1.854 1.854 0 011.868 1.866v7.473H6.146v-7.473A1.854 1.854 0 018.015-3.07zm8.407 0h3.736a1.854 1.854 0 011.869 1.866V.714a2.385 2.385 0 00-1.868 2.341v.416h-.007a.467.467 0 00-.46.465.467.467 0 000 .934.467.467 0 00.467.467v.934h-5.6v-7.475a1.854 1.854 0 011.863-1.866zM-.4-2.136a.467.467 0 00-.46.467.467.467 0 000 .934.467.467 0 10.934 0 .467.467 0 000-.934.467.467 0 00-.474-.467zm3.736 0a.467.467 0 00-.46.467.467.467 0 000 .934.467.467 0 10.934 0 .467.467 0 000-.934.467.467 0 00-.473-.467zm4.671 0a.467.467 0 00-.46.467.467.467 0 000 .934.467.467 0 10.934 0 .467.467 0 000-.934.467.467 0 00-.474-.467zm3.736 0a.467.467 0 00-.46.467.467.467 0 000 .934.467.467 0 10.934 0 .467.467 0 000-.934.467.467 0 00-.474-.467zm4.671 0a.467.467 0 00-.46.467.467.467 0 000 .934.467.467 0 10.934 0 .467.467 0 000-.934.467.467 0 00-.474-.467zm3.736 0a.467.467 0 00-.46.467.467.467 0 000 .934.467.467 0 10.934 0 .467.467 0 000-.934.467.467 0 00-.474-.467zM1.469.667a.467.467 0 00-.46.467.467.467 0 000 .934.467.467 0 10.934 0 .467.467 0 000-.934.467.467 0 00-.474-.467zm8.407 0a.467.467 0 00-.46.467.467.467 0 000 .934.467.467 0 10.934 0 .467.467 0 000-.934.467.467 0 00-.474-.467zm8.407 0a.467.467 0 00-.46.467.467.467 0 000 .934.467.467 0 10.934 0 .467.467 0 000-.934.467.467 0 00-.474-.467zm-21.011.929a1.415 1.415 0 011.4 1.454v10.69h-1.675a1.117 1.117 0 01-1.126-1.129V3.055a1.415 1.415 0 011.401-1.459zm25.221 0a1.415 1.415 0 011.4 1.454v9.557a1.117 1.117 0 01-1.126 1.133h-1.675V3.055a1.415 1.415 0 011.402-1.459zM3.337 3.471a.467.467 0 00-.46.465.467.467 0 000 .934.467.467 0 10.934 0 .467.467 0 000-.934.467.467 0 00-.474-.465zm4.671 0a.467.467 0 00-.46.465.467.467 0 000 .934.467.467 0 10.934 0 .467.467 0 000-.934.467.467 0 00-.474-.465zm3.736 0a.467.467 0 00-.46.465.467.467 0 000 .934.467.467 0 10.934 0 .467.467 0 000-.934.467.467 0 00-.474-.465zm4.671 0a.467.467 0 00-.46.465.467.467 0 000 .934.467.467 0 10.934 0 .467.467 0 000-.934.467.467 0 00-.474-.465zM-.392 7.205h20.55v1.879H-.392zm0 2.813h20.55v3.726H-.392zm-1.871 4.66h.934v.934h-.934zm23.353 0h.934v.934h-.934z"/></g><g data-name="Mask Group 5" transform="translate(16.786 13.398)" clip-path="url(#a)"><path data-name="sofa (2)" d="M-.392-4.004a2.807 2.807 0 00-2.8 2.8V.714a2.385 2.385 0 00-1.871 2.341v9.557a2.063 2.063 0 001.868 2.047v1.421a.467.467 0 00.467.467h1.865a.467.467 0 00.467-.467v-1.4h20.554v1.4a.467.467 0 00.467.467h1.868a.467.467 0 00.467-.467v-1.422a2.063 2.063 0 001.868-2.047V3.055A2.385 2.385 0 0022.96.714v-1.918a2.807 2.807 0 00-2.8-2.8h-3.738a2.8 2.8 0 00-2.335 1.261 2.8 2.8 0 00-2.336-1.261H8.015A2.8 2.8 0 005.68-2.743a2.8 2.8 0 00-2.336-1.261zm0 .934h3.736a1.854 1.854 0 011.868 1.866v7.473H-.409l-.015.442.031-.011V5.337a.467.467 0 00.467-.467.467.467 0 000-.934.467.467 0 00-.467-.465v-.416A2.385 2.385 0 00-2.263.714v-1.918A1.854 1.854 0 01-.392-3.07zm8.407 0h3.736a1.854 1.854 0 011.868 1.866v7.473H6.146v-7.473A1.854 1.854 0 018.015-3.07zm8.407 0h3.736a1.854 1.854 0 011.869 1.866V.714a2.385 2.385 0 00-1.868 2.341v.416h-.007a.467.467 0 00-.46.465.467.467 0 000 .934.467.467 0 00.467.467v.934h-5.6v-7.475a1.854 1.854 0 011.863-1.866zM-.4-2.136a.467.467 0 00-.46.467.467.467 0 000 .934.467.467 0 10.934 0 .467.467 0 000-.934.467.467 0 00-.474-.467zm3.736 0a.467.467 0 00-.46.467.467.467 0 000 .934.467.467 0 10.934 0 .467.467 0 000-.934.467.467 0 00-.473-.467zm4.671 0a.467.467 0 00-.46.467.467.467 0 000 .934.467.467 0 10.934 0 .467.467 0 000-.934.467.467 0 00-.474-.467zm3.736 0a.467.467 0 00-.46.467.467.467 0 000 .934.467.467 0 10.934 0 .467.467 0 000-.934.467.467 0 00-.474-.467zm4.671 0a.467.467 0 00-.46.467.467.467 0 000 .934.467.467 0 10.934 0 .467.467 0 000-.934.467.467 0 00-.474-.467zm3.736 0a.467.467 0 00-.46.467.467.467 0 000 .934.467.467 0 10.934 0 .467.467 0 000-.934.467.467 0 00-.474-.467zM1.469.667a.467.467 0 00-.46.467.467.467 0 000 .934.467.467 0 10.934 0 .467.467 0 000-.934.467.467 0 00-.474-.467zm8.407 0a.467.467 0 00-.46.467.467.467 0 000 .934.467.467 0 10.934 0 .467.467 0 000-.934.467.467 0 00-.474-.467zm8.407 0a.467.467 0 00-.46.467.467.467 0 000 .934.467.467 0 10.934 0 .467.467 0 000-.934.467.467 0 00-.474-.467zm-21.011.929a1.415 1.415 0 011.4 1.454v10.69h-1.675a1.117 1.117 0 01-1.126-1.129V3.055a1.415 1.415 0 011.401-1.459zm25.221 0a1.415 1.415 0 011.4 1.454v9.557a1.117 1.117 0 01-1.126 1.133h-1.675V3.055a1.415 1.415 0 011.402-1.459zM3.337 3.471a.467.467 0 00-.46.465.467.467 0 000 .934.467.467 0 10.934 0 .467.467 0 000-.934.467.467 0 00-.474-.465zm4.671 0a.467.467 0 00-.46.465.467.467 0 000 .934.467.467 0 10.934 0 .467.467 0 000-.934.467.467 0 00-.474-.465zm3.736 0a.467.467 0 00-.46.465.467.467 0 000 .934.467.467 0 10.934 0 .467.467 0 000-.934.467.467 0 00-.474-.465zm4.671 0a.467.467 0 00-.46.465.467.467 0 000 .934.467.467 0 10.934 0 .467.467 0 000-.934.467.467 0 00-.474-.465zM-.392 7.205h20.55v1.879H-.392zm0 2.813h20.55v3.726H-.392zm-1.871 4.66h.934v.934h-.934zm23.353 0h.934v.934h-.934z"/></g><g data-name="Mask Group 6" transform="translate(19.76 13.398)" clip-path="url(#a)"><path data-name="sofa (2)" d="M-.392-4.004a2.807 2.807 0 00-2.8 2.8V.714a2.385 2.385 0 00-1.871 2.341v9.557a2.063 2.063 0 001.868 2.047v1.421a.467.467 0 00.467.467h1.865a.467.467 0 00.467-.467v-1.4h20.554v1.4a.467.467 0 00.467.467h1.868a.467.467 0 00.467-.467v-1.422a2.063 2.063 0 001.868-2.047V3.055A2.385 2.385 0 0022.96.714v-1.918a2.807 2.807 0 00-2.8-2.8h-3.738a2.8 2.8 0 00-2.335 1.261 2.8 2.8 0 00-2.336-1.261H8.015A2.8 2.8 0 005.68-2.743a2.8 2.8 0 00-2.336-1.261zm0 .934h3.736a1.854 1.854 0 011.868 1.866v7.473H-.409l-.015.442.031-.011V5.337a.467.467 0 00.467-.467.467.467 0 000-.934.467.467 0 00-.467-.465v-.416A2.385 2.385 0 00-2.263.714v-1.918A1.854 1.854 0 01-.392-3.07zm8.407 0h3.736a1.854 1.854 0 011.868 1.866v7.473H6.146v-7.473A1.854 1.854 0 018.015-3.07zm8.407 0h3.736a1.854 1.854 0 011.869 1.866V.714a2.385 2.385 0 00-1.868 2.341v.416h-.007a.467.467 0 00-.46.465.467.467 0 000 .934.467.467 0 00.467.467v.934h-5.6v-7.475a1.854 1.854 0 011.863-1.866zM-.4-2.136a.467.467 0 00-.46.467.467.467 0 000 .934.467.467 0 10.934 0 .467.467 0 000-.934.467.467 0 00-.474-.467zm3.736 0a.467.467 0 00-.46.467.467.467 0 000 .934.467.467 0 10.934 0 .467.467 0 000-.934.467.467 0 00-.473-.467zm4.671 0a.467.467 0 00-.46.467.467.467 0 000 .934.467.467 0 10.934 0 .467.467 0 000-.934.467.467 0 00-.474-.467zm3.736 0a.467.467 0 00-.46.467.467.467 0 000 .934.467.467 0 10.934 0 .467.467 0 000-.934.467.467 0 00-.474-.467zm4.671 0a.467.467 0 00-.46.467.467.467 0 000 .934.467.467 0 10.934 0 .467.467 0 000-.934.467.467 0 00-.474-.467zm3.736 0a.467.467 0 00-.46.467.467.467 0 000 .934.467.467 0 10.934 0 .467.467 0 000-.934.467.467 0 00-.474-.467zM1.469.667a.467.467 0 00-.46.467.467.467 0 000 .934.467.467 0 10.934 0 .467.467 0 000-.934.467.467 0 00-.474-.467zm8.407 0a.467.467 0 00-.46.467.467.467 0 000 .934.467.467 0 10.934 0 .467.467 0 000-.934.467.467 0 00-.474-.467zm8.407 0a.467.467 0 00-.46.467.467.467 0 000 .934.467.467 0 10.934 0 .467.467 0 000-.934.467.467 0 00-.474-.467zm-21.011.929a1.415 1.415 0 011.4 1.454v10.69h-1.675a1.117 1.117 0 01-1.126-1.129V3.055a1.415 1.415 0 011.401-1.459zm25.221 0a1.415 1.415 0 011.4 1.454v9.557a1.117 1.117 0 01-1.126 1.133h-1.675V3.055a1.415 1.415 0 011.402-1.459zM3.337 3.471a.467.467 0 00-.46.465.467.467 0 000 .934.467.467 0 10.934 0 .467.467 0 000-.934.467.467 0 00-.474-.465zm4.671 0a.467.467 0 00-.46.465.467.467 0 000 .934.467.467 0 10.934 0 .467.467 0 000-.934.467.467 0 00-.474-.465zm3.736 0a.467.467 0 00-.46.465.467.467 0 000 .934.467.467 0 10.934 0 .467.467 0 000-.934.467.467 0 00-.474-.465zm4.671 0a.467.467 0 00-.46.465.467.467 0 000 .934.467.467 0 10.934 0 .467.467 0 000-.934.467.467 0 00-.474-.465zM-.392 7.205h20.55v1.879H-.392zm0 2.813h20.55v3.726H-.392zm-1.871 4.66h.934v.934h-.934zm23.353 0h.934v.934h-.934z"/></g><g data-name="Mask Group 7" transform="translate(23.476 13.398)" clip-path="url(#a)"><path data-name="sofa (2)" d="M-.392-4.004a2.807 2.807 0 00-2.8 2.8V.714a2.385 2.385 0 00-1.871 2.341v9.557a2.063 2.063 0 001.868 2.047v1.421a.467.467 0 00.467.467h1.865a.467.467 0 00.467-.467v-1.4h20.554v1.4a.467.467 0 00.467.467h1.868a.467.467 0 00.467-.467v-1.422a2.063 2.063 0 001.868-2.047V3.055A2.385 2.385 0 0022.96.714v-1.918a2.807 2.807 0 00-2.8-2.8h-3.738a2.8 2.8 0 00-2.335 1.261 2.8 2.8 0 00-2.336-1.261H8.015A2.8 2.8 0 005.68-2.743a2.8 2.8 0 00-2.336-1.261zm0 .934h3.736a1.854 1.854 0 011.868 1.866v7.473H-.409l-.015.442.031-.011V5.337a.467.467 0 00.467-.467.467.467 0 000-.934.467.467 0 00-.467-.465v-.416A2.385 2.385 0 00-2.263.714v-1.918A1.854 1.854 0 01-.392-3.07zm8.407 0h3.736a1.854 1.854 0 011.868 1.866v7.473H6.146v-7.473A1.854 1.854 0 018.015-3.07zm8.407 0h3.736a1.854 1.854 0 011.869 1.866V.714a2.385 2.385 0 00-1.868 2.341v.416h-.007a.467.467 0 00-.46.465.467.467 0 000 .934.467.467 0 00.467.467v.934h-5.6v-7.475a1.854 1.854 0 011.863-1.866zM-.4-2.136a.467.467 0 00-.46.467.467.467 0 000 .934.467.467 0 10.934 0 .467.467 0 000-.934.467.467 0 00-.474-.467zm3.736 0a.467.467 0 00-.46.467.467.467 0 000 .934.467.467 0 10.934 0 .467.467 0 000-.934.467.467 0 00-.473-.467zm4.671 0a.467.467 0 00-.46.467.467.467 0 000 .934.467.467 0 10.934 0 .467.467 0 000-.934.467.467 0 00-.474-.467zm3.736 0a.467.467 0 00-.46.467.467.467 0 000 .934.467.467 0 10.934 0 .467.467 0 000-.934.467.467 0 00-.474-.467zm4.671 0a.467.467 0 00-.46.467.467.467 0 000 .934.467.467 0 10.934 0 .467.467 0 000-.934.467.467 0 00-.474-.467zm3.736 0a.467.467 0 00-.46.467.467.467 0 000 .934.467.467 0 10.934 0 .467.467 0 000-.934.467.467 0 00-.474-.467zM1.469.667a.467.467 0 00-.46.467.467.467 0 000 .934.467.467 0 10.934 0 .467.467 0 000-.934.467.467 0 00-.474-.467zm8.407 0a.467.467 0 00-.46.467.467.467 0 000 .934.467.467 0 10.934 0 .467.467 0 000-.934.467.467 0 00-.474-.467zm8.407 0a.467.467 0 00-.46.467.467.467 0 000 .934.467.467 0 10.934 0 .467.467 0 000-.934.467.467 0 00-.474-.467zm-21.011.929a1.415 1.415 0 011.4 1.454v10.69h-1.675a1.117 1.117 0 01-1.126-1.129V3.055a1.415 1.415 0 011.401-1.459zm25.221 0a1.415 1.415 0 011.4 1.454v9.557a1.117 1.117 0 01-1.126 1.133h-1.675V3.055a1.415 1.415 0 011.402-1.459zM3.337 3.471a.467.467 0 00-.46.465.467.467 0 000 .934.467.467 0 10.934 0 .467.467 0 000-.934.467.467 0 00-.474-.465zm4.671 0a.467.467 0 00-.46.465.467.467 0 000 .934.467.467 0 10.934 0 .467.467 0 000-.934.467.467 0 00-.474-.465zm3.736 0a.467.467 0 00-.46.465.467.467 0 000 .934.467.467 0 10.934 0 .467.467 0 000-.934.467.467 0 00-.474-.465zm4.671 0a.467.467 0 00-.46.465.467.467 0 000 .934.467.467 0 10.934 0 .467.467 0 000-.934.467.467 0 00-.474-.465zM-.392 7.205h20.55v1.879H-.392zm0 2.813h20.55v3.726H-.392zm-1.871 4.66h.934v.934h-.934zm23.353 0h.934v.934h-.934z"/></g><g data-name="Mask Group 8" transform="translate(26.45 13.398)" clip-path="url(#a)"><path data-name="sofa (2)" d="M-.392-4.004a2.807 2.807 0 00-2.8 2.8V.714a2.385 2.385 0 00-1.871 2.341v9.557a2.063 2.063 0 001.868 2.047v1.421a.467.467 0 00.467.467h1.865a.467.467 0 00.467-.467v-1.4h20.554v1.4a.467.467 0 00.467.467h1.868a.467.467 0 00.467-.467v-1.422a2.063 2.063 0 001.868-2.047V3.055A2.385 2.385 0 0022.96.714v-1.918a2.807 2.807 0 00-2.8-2.8h-3.738a2.8 2.8 0 00-2.335 1.261 2.8 2.8 0 00-2.336-1.261H8.015A2.8 2.8 0 005.68-2.743a2.8 2.8 0 00-2.336-1.261zm0 .934h3.736a1.854 1.854 0 011.868 1.866v7.473H-.409l-.015.442.031-.011V5.337a.467.467 0 00.467-.467.467.467 0 000-.934.467.467 0 00-.467-.465v-.416A2.385 2.385 0 00-2.263.714v-1.918A1.854 1.854 0 01-.392-3.07zm8.407 0h3.736a1.854 1.854 0 011.868 1.866v7.473H6.146v-7.473A1.854 1.854 0 018.015-3.07zm8.407 0h3.736a1.854 1.854 0 011.869 1.866V.714a2.385 2.385 0 00-1.868 2.341v.416h-.007a.467.467 0 00-.46.465.467.467 0 000 .934.467.467 0 00.467.467v.934h-5.6v-7.475a1.854 1.854 0 011.863-1.866zM-.4-2.136a.467.467 0 00-.46.467.467.467 0 000 .934.467.467 0 10.934 0 .467.467 0 000-.934.467.467 0 00-.474-.467zm3.736 0a.467.467 0 00-.46.467.467.467 0 000 .934.467.467 0 10.934 0 .467.467 0 000-.934.467.467 0 00-.473-.467zm4.671 0a.467.467 0 00-.46.467.467.467 0 000 .934.467.467 0 10.934 0 .467.467 0 000-.934.467.467 0 00-.474-.467zm3.736 0a.467.467 0 00-.46.467.467.467 0 000 .934.467.467 0 10.934 0 .467.467 0 000-.934.467.467 0 00-.474-.467zm4.671 0a.467.467 0 00-.46.467.467.467 0 000 .934.467.467 0 10.934 0 .467.467 0 000-.934.467.467 0 00-.474-.467zm3.736 0a.467.467 0 00-.46.467.467.467 0 000 .934.467.467 0 10.934 0 .467.467 0 000-.934.467.467 0 00-.474-.467zM1.469.667a.467.467 0 00-.46.467.467.467 0 000 .934.467.467 0 10.934 0 .467.467 0 000-.934.467.467 0 00-.474-.467zm8.407 0a.467.467 0 00-.46.467.467.467 0 000 .934.467.467 0 10.934 0 .467.467 0 000-.934.467.467 0 00-.474-.467zm8.407 0a.467.467 0 00-.46.467.467.467 0 000 .934.467.467 0 10.934 0 .467.467 0 000-.934.467.467 0 00-.474-.467zm-21.011.929a1.415 1.415 0 011.4 1.454v10.69h-1.675a1.117 1.117 0 01-1.126-1.129V3.055a1.415 1.415 0 011.401-1.459zm25.221 0a1.415 1.415 0 011.4 1.454v9.557a1.117 1.117 0 01-1.126 1.133h-1.675V3.055a1.415 1.415 0 011.402-1.459zM3.337 3.471a.467.467 0 00-.46.465.467.467 0 000 .934.467.467 0 10.934 0 .467.467 0 000-.934.467.467 0 00-.474-.465zm4.671 0a.467.467 0 00-.46.465.467.467 0 000 .934.467.467 0 10.934 0 .467.467 0 000-.934.467.467 0 00-.474-.465zm3.736 0a.467.467 0 00-.46.465.467.467 0 000 .934.467.467 0 10.934 0 .467.467 0 000-.934.467.467 0 00-.474-.465zm4.671 0a.467.467 0 00-.46.465.467.467 0 000 .934.467.467 0 10.934 0 .467.467 0 000-.934.467.467 0 00-.474-.465zM-.392 7.205h20.55v1.879H-.392zm0 2.813h20.55v3.726H-.392zm-1.871 4.66h.934v.934h-.934zm23.353 0h.934v.934h-.934z"/></g><g data-name="Mask Group 9" transform="translate(29.423 13.398)" clip-path="url(#a)"><path data-name="sofa (2)" d="M-.392-4.004a2.807 2.807 0 00-2.8 2.8V.714a2.385 2.385 0 00-1.871 2.341v9.557a2.063 2.063 0 001.868 2.047v1.421a.467.467 0 00.467.467h1.865a.467.467 0 00.467-.467v-1.4h20.554v1.4a.467.467 0 00.467.467h1.868a.467.467 0 00.467-.467v-1.422a2.063 2.063 0 001.868-2.047V3.055A2.385 2.385 0 0022.96.714v-1.918a2.807 2.807 0 00-2.8-2.8h-3.738a2.8 2.8 0 00-2.335 1.261 2.8 2.8 0 00-2.336-1.261H8.015A2.8 2.8 0 005.68-2.743a2.8 2.8 0 00-2.336-1.261zm0 .934h3.736a1.854 1.854 0 011.868 1.866v7.473H-.409l-.015.442.031-.011V5.337a.467.467 0 00.467-.467.467.467 0 000-.934.467.467 0 00-.467-.465v-.416A2.385 2.385 0 00-2.263.714v-1.918A1.854 1.854 0 01-.392-3.07zm8.407 0h3.736a1.854 1.854 0 011.868 1.866v7.473H6.146v-7.473A1.854 1.854 0 018.015-3.07zm8.407 0h3.736a1.854 1.854 0 011.869 1.866V.714a2.385 2.385 0 00-1.868 2.341v.416h-.007a.467.467 0 00-.46.465.467.467 0 000 .934.467.467 0 00.467.467v.934h-5.6v-7.475a1.854 1.854 0 011.863-1.866zM-.4-2.136a.467.467 0 00-.46.467.467.467 0 000 .934.467.467 0 10.934 0 .467.467 0 000-.934.467.467 0 00-.474-.467zm3.736 0a.467.467 0 00-.46.467.467.467 0 000 .934.467.467 0 10.934 0 .467.467 0 000-.934.467.467 0 00-.473-.467zm4.671 0a.467.467 0 00-.46.467.467.467 0 000 .934.467.467 0 10.934 0 .467.467 0 000-.934.467.467 0 00-.474-.467zm3.736 0a.467.467 0 00-.46.467.467.467 0 000 .934.467.467 0 10.934 0 .467.467 0 000-.934.467.467 0 00-.474-.467zm4.671 0a.467.467 0 00-.46.467.467.467 0 000 .934.467.467 0 10.934 0 .467.467 0 000-.934.467.467 0 00-.474-.467zm3.736 0a.467.467 0 00-.46.467.467.467 0 000 .934.467.467 0 10.934 0 .467.467 0 000-.934.467.467 0 00-.474-.467zM1.469.667a.467.467 0 00-.46.467.467.467 0 000 .934.467.467 0 10.934 0 .467.467 0 000-.934.467.467 0 00-.474-.467zm8.407 0a.467.467 0 00-.46.467.467.467 0 000 .934.467.467 0 10.934 0 .467.467 0 000-.934.467.467 0 00-.474-.467zm8.407 0a.467.467 0 00-.46.467.467.467 0 000 .934.467.467 0 10.934 0 .467.467 0 000-.934.467.467 0 00-.474-.467zm-21.011.929a1.415 1.415 0 011.4 1.454v10.69h-1.675a1.117 1.117 0 01-1.126-1.129V3.055a1.415 1.415 0 011.401-1.459zm25.221 0a1.415 1.415 0 011.4 1.454v9.557a1.117 1.117 0 01-1.126 1.133h-1.675V3.055a1.415 1.415 0 011.402-1.459zM3.337 3.471a.467.467 0 00-.46.465.467.467 0 000 .934.467.467 0 10.934 0 .467.467 0 000-.934.467.467 0 00-.474-.465zm4.671 0a.467.467 0 00-.46.465.467.467 0 000 .934.467.467 0 10.934 0 .467.467 0 000-.934.467.467 0 00-.474-.465zm3.736 0a.467.467 0 00-.46.465.467.467 0 000 .934.467.467 0 10.934 0 .467.467 0 000-.934.467.467 0 00-.474-.465zm4.671 0a.467.467 0 00-.46.465.467.467 0 000 .934.467.467 0 10.934 0 .467.467 0 000-.934.467.467 0 00-.474-.465zM-.392 7.205h20.55v1.879H-.392zm0 2.813h20.55v3.726H-.392zm-1.871 4.66h.934v.934h-.934zm23.353 0h.934v.934h-.934z"/></g></g></g></g></svg>