<svg data-name="Group 67024" xmlns="http://www.w3.org/2000/svg" width="46.915" height="33.974"><defs><clipPath id="a"><circle data-name="Ellipse 8" cx="1.487" cy="1.487" r="1.487" fill="#fff" stroke="#707070"/></clipPath></defs><g data-name="Group 67023"><path d="M46.106 23.458H45.3v-3.236a4.044 4.044 0 00-4.044-4.044h-.809V5.662A5.662 5.662 0 0034.782 0H12.133a5.662 5.662 0 00-5.662 5.662v10.516h-.809a4.044 4.044 0 00-4.044 4.044v3.236H.809a.809.809 0 00-.809.808v8.9a.809.809 0 00.809.809h5.929a.809.809 0 00.768-.55l.582-1.836a2.427 2.427 0 012.3-1.618H36.5a2.427 2.427 0 012.3 1.618l.615 1.836a.809.809 0 00.809.55h5.889a.809.809 0 00.809-.809v-8.9a.809.809 0 00-.816-.808zM8.089 5.658a4.044 4.044 0 014.044-4.044h22.649a4.044 4.044 0 014.044 4.044v10.52h-2.572a7.568 7.568 0 00.146-2.427 2.427 2.427 0 00-2.427-2.427h-5.662a2.427 2.427 0 00-2.427 2.427 6.526 6.526 0 00.146 2.427h-5.145a7.568 7.568 0 00.146-2.427 2.427 2.427 0 00-2.431-2.427h-5.658a2.427 2.427 0 00-2.427 2.427 7.568 7.568 0 00.146 2.427H8.089zM27.5 15.369v-1.618a.809.809 0 01.809-.809h5.662a.809.809 0 01.809.809v1.618a.809.809 0 01-.809.809h-5.66a.809.809 0 01-.811-.809zm-15.369 0v-1.618a.809.809 0 01.809-.809h5.66a.809.809 0 01.809.809v1.618a.809.809 0 01-.809.809h-5.658a.809.809 0 01-.809-.809zm-8.9 4.853A2.427 2.427 0 015.662 17.8h35.591a2.427 2.427 0 012.427 2.427v3.236H3.236zM45.3 32.355h-4.54l-.429-1.278a4.044 4.044 0 00-3.831-2.766H10.418a4.044 4.044 0 00-3.834 2.766l-.429 1.278H1.618v-7.28H45.3z"/><g data-name="Group 67022"><g data-name="Mask Group 4" transform="translate(14.732 24.673)" clip-path="url(#a)"><path data-name="sofa (2)" d="M-.392-4.004a2.807 2.807 0 00-2.8 2.8V.714a2.385 2.385 0 00-1.871 2.341v9.557a2.063 2.063 0 001.868 2.047v1.421a.467.467 0 00.467.467h1.865a.467.467 0 00.467-.467v-1.4h20.554v1.4a.467.467 0 00.467.467h1.868a.467.467 0 00.467-.467v-1.422a2.063 2.063 0 001.868-2.047V3.055A2.385 2.385 0 0022.96.714v-1.918a2.807 2.807 0 00-2.8-2.8h-3.738a2.8 2.8 0 00-2.335 1.261 2.8 2.8 0 00-2.336-1.261H8.015A2.8 2.8 0 005.68-2.743a2.8 2.8 0 00-2.336-1.261zm0 .934h3.736a1.854 1.854 0 011.868 1.866v7.473H-.409l-.015.442.031-.011V5.337a.467.467 0 00.467-.467.467.467 0 000-.934.467.467 0 00-.467-.465v-.416A2.385 2.385 0 00-2.263.714v-1.918A1.854 1.854 0 01-.392-3.07zm8.407 0h3.736a1.854 1.854 0 011.868 1.866v7.473H6.146v-7.473A1.854 1.854 0 018.015-3.07zm8.407 0h3.736a1.854 1.854 0 011.869 1.866V.714a2.385 2.385 0 00-1.868 2.341v.416h-.007a.467.467 0 00-.46.465.467.467 0 000 .934.467.467 0 00.467.467v.934h-5.6v-7.475a1.854 1.854 0 011.863-1.866zM-.4-2.136a.467.467 0 00-.46.467.467.467 0 000 .934.467.467 0 10.934 0 .467.467 0 000-.934.467.467 0 00-.474-.467zm3.736 0a.467.467 0 00-.46.467.467.467 0 000 .934.467.467 0 10.934 0 .467.467 0 000-.934.467.467 0 00-.473-.467zm4.671 0a.467.467 0 00-.46.467.467.467 0 000 .934.467.467 0 10.934 0 .467.467 0 000-.934.467.467 0 00-.474-.467zm3.736 0a.467.467 0 00-.46.467.467.467 0 000 .934.467.467 0 10.934 0 .467.467 0 000-.934.467.467 0 00-.474-.467zm4.671 0a.467.467 0 00-.46.467.467.467 0 000 .934.467.467 0 10.934 0 .467.467 0 000-.934.467.467 0 00-.474-.467zm3.736 0a.467.467 0 00-.46.467.467.467 0 000 .934.467.467 0 10.934 0 .467.467 0 000-.934.467.467 0 00-.474-.467zM1.469.667a.467.467 0 00-.46.467.467.467 0 000 .934.467.467 0 10.934 0 .467.467 0 000-.934.467.467 0 00-.474-.467zm8.407 0a.467.467 0 00-.46.467.467.467 0 000 .934.467.467 0 10.934 0 .467.467 0 000-.934.467.467 0 00-.474-.467zm8.407 0a.467.467 0 00-.46.467.467.467 0 000 .934.467.467 0 10.934 0 .467.467 0 000-.934.467.467 0 00-.474-.467zm-21.011.929a1.415 1.415 0 011.4 1.454v10.69h-1.675a1.117 1.117 0 01-1.126-1.129V3.055a1.415 1.415 0 011.401-1.459zm25.221 0a1.415 1.415 0 011.4 1.454v9.557a1.117 1.117 0 01-1.126 1.133h-1.675V3.055a1.415 1.415 0 011.402-1.459zM3.337 3.471a.467.467 0 00-.46.465.467.467 0 000 .934.467.467 0 10.934 0 .467.467 0 000-.934.467.467 0 00-.474-.465zm4.671 0a.467.467 0 00-.46.465.467.467 0 000 .934.467.467 0 10.934 0 .467.467 0 000-.934.467.467 0 00-.474-.465zm3.736 0a.467.467 0 00-.46.465.467.467 0 000 .934.467.467 0 10.934 0 .467.467 0 000-.934.467.467 0 00-.474-.465zm4.671 0a.467.467 0 00-.46.465.467.467 0 000 .934.467.467 0 10.934 0 .467.467 0 000-.934.467.467 0 00-.474-.465zM-.392 7.205h20.55v1.879H-.392zm0 2.813h20.55v3.726H-.392zm-1.871 4.66h.934v.934h-.934zm23.353 0h.934v.934h-.934z"/></g><g data-name="Mask Group 5" transform="translate(17.705 24.673)" clip-path="url(#a)"><path data-name="sofa (2)" d="M-.392-4.004a2.807 2.807 0 00-2.8 2.8V.714a2.385 2.385 0 00-1.871 2.341v9.557a2.063 2.063 0 001.868 2.047v1.421a.467.467 0 00.467.467h1.865a.467.467 0 00.467-.467v-1.4h20.554v1.4a.467.467 0 00.467.467h1.868a.467.467 0 00.467-.467v-1.422a2.063 2.063 0 001.868-2.047V3.055A2.385 2.385 0 0022.96.714v-1.918a2.807 2.807 0 00-2.8-2.8h-3.738a2.8 2.8 0 00-2.335 1.261 2.8 2.8 0 00-2.336-1.261H8.015A2.8 2.8 0 005.68-2.743a2.8 2.8 0 00-2.336-1.261zm0 .934h3.736a1.854 1.854 0 011.868 1.866v7.473H-.409l-.015.442.031-.011V5.337a.467.467 0 00.467-.467.467.467 0 000-.934.467.467 0 00-.467-.465v-.416A2.385 2.385 0 00-2.263.714v-1.918A1.854 1.854 0 01-.392-3.07zm8.407 0h3.736a1.854 1.854 0 011.868 1.866v7.473H6.146v-7.473A1.854 1.854 0 018.015-3.07zm8.407 0h3.736a1.854 1.854 0 011.869 1.866V.714a2.385 2.385 0 00-1.868 2.341v.416h-.007a.467.467 0 00-.46.465.467.467 0 000 .934.467.467 0 00.467.467v.934h-5.6v-7.475a1.854 1.854 0 011.863-1.866zM-.4-2.136a.467.467 0 00-.46.467.467.467 0 000 .934.467.467 0 10.934 0 .467.467 0 000-.934.467.467 0 00-.474-.467zm3.736 0a.467.467 0 00-.46.467.467.467 0 000 .934.467.467 0 10.934 0 .467.467 0 000-.934.467.467 0 00-.473-.467zm4.671 0a.467.467 0 00-.46.467.467.467 0 000 .934.467.467 0 10.934 0 .467.467 0 000-.934.467.467 0 00-.474-.467zm3.736 0a.467.467 0 00-.46.467.467.467 0 000 .934.467.467 0 10.934 0 .467.467 0 000-.934.467.467 0 00-.474-.467zm4.671 0a.467.467 0 00-.46.467.467.467 0 000 .934.467.467 0 10.934 0 .467.467 0 000-.934.467.467 0 00-.474-.467zm3.736 0a.467.467 0 00-.46.467.467.467 0 000 .934.467.467 0 10.934 0 .467.467 0 000-.934.467.467 0 00-.474-.467zM1.469.667a.467.467 0 00-.46.467.467.467 0 000 .934.467.467 0 10.934 0 .467.467 0 000-.934.467.467 0 00-.474-.467zm8.407 0a.467.467 0 00-.46.467.467.467 0 000 .934.467.467 0 10.934 0 .467.467 0 000-.934.467.467 0 00-.474-.467zm8.407 0a.467.467 0 00-.46.467.467.467 0 000 .934.467.467 0 10.934 0 .467.467 0 000-.934.467.467 0 00-.474-.467zm-21.011.929a1.415 1.415 0 011.4 1.454v10.69h-1.675a1.117 1.117 0 01-1.126-1.129V3.055a1.415 1.415 0 011.401-1.459zm25.221 0a1.415 1.415 0 011.4 1.454v9.557a1.117 1.117 0 01-1.126 1.133h-1.675V3.055a1.415 1.415 0 011.402-1.459zM3.337 3.471a.467.467 0 00-.46.465.467.467 0 000 .934.467.467 0 10.934 0 .467.467 0 000-.934.467.467 0 00-.474-.465zm4.671 0a.467.467 0 00-.46.465.467.467 0 000 .934.467.467 0 10.934 0 .467.467 0 000-.934.467.467 0 00-.474-.465zm3.736 0a.467.467 0 00-.46.465.467.467 0 000 .934.467.467 0 10.934 0 .467.467 0 000-.934.467.467 0 00-.474-.465zm4.671 0a.467.467 0 00-.46.465.467.467 0 000 .934.467.467 0 10.934 0 .467.467 0 000-.934.467.467 0 00-.474-.465zM-.392 7.205h20.55v1.879H-.392zm0 2.813h20.55v3.726H-.392zm-1.871 4.66h.934v.934h-.934zm23.353 0h.934v.934h-.934z"/></g><g data-name="Mask Group 6" transform="translate(20.679 24.673)" clip-path="url(#a)"><path data-name="sofa (2)" d="M-.392-4.004a2.807 2.807 0 00-2.8 2.8V.714a2.385 2.385 0 00-1.871 2.341v9.557a2.063 2.063 0 001.868 2.047v1.421a.467.467 0 00.467.467h1.865a.467.467 0 00.467-.467v-1.4h20.554v1.4a.467.467 0 00.467.467h1.868a.467.467 0 00.467-.467v-1.422a2.063 2.063 0 001.868-2.047V3.055A2.385 2.385 0 0022.96.714v-1.918a2.807 2.807 0 00-2.8-2.8h-3.738a2.8 2.8 0 00-2.335 1.261 2.8 2.8 0 00-2.336-1.261H8.015A2.8 2.8 0 005.68-2.743a2.8 2.8 0 00-2.336-1.261zm0 .934h3.736a1.854 1.854 0 011.868 1.866v7.473H-.409l-.015.442.031-.011V5.337a.467.467 0 00.467-.467.467.467 0 000-.934.467.467 0 00-.467-.465v-.416A2.385 2.385 0 00-2.263.714v-1.918A1.854 1.854 0 01-.392-3.07zm8.407 0h3.736a1.854 1.854 0 011.868 1.866v7.473H6.146v-7.473A1.854 1.854 0 018.015-3.07zm8.407 0h3.736a1.854 1.854 0 011.869 1.866V.714a2.385 2.385 0 00-1.868 2.341v.416h-.007a.467.467 0 00-.46.465.467.467 0 000 .934.467.467 0 00.467.467v.934h-5.6v-7.475a1.854 1.854 0 011.863-1.866zM-.4-2.136a.467.467 0 00-.46.467.467.467 0 000 .934.467.467 0 10.934 0 .467.467 0 000-.934.467.467 0 00-.474-.467zm3.736 0a.467.467 0 00-.46.467.467.467 0 000 .934.467.467 0 10.934 0 .467.467 0 000-.934.467.467 0 00-.473-.467zm4.671 0a.467.467 0 00-.46.467.467.467 0 000 .934.467.467 0 10.934 0 .467.467 0 000-.934.467.467 0 00-.474-.467zm3.736 0a.467.467 0 00-.46.467.467.467 0 000 .934.467.467 0 10.934 0 .467.467 0 000-.934.467.467 0 00-.474-.467zm4.671 0a.467.467 0 00-.46.467.467.467 0 000 .934.467.467 0 10.934 0 .467.467 0 000-.934.467.467 0 00-.474-.467zm3.736 0a.467.467 0 00-.46.467.467.467 0 000 .934.467.467 0 10.934 0 .467.467 0 000-.934.467.467 0 00-.474-.467zM1.469.667a.467.467 0 00-.46.467.467.467 0 000 .934.467.467 0 10.934 0 .467.467 0 000-.934.467.467 0 00-.474-.467zm8.407 0a.467.467 0 00-.46.467.467.467 0 000 .934.467.467 0 10.934 0 .467.467 0 000-.934.467.467 0 00-.474-.467zm8.407 0a.467.467 0 00-.46.467.467.467 0 000 .934.467.467 0 10.934 0 .467.467 0 000-.934.467.467 0 00-.474-.467zm-21.011.929a1.415 1.415 0 011.4 1.454v10.69h-1.675a1.117 1.117 0 01-1.126-1.129V3.055a1.415 1.415 0 011.401-1.459zm25.221 0a1.415 1.415 0 011.4 1.454v9.557a1.117 1.117 0 01-1.126 1.133h-1.675V3.055a1.415 1.415 0 011.402-1.459zM3.337 3.471a.467.467 0 00-.46.465.467.467 0 000 .934.467.467 0 10.934 0 .467.467 0 000-.934.467.467 0 00-.474-.465zm4.671 0a.467.467 0 00-.46.465.467.467 0 000 .934.467.467 0 10.934 0 .467.467 0 000-.934.467.467 0 00-.474-.465zm3.736 0a.467.467 0 00-.46.465.467.467 0 000 .934.467.467 0 10.934 0 .467.467 0 000-.934.467.467 0 00-.474-.465zm4.671 0a.467.467 0 00-.46.465.467.467 0 000 .934.467.467 0 10.934 0 .467.467 0 000-.934.467.467 0 00-.474-.465zM-.392 7.205h20.55v1.879H-.392zm0 2.813h20.55v3.726H-.392zm-1.871 4.66h.934v.934h-.934zm23.353 0h.934v.934h-.934z"/></g><g data-name="Mask Group 7" transform="translate(24.395 24.673)" clip-path="url(#a)"><path data-name="sofa (2)" d="M-.392-4.004a2.807 2.807 0 00-2.8 2.8V.714a2.385 2.385 0 00-1.871 2.341v9.557a2.063 2.063 0 001.868 2.047v1.421a.467.467 0 00.467.467h1.865a.467.467 0 00.467-.467v-1.4h20.554v1.4a.467.467 0 00.467.467h1.868a.467.467 0 00.467-.467v-1.422a2.063 2.063 0 001.868-2.047V3.055A2.385 2.385 0 0022.96.714v-1.918a2.807 2.807 0 00-2.8-2.8h-3.738a2.8 2.8 0 00-2.335 1.261 2.8 2.8 0 00-2.336-1.261H8.015A2.8 2.8 0 005.68-2.743a2.8 2.8 0 00-2.336-1.261zm0 .934h3.736a1.854 1.854 0 011.868 1.866v7.473H-.409l-.015.442.031-.011V5.337a.467.467 0 00.467-.467.467.467 0 000-.934.467.467 0 00-.467-.465v-.416A2.385 2.385 0 00-2.263.714v-1.918A1.854 1.854 0 01-.392-3.07zm8.407 0h3.736a1.854 1.854 0 011.868 1.866v7.473H6.146v-7.473A1.854 1.854 0 018.015-3.07zm8.407 0h3.736a1.854 1.854 0 011.869 1.866V.714a2.385 2.385 0 00-1.868 2.341v.416h-.007a.467.467 0 00-.46.465.467.467 0 000 .934.467.467 0 00.467.467v.934h-5.6v-7.475a1.854 1.854 0 011.863-1.866zM-.4-2.136a.467.467 0 00-.46.467.467.467 0 000 .934.467.467 0 10.934 0 .467.467 0 000-.934.467.467 0 00-.474-.467zm3.736 0a.467.467 0 00-.46.467.467.467 0 000 .934.467.467 0 10.934 0 .467.467 0 000-.934.467.467 0 00-.473-.467zm4.671 0a.467.467 0 00-.46.467.467.467 0 000 .934.467.467 0 10.934 0 .467.467 0 000-.934.467.467 0 00-.474-.467zm3.736 0a.467.467 0 00-.46.467.467.467 0 000 .934.467.467 0 10.934 0 .467.467 0 000-.934.467.467 0 00-.474-.467zm4.671 0a.467.467 0 00-.46.467.467.467 0 000 .934.467.467 0 10.934 0 .467.467 0 000-.934.467.467 0 00-.474-.467zm3.736 0a.467.467 0 00-.46.467.467.467 0 000 .934.467.467 0 10.934 0 .467.467 0 000-.934.467.467 0 00-.474-.467zM1.469.667a.467.467 0 00-.46.467.467.467 0 000 .934.467.467 0 10.934 0 .467.467 0 000-.934.467.467 0 00-.474-.467zm8.407 0a.467.467 0 00-.46.467.467.467 0 000 .934.467.467 0 10.934 0 .467.467 0 000-.934.467.467 0 00-.474-.467zm8.407 0a.467.467 0 00-.46.467.467.467 0 000 .934.467.467 0 10.934 0 .467.467 0 000-.934.467.467 0 00-.474-.467zm-21.011.929a1.415 1.415 0 011.4 1.454v10.69h-1.675a1.117 1.117 0 01-1.126-1.129V3.055a1.415 1.415 0 011.401-1.459zm25.221 0a1.415 1.415 0 011.4 1.454v9.557a1.117 1.117 0 01-1.126 1.133h-1.675V3.055a1.415 1.415 0 011.402-1.459zM3.337 3.471a.467.467 0 00-.46.465.467.467 0 000 .934.467.467 0 10.934 0 .467.467 0 000-.934.467.467 0 00-.474-.465zm4.671 0a.467.467 0 00-.46.465.467.467 0 000 .934.467.467 0 10.934 0 .467.467 0 000-.934.467.467 0 00-.474-.465zm3.736 0a.467.467 0 00-.46.465.467.467 0 000 .934.467.467 0 10.934 0 .467.467 0 000-.934.467.467 0 00-.474-.465zm4.671 0a.467.467 0 00-.46.465.467.467 0 000 .934.467.467 0 10.934 0 .467.467 0 000-.934.467.467 0 00-.474-.465zM-.392 7.205h20.55v1.879H-.392zm0 2.813h20.55v3.726H-.392zm-1.871 4.66h.934v.934h-.934zm23.353 0h.934v.934h-.934z"/></g><g data-name="Mask Group 8" transform="translate(27.369 24.673)" clip-path="url(#a)"><path data-name="sofa (2)" d="M-.392-4.004a2.807 2.807 0 00-2.8 2.8V.714a2.385 2.385 0 00-1.871 2.341v9.557a2.063 2.063 0 001.868 2.047v1.421a.467.467 0 00.467.467h1.865a.467.467 0 00.467-.467v-1.4h20.554v1.4a.467.467 0 00.467.467h1.868a.467.467 0 00.467-.467v-1.422a2.063 2.063 0 001.868-2.047V3.055A2.385 2.385 0 0022.96.714v-1.918a2.807 2.807 0 00-2.8-2.8h-3.738a2.8 2.8 0 00-2.335 1.261 2.8 2.8 0 00-2.336-1.261H8.015A2.8 2.8 0 005.68-2.743a2.8 2.8 0 00-2.336-1.261zm0 .934h3.736a1.854 1.854 0 011.868 1.866v7.473H-.409l-.015.442.031-.011V5.337a.467.467 0 00.467-.467.467.467 0 000-.934.467.467 0 00-.467-.465v-.416A2.385 2.385 0 00-2.263.714v-1.918A1.854 1.854 0 01-.392-3.07zm8.407 0h3.736a1.854 1.854 0 011.868 1.866v7.473H6.146v-7.473A1.854 1.854 0 018.015-3.07zm8.407 0h3.736a1.854 1.854 0 011.869 1.866V.714a2.385 2.385 0 00-1.868 2.341v.416h-.007a.467.467 0 00-.46.465.467.467 0 000 .934.467.467 0 00.467.467v.934h-5.6v-7.475a1.854 1.854 0 011.863-1.866zM-.4-2.136a.467.467 0 00-.46.467.467.467 0 000 .934.467.467 0 10.934 0 .467.467 0 000-.934.467.467 0 00-.474-.467zm3.736 0a.467.467 0 00-.46.467.467.467 0 000 .934.467.467 0 10.934 0 .467.467 0 000-.934.467.467 0 00-.473-.467zm4.671 0a.467.467 0 00-.46.467.467.467 0 000 .934.467.467 0 10.934 0 .467.467 0 000-.934.467.467 0 00-.474-.467zm3.736 0a.467.467 0 00-.46.467.467.467 0 000 .934.467.467 0 10.934 0 .467.467 0 000-.934.467.467 0 00-.474-.467zm4.671 0a.467.467 0 00-.46.467.467.467 0 000 .934.467.467 0 10.934 0 .467.467 0 000-.934.467.467 0 00-.474-.467zm3.736 0a.467.467 0 00-.46.467.467.467 0 000 .934.467.467 0 10.934 0 .467.467 0 000-.934.467.467 0 00-.474-.467zM1.469.667a.467.467 0 00-.46.467.467.467 0 000 .934.467.467 0 10.934 0 .467.467 0 000-.934.467.467 0 00-.474-.467zm8.407 0a.467.467 0 00-.46.467.467.467 0 000 .934.467.467 0 10.934 0 .467.467 0 000-.934.467.467 0 00-.474-.467zm8.407 0a.467.467 0 00-.46.467.467.467 0 000 .934.467.467 0 10.934 0 .467.467 0 000-.934.467.467 0 00-.474-.467zm-21.011.929a1.415 1.415 0 011.4 1.454v10.69h-1.675a1.117 1.117 0 01-1.126-1.129V3.055a1.415 1.415 0 011.401-1.459zm25.221 0a1.415 1.415 0 011.4 1.454v9.557a1.117 1.117 0 01-1.126 1.133h-1.675V3.055a1.415 1.415 0 011.402-1.459zM3.337 3.471a.467.467 0 00-.46.465.467.467 0 000 .934.467.467 0 10.934 0 .467.467 0 000-.934.467.467 0 00-.474-.465zm4.671 0a.467.467 0 00-.46.465.467.467 0 000 .934.467.467 0 10.934 0 .467.467 0 000-.934.467.467 0 00-.474-.465zm3.736 0a.467.467 0 00-.46.465.467.467 0 000 .934.467.467 0 10.934 0 .467.467 0 000-.934.467.467 0 00-.474-.465zm4.671 0a.467.467 0 00-.46.465.467.467 0 000 .934.467.467 0 10.934 0 .467.467 0 000-.934.467.467 0 00-.474-.465zM-.392 7.205h20.55v1.879H-.392zm0 2.813h20.55v3.726H-.392zm-1.871 4.66h.934v.934h-.934zm23.353 0h.934v.934h-.934z"/></g><g data-name="Mask Group 9" transform="translate(30.342 24.673)" clip-path="url(#a)"><path data-name="sofa (2)" d="M-.392-4.004a2.807 2.807 0 00-2.8 2.8V.714a2.385 2.385 0 00-1.871 2.341v9.557a2.063 2.063 0 001.868 2.047v1.421a.467.467 0 00.467.467h1.865a.467.467 0 00.467-.467v-1.4h20.554v1.4a.467.467 0 00.467.467h1.868a.467.467 0 00.467-.467v-1.422a2.063 2.063 0 001.868-2.047V3.055A2.385 2.385 0 0022.96.714v-1.918a2.807 2.807 0 00-2.8-2.8h-3.738a2.8 2.8 0 00-2.335 1.261 2.8 2.8 0 00-2.336-1.261H8.015A2.8 2.8 0 005.68-2.743a2.8 2.8 0 00-2.336-1.261zm0 .934h3.736a1.854 1.854 0 011.868 1.866v7.473H-.409l-.015.442.031-.011V5.337a.467.467 0 00.467-.467.467.467 0 000-.934.467.467 0 00-.467-.465v-.416A2.385 2.385 0 00-2.263.714v-1.918A1.854 1.854 0 01-.392-3.07zm8.407 0h3.736a1.854 1.854 0 011.868 1.866v7.473H6.146v-7.473A1.854 1.854 0 018.015-3.07zm8.407 0h3.736a1.854 1.854 0 011.869 1.866V.714a2.385 2.385 0 00-1.868 2.341v.416h-.007a.467.467 0 00-.46.465.467.467 0 000 .934.467.467 0 00.467.467v.934h-5.6v-7.475a1.854 1.854 0 011.863-1.866zM-.4-2.136a.467.467 0 00-.46.467.467.467 0 000 .934.467.467 0 10.934 0 .467.467 0 000-.934.467.467 0 00-.474-.467zm3.736 0a.467.467 0 00-.46.467.467.467 0 000 .934.467.467 0 10.934 0 .467.467 0 000-.934.467.467 0 00-.473-.467zm4.671 0a.467.467 0 00-.46.467.467.467 0 000 .934.467.467 0 10.934 0 .467.467 0 000-.934.467.467 0 00-.474-.467zm3.736 0a.467.467 0 00-.46.467.467.467 0 000 .934.467.467 0 10.934 0 .467.467 0 000-.934.467.467 0 00-.474-.467zm4.671 0a.467.467 0 00-.46.467.467.467 0 000 .934.467.467 0 10.934 0 .467.467 0 000-.934.467.467 0 00-.474-.467zm3.736 0a.467.467 0 00-.46.467.467.467 0 000 .934.467.467 0 10.934 0 .467.467 0 000-.934.467.467 0 00-.474-.467zM1.469.667a.467.467 0 00-.46.467.467.467 0 000 .934.467.467 0 10.934 0 .467.467 0 000-.934.467.467 0 00-.474-.467zm8.407 0a.467.467 0 00-.46.467.467.467 0 000 .934.467.467 0 10.934 0 .467.467 0 000-.934.467.467 0 00-.474-.467zm8.407 0a.467.467 0 00-.46.467.467.467 0 000 .934.467.467 0 10.934 0 .467.467 0 000-.934.467.467 0 00-.474-.467zm-21.011.929a1.415 1.415 0 011.4 1.454v10.69h-1.675a1.117 1.117 0 01-1.126-1.129V3.055a1.415 1.415 0 011.401-1.459zm25.221 0a1.415 1.415 0 011.4 1.454v9.557a1.117 1.117 0 01-1.126 1.133h-1.675V3.055a1.415 1.415 0 011.402-1.459zM3.337 3.471a.467.467 0 00-.46.465.467.467 0 000 .934.467.467 0 10.934 0 .467.467 0 000-.934.467.467 0 00-.474-.465zm4.671 0a.467.467 0 00-.46.465.467.467 0 000 .934.467.467 0 10.934 0 .467.467 0 000-.934.467.467 0 00-.474-.465zm3.736 0a.467.467 0 00-.46.465.467.467 0 000 .934.467.467 0 10.934 0 .467.467 0 000-.934.467.467 0 00-.474-.465zm4.671 0a.467.467 0 00-.46.465.467.467 0 000 .934.467.467 0 10.934 0 .467.467 0 000-.934.467.467 0 00-.474-.465zM-.392 7.205h20.55v1.879H-.392zm0 2.813h20.55v3.726H-.392zm-1.871 4.66h.934v.934h-.934zm23.353 0h.934v.934h-.934z"/></g></g></g></svg>