<svg data-name="Group 67016" xmlns="http://www.w3.org/2000/svg" width="43.781" height="34.219"><defs><clipPath id="a"><circle data-name="Ellipse 8" cx="1.767" cy="1.767" fill="#fff" stroke="#707070" r="1.767"/></clipPath></defs><g data-name="Group 67015"><path data-name="Layer 2" d="M43.781 18.559a.691.691 0 00-.691-.691H25.748a9.171 9.171 0 001.415-2.244c.175-.378 1.687-3.737.594-5.028C25.287 7.678 25.43.775 25.453.701a.691.691 0 00-.715-.7H20.2a.691.691 0 00-.691.71c0 .069.147 6.968-2.3 9.89-1.092 1.29.419 4.645.594 5.028a9.171 9.171 0 001.415 2.244H.691a.691.691 0 00-.691.686v14.964a.692.692 0 001.383 0V26.73H42.4v6.8a.692.692 0 001.383 0zM18.24 11.494c2.327-2.737 2.627-8.166 2.654-10.111h3.152c.028 1.945.327 7.374 2.654 10.106.212.318-.028 2.138-1.037 4.055-.742 1.383-1.424 1.913-1.7 1.913h-2.98c-.277 0-.959-.512-1.7-1.913-1.015-1.916-1.255-3.743-1.043-4.05zM1.383 25.347v-6.1H42.4v6.1z"/><g data-name="Group 67014"><g data-name="Mask Group 4" transform="translate(10.604 20.175)" clip-path="url(#a)"><path data-name="sofa (2)" d="M-.467-4.759a3.336 3.336 0 00-3.331 3.331V.849a2.835 2.835 0 00-2.221 2.783v11.36a2.453 2.453 0 002.221 2.433v1.69a.555.555 0 00.555.555h2.224a.555.555 0 00.555-.555V17.45h24.43v1.666a.555.555 0 00.555.555h2.221a.555.555 0 00.555-.555v-1.69a2.453 2.453 0 002.221-2.433V3.632A2.835 2.835 0 0027.297.849v-2.277a3.336 3.336 0 00-3.334-3.331h-4.442a3.328 3.328 0 00-2.776 1.5 3.328 3.328 0 00-2.776-1.5H9.527a3.328 3.328 0 00-2.776 1.5 3.328 3.328 0 00-2.776-1.5zm0 1.11h4.442a2.2 2.2 0 012.221 2.221v8.884H-.486l-.017.525.037-.013V6.341a.555.555 0 00.555-.555.555.555 0 000-1.11.555.555 0 00-.555-.553v-.495A2.835 2.835 0 00-2.687.845v-2.273a2.2 2.2 0 012.22-2.221zm9.994 0h4.442a2.2 2.2 0 012.221 2.221v8.884H7.306v-8.884a2.2 2.2 0 012.221-2.221zm9.994 0h4.442a2.2 2.2 0 012.218 2.221V.849a2.835 2.835 0 00-2.221 2.783v.494h-.009a.555.555 0 00-.547.553.555.555 0 000 1.11.555.555 0 00.555.555v1.11H17.3v-8.882a2.2 2.2 0 012.221-2.221zm-20 1.11a.555.555 0 00-.54.556.555.555 0 000 1.11.555.555 0 101.11 0 .555.555 0 000-1.11.555.555 0 00-.566-.555zm4.442 0a.555.555 0 00-.547.555.555.555 0 000 1.11.555.555 0 101.11 0 .555.555 0 000-1.11.555.555 0 00-.564-.555zm5.552 0a.555.555 0 00-.547.555.555.555 0 000 1.11.555.555 0 101.11 0 .555.555 0 000-1.11.555.555 0 00-.564-.555zm4.442 0a.555.555 0 00-.547.555.555.555 0 000 1.11.555.555 0 101.11 0 .555.555 0 000-1.11.555.555 0 00-.564-.555zm5.552 0a.555.555 0 00-.547.555.555.555 0 000 1.11.555.555 0 101.11 0 .555.555 0 000-1.11.555.555 0 00-.564-.555zm4.442 0a.555.555 0 00-.547.555.555.555 0 000 1.11.555.555 0 101.11 0 .555.555 0 000-1.11.555.555 0 00-.564-.555zM1.745.793a.555.555 0 00-.547.555.555.555 0 000 1.11.555.555 0 101.11 0 .555.555 0 000-1.11.555.555 0 00-.564-.555zm9.994 0a.555.555 0 00-.547.555.555.555 0 000 1.11.555.555 0 101.11 0 .555.555 0 000-1.11.555.555 0 00-.564-.555zm9.994 0a.555.555 0 00-.547.555.555.555 0 000 1.11.555.555 0 101.11 0 .555.555 0 000-1.11.555.555 0 00-.563-.555zM-3.243 1.904a1.682 1.682 0 011.666 1.729v12.708H-3.57a1.327 1.327 0 01-1.339-1.348V3.632a1.682 1.682 0 011.666-1.728zm29.982 0a1.682 1.682 0 011.666 1.729v11.36a1.327 1.327 0 01-1.338 1.348h-1.994V3.632a1.682 1.682 0 011.666-1.728zM3.966 4.127a.555.555 0 00-.547.553.555.555 0 000 1.11.555.555 0 101.11 0 .555.555 0 000-1.11.555.555 0 00-.564-.553zm5.552 0a.555.555 0 00-.547.553.555.555 0 000 1.11.555.555 0 101.11 0 .555.555 0 000-1.11.555.555 0 00-.564-.553zm4.442 0a.555.555 0 00-.547.553.555.555 0 000 1.11.555.555 0 101.11 0 .555.555 0 000-1.11.555.555 0 00-.564-.553zm5.552 0a.555.555 0 00-.547.553.555.555 0 000 1.11.555.555 0 101.11 0 .555.555 0 000-1.11.555.555 0 00-.564-.553zM-.467 8.566h24.43V10.8H-.467zm0 3.344h24.43v4.431H-.467zm-2.221 5.54h1.11v1.11h-1.11zm27.761 0h1.108v1.11h-1.11z"/></g><g data-name="Mask Group 5" transform="translate(14.139 20.175)" clip-path="url(#a)"><path data-name="sofa (2)" d="M-.467-4.759a3.336 3.336 0 00-3.331 3.331V.849a2.835 2.835 0 00-2.221 2.783v11.36a2.453 2.453 0 002.221 2.433v1.69a.555.555 0 00.555.555h2.224a.555.555 0 00.555-.555V17.45h24.43v1.666a.555.555 0 00.555.555h2.221a.555.555 0 00.555-.555v-1.69a2.453 2.453 0 002.221-2.433V3.632A2.835 2.835 0 0027.297.849v-2.277a3.336 3.336 0 00-3.334-3.331h-4.442a3.328 3.328 0 00-2.776 1.5 3.328 3.328 0 00-2.776-1.5H9.527a3.328 3.328 0 00-2.776 1.5 3.328 3.328 0 00-2.776-1.5zm0 1.11h4.442a2.2 2.2 0 012.221 2.221v8.884H-.486l-.017.525.037-.013V6.341a.555.555 0 00.555-.555.555.555 0 000-1.11.555.555 0 00-.555-.553v-.495A2.835 2.835 0 00-2.687.845v-2.273a2.2 2.2 0 012.22-2.221zm9.994 0h4.442a2.2 2.2 0 012.221 2.221v8.884H7.306v-8.884a2.2 2.2 0 012.221-2.221zm9.994 0h4.442a2.2 2.2 0 012.218 2.221V.849a2.835 2.835 0 00-2.221 2.783v.494h-.009a.555.555 0 00-.547.553.555.555 0 000 1.11.555.555 0 00.555.555v1.11H17.3v-8.882a2.2 2.2 0 012.221-2.221zm-20 1.11a.555.555 0 00-.54.556.555.555 0 000 1.11.555.555 0 101.11 0 .555.555 0 000-1.11.555.555 0 00-.566-.555zm4.442 0a.555.555 0 00-.547.555.555.555 0 000 1.11.555.555 0 101.11 0 .555.555 0 000-1.11.555.555 0 00-.564-.555zm5.552 0a.555.555 0 00-.547.555.555.555 0 000 1.11.555.555 0 101.11 0 .555.555 0 000-1.11.555.555 0 00-.564-.555zm4.442 0a.555.555 0 00-.547.555.555.555 0 000 1.11.555.555 0 101.11 0 .555.555 0 000-1.11.555.555 0 00-.564-.555zm5.552 0a.555.555 0 00-.547.555.555.555 0 000 1.11.555.555 0 101.11 0 .555.555 0 000-1.11.555.555 0 00-.564-.555zm4.442 0a.555.555 0 00-.547.555.555.555 0 000 1.11.555.555 0 101.11 0 .555.555 0 000-1.11.555.555 0 00-.564-.555zM1.745.793a.555.555 0 00-.547.555.555.555 0 000 1.11.555.555 0 101.11 0 .555.555 0 000-1.11.555.555 0 00-.564-.555zm9.994 0a.555.555 0 00-.547.555.555.555 0 000 1.11.555.555 0 101.11 0 .555.555 0 000-1.11.555.555 0 00-.564-.555zm9.994 0a.555.555 0 00-.547.555.555.555 0 000 1.11.555.555 0 101.11 0 .555.555 0 000-1.11.555.555 0 00-.563-.555zM-3.243 1.904a1.682 1.682 0 011.666 1.729v12.708H-3.57a1.327 1.327 0 01-1.339-1.348V3.632a1.682 1.682 0 011.666-1.728zm29.982 0a1.682 1.682 0 011.666 1.729v11.36a1.327 1.327 0 01-1.338 1.348h-1.994V3.632a1.682 1.682 0 011.666-1.728zM3.966 4.127a.555.555 0 00-.547.553.555.555 0 000 1.11.555.555 0 101.11 0 .555.555 0 000-1.11.555.555 0 00-.564-.553zm5.552 0a.555.555 0 00-.547.553.555.555 0 000 1.11.555.555 0 101.11 0 .555.555 0 000-1.11.555.555 0 00-.564-.553zm4.442 0a.555.555 0 00-.547.553.555.555 0 000 1.11.555.555 0 101.11 0 .555.555 0 000-1.11.555.555 0 00-.564-.553zm5.552 0a.555.555 0 00-.547.553.555.555 0 000 1.11.555.555 0 101.11 0 .555.555 0 000-1.11.555.555 0 00-.564-.553zM-.467 8.566h24.43V10.8H-.467zm0 3.344h24.43v4.431H-.467zm-2.221 5.54h1.11v1.11h-1.11zm27.761 0h1.108v1.11h-1.11z"/></g><g data-name="Mask Group 6" transform="translate(17.673 20.175)" clip-path="url(#a)"><path data-name="sofa (2)" d="M-.467-4.759a3.336 3.336 0 00-3.331 3.331V.849a2.835 2.835 0 00-2.221 2.783v11.36a2.453 2.453 0 002.221 2.433v1.69a.555.555 0 00.555.555h2.224a.555.555 0 00.555-.555V17.45h24.43v1.666a.555.555 0 00.555.555h2.221a.555.555 0 00.555-.555v-1.69a2.453 2.453 0 002.221-2.433V3.632A2.835 2.835 0 0027.297.849v-2.277a3.336 3.336 0 00-3.334-3.331h-4.442a3.328 3.328 0 00-2.776 1.5 3.328 3.328 0 00-2.776-1.5H9.527a3.328 3.328 0 00-2.776 1.5 3.328 3.328 0 00-2.776-1.5zm0 1.11h4.442a2.2 2.2 0 012.221 2.221v8.884H-.486l-.017.525.037-.013V6.341a.555.555 0 00.555-.555.555.555 0 000-1.11.555.555 0 00-.555-.553v-.495A2.835 2.835 0 00-2.687.845v-2.273a2.2 2.2 0 012.22-2.221zm9.994 0h4.442a2.2 2.2 0 012.221 2.221v8.884H7.306v-8.884a2.2 2.2 0 012.221-2.221zm9.994 0h4.442a2.2 2.2 0 012.218 2.221V.849a2.835 2.835 0 00-2.221 2.783v.494h-.009a.555.555 0 00-.547.553.555.555 0 000 1.11.555.555 0 00.555.555v1.11H17.3v-8.882a2.2 2.2 0 012.221-2.221zm-20 1.11a.555.555 0 00-.54.556.555.555 0 000 1.11.555.555 0 101.11 0 .555.555 0 000-1.11.555.555 0 00-.566-.555zm4.442 0a.555.555 0 00-.547.555.555.555 0 000 1.11.555.555 0 101.11 0 .555.555 0 000-1.11.555.555 0 00-.564-.555zm5.552 0a.555.555 0 00-.547.555.555.555 0 000 1.11.555.555 0 101.11 0 .555.555 0 000-1.11.555.555 0 00-.564-.555zm4.442 0a.555.555 0 00-.547.555.555.555 0 000 1.11.555.555 0 101.11 0 .555.555 0 000-1.11.555.555 0 00-.564-.555zm5.552 0a.555.555 0 00-.547.555.555.555 0 000 1.11.555.555 0 101.11 0 .555.555 0 000-1.11.555.555 0 00-.564-.555zm4.442 0a.555.555 0 00-.547.555.555.555 0 000 1.11.555.555 0 101.11 0 .555.555 0 000-1.11.555.555 0 00-.564-.555zM1.745.793a.555.555 0 00-.547.555.555.555 0 000 1.11.555.555 0 101.11 0 .555.555 0 000-1.11.555.555 0 00-.564-.555zm9.994 0a.555.555 0 00-.547.555.555.555 0 000 1.11.555.555 0 101.11 0 .555.555 0 000-1.11.555.555 0 00-.564-.555zm9.994 0a.555.555 0 00-.547.555.555.555 0 000 1.11.555.555 0 101.11 0 .555.555 0 000-1.11.555.555 0 00-.563-.555zM-3.243 1.904a1.682 1.682 0 011.666 1.729v12.708H-3.57a1.327 1.327 0 01-1.339-1.348V3.632a1.682 1.682 0 011.666-1.728zm29.982 0a1.682 1.682 0 011.666 1.729v11.36a1.327 1.327 0 01-1.338 1.348h-1.994V3.632a1.682 1.682 0 011.666-1.728zM3.966 4.127a.555.555 0 00-.547.553.555.555 0 000 1.11.555.555 0 101.11 0 .555.555 0 000-1.11.555.555 0 00-.564-.553zm5.552 0a.555.555 0 00-.547.553.555.555 0 000 1.11.555.555 0 101.11 0 .555.555 0 000-1.11.555.555 0 00-.564-.553zm4.442 0a.555.555 0 00-.547.553.555.555 0 000 1.11.555.555 0 101.11 0 .555.555 0 000-1.11.555.555 0 00-.564-.553zm5.552 0a.555.555 0 00-.547.553.555.555 0 000 1.11.555.555 0 101.11 0 .555.555 0 000-1.11.555.555 0 00-.564-.553zM-.467 8.566h24.43V10.8H-.467zm0 3.344h24.43v4.431H-.467zm-2.221 5.54h1.11v1.11h-1.11zm27.761 0h1.108v1.11h-1.11z"/></g><g data-name="Mask Group 7" transform="translate(22.092 20.175)" clip-path="url(#a)"><path data-name="sofa (2)" d="M-.467-4.759a3.336 3.336 0 00-3.331 3.331V.849a2.835 2.835 0 00-2.221 2.783v11.36a2.453 2.453 0 002.221 2.433v1.69a.555.555 0 00.555.555h2.224a.555.555 0 00.555-.555V17.45h24.43v1.666a.555.555 0 00.555.555h2.221a.555.555 0 00.555-.555v-1.69a2.453 2.453 0 002.221-2.433V3.632A2.835 2.835 0 0027.297.849v-2.277a3.336 3.336 0 00-3.334-3.331h-4.442a3.328 3.328 0 00-2.776 1.5 3.328 3.328 0 00-2.776-1.5H9.527a3.328 3.328 0 00-2.776 1.5 3.328 3.328 0 00-2.776-1.5zm0 1.11h4.442a2.2 2.2 0 012.221 2.221v8.884H-.486l-.017.525.037-.013V6.341a.555.555 0 00.555-.555.555.555 0 000-1.11.555.555 0 00-.555-.553v-.495A2.835 2.835 0 00-2.687.845v-2.273a2.2 2.2 0 012.22-2.221zm9.994 0h4.442a2.2 2.2 0 012.221 2.221v8.884H7.306v-8.884a2.2 2.2 0 012.221-2.221zm9.994 0h4.442a2.2 2.2 0 012.218 2.221V.849a2.835 2.835 0 00-2.221 2.783v.494h-.009a.555.555 0 00-.547.553.555.555 0 000 1.11.555.555 0 00.555.555v1.11H17.3v-8.882a2.2 2.2 0 012.221-2.221zm-20 1.11a.555.555 0 00-.54.556.555.555 0 000 1.11.555.555 0 101.11 0 .555.555 0 000-1.11.555.555 0 00-.566-.555zm4.442 0a.555.555 0 00-.547.555.555.555 0 000 1.11.555.555 0 101.11 0 .555.555 0 000-1.11.555.555 0 00-.564-.555zm5.552 0a.555.555 0 00-.547.555.555.555 0 000 1.11.555.555 0 101.11 0 .555.555 0 000-1.11.555.555 0 00-.564-.555zm4.442 0a.555.555 0 00-.547.555.555.555 0 000 1.11.555.555 0 101.11 0 .555.555 0 000-1.11.555.555 0 00-.564-.555zm5.552 0a.555.555 0 00-.547.555.555.555 0 000 1.11.555.555 0 101.11 0 .555.555 0 000-1.11.555.555 0 00-.564-.555zm4.442 0a.555.555 0 00-.547.555.555.555 0 000 1.11.555.555 0 101.11 0 .555.555 0 000-1.11.555.555 0 00-.564-.555zM1.745.793a.555.555 0 00-.547.555.555.555 0 000 1.11.555.555 0 101.11 0 .555.555 0 000-1.11.555.555 0 00-.564-.555zm9.994 0a.555.555 0 00-.547.555.555.555 0 000 1.11.555.555 0 101.11 0 .555.555 0 000-1.11.555.555 0 00-.564-.555zm9.994 0a.555.555 0 00-.547.555.555.555 0 000 1.11.555.555 0 101.11 0 .555.555 0 000-1.11.555.555 0 00-.563-.555zM-3.243 1.904a1.682 1.682 0 011.666 1.729v12.708H-3.57a1.327 1.327 0 01-1.339-1.348V3.632a1.682 1.682 0 011.666-1.728zm29.982 0a1.682 1.682 0 011.666 1.729v11.36a1.327 1.327 0 01-1.338 1.348h-1.994V3.632a1.682 1.682 0 011.666-1.728zM3.966 4.127a.555.555 0 00-.547.553.555.555 0 000 1.11.555.555 0 101.11 0 .555.555 0 000-1.11.555.555 0 00-.564-.553zm5.552 0a.555.555 0 00-.547.553.555.555 0 000 1.11.555.555 0 101.11 0 .555.555 0 000-1.11.555.555 0 00-.564-.553zm4.442 0a.555.555 0 00-.547.553.555.555 0 000 1.11.555.555 0 101.11 0 .555.555 0 000-1.11.555.555 0 00-.564-.553zm5.552 0a.555.555 0 00-.547.553.555.555 0 000 1.11.555.555 0 101.11 0 .555.555 0 000-1.11.555.555 0 00-.564-.553zM-.467 8.566h24.43V10.8H-.467zm0 3.344h24.43v4.431H-.467zm-2.221 5.54h1.11v1.11h-1.11zm27.761 0h1.108v1.11h-1.11z"/></g><g data-name="Mask Group 8" transform="translate(25.626 20.175)" clip-path="url(#a)"><path data-name="sofa (2)" d="M-.467-4.759a3.336 3.336 0 00-3.331 3.331V.849a2.835 2.835 0 00-2.221 2.783v11.36a2.453 2.453 0 002.221 2.433v1.69a.555.555 0 00.555.555h2.224a.555.555 0 00.555-.555V17.45h24.43v1.666a.555.555 0 00.555.555h2.221a.555.555 0 00.555-.555v-1.69a2.453 2.453 0 002.221-2.433V3.632A2.835 2.835 0 0027.297.849v-2.277a3.336 3.336 0 00-3.334-3.331h-4.442a3.328 3.328 0 00-2.776 1.5 3.328 3.328 0 00-2.776-1.5H9.527a3.328 3.328 0 00-2.776 1.5 3.328 3.328 0 00-2.776-1.5zm0 1.11h4.442a2.2 2.2 0 012.221 2.221v8.884H-.486l-.017.525.037-.013V6.341a.555.555 0 00.555-.555.555.555 0 000-1.11.555.555 0 00-.555-.553v-.495A2.835 2.835 0 00-2.687.845v-2.273a2.2 2.2 0 012.22-2.221zm9.994 0h4.442a2.2 2.2 0 012.221 2.221v8.884H7.306v-8.884a2.2 2.2 0 012.221-2.221zm9.994 0h4.442a2.2 2.2 0 012.218 2.221V.849a2.835 2.835 0 00-2.221 2.783v.494h-.009a.555.555 0 00-.547.553.555.555 0 000 1.11.555.555 0 00.555.555v1.11H17.3v-8.882a2.2 2.2 0 012.221-2.221zm-20 1.11a.555.555 0 00-.54.556.555.555 0 000 1.11.555.555 0 101.11 0 .555.555 0 000-1.11.555.555 0 00-.566-.555zm4.442 0a.555.555 0 00-.547.555.555.555 0 000 1.11.555.555 0 101.11 0 .555.555 0 000-1.11.555.555 0 00-.564-.555zm5.552 0a.555.555 0 00-.547.555.555.555 0 000 1.11.555.555 0 101.11 0 .555.555 0 000-1.11.555.555 0 00-.564-.555zm4.442 0a.555.555 0 00-.547.555.555.555 0 000 1.11.555.555 0 101.11 0 .555.555 0 000-1.11.555.555 0 00-.564-.555zm5.552 0a.555.555 0 00-.547.555.555.555 0 000 1.11.555.555 0 101.11 0 .555.555 0 000-1.11.555.555 0 00-.564-.555zm4.442 0a.555.555 0 00-.547.555.555.555 0 000 1.11.555.555 0 101.11 0 .555.555 0 000-1.11.555.555 0 00-.564-.555zM1.745.793a.555.555 0 00-.547.555.555.555 0 000 1.11.555.555 0 101.11 0 .555.555 0 000-1.11.555.555 0 00-.564-.555zm9.994 0a.555.555 0 00-.547.555.555.555 0 000 1.11.555.555 0 101.11 0 .555.555 0 000-1.11.555.555 0 00-.564-.555zm9.994 0a.555.555 0 00-.547.555.555.555 0 000 1.11.555.555 0 101.11 0 .555.555 0 000-1.11.555.555 0 00-.563-.555zM-3.243 1.904a1.682 1.682 0 011.666 1.729v12.708H-3.57a1.327 1.327 0 01-1.339-1.348V3.632a1.682 1.682 0 011.666-1.728zm29.982 0a1.682 1.682 0 011.666 1.729v11.36a1.327 1.327 0 01-1.338 1.348h-1.994V3.632a1.682 1.682 0 011.666-1.728zM3.966 4.127a.555.555 0 00-.547.553.555.555 0 000 1.11.555.555 0 101.11 0 .555.555 0 000-1.11.555.555 0 00-.564-.553zm5.552 0a.555.555 0 00-.547.553.555.555 0 000 1.11.555.555 0 101.11 0 .555.555 0 000-1.11.555.555 0 00-.564-.553zm4.442 0a.555.555 0 00-.547.553.555.555 0 000 1.11.555.555 0 101.11 0 .555.555 0 000-1.11.555.555 0 00-.564-.553zm5.552 0a.555.555 0 00-.547.553.555.555 0 000 1.11.555.555 0 101.11 0 .555.555 0 000-1.11.555.555 0 00-.564-.553zM-.467 8.566h24.43V10.8H-.467zm0 3.344h24.43v4.431H-.467zm-2.221 5.54h1.11v1.11h-1.11zm27.761 0h1.108v1.11h-1.11z"/></g><g data-name="Mask Group 9" transform="translate(29.161 20.175)" clip-path="url(#a)"><path data-name="sofa (2)" d="M-.467-4.759a3.336 3.336 0 00-3.331 3.331V.849a2.835 2.835 0 00-2.221 2.783v11.36a2.453 2.453 0 002.221 2.433v1.69a.555.555 0 00.555.555h2.224a.555.555 0 00.555-.555V17.45h24.43v1.666a.555.555 0 00.555.555h2.221a.555.555 0 00.555-.555v-1.69a2.453 2.453 0 002.221-2.433V3.632A2.835 2.835 0 0027.297.849v-2.277a3.336 3.336 0 00-3.334-3.331h-4.442a3.328 3.328 0 00-2.776 1.5 3.328 3.328 0 00-2.776-1.5H9.527a3.328 3.328 0 00-2.776 1.5 3.328 3.328 0 00-2.776-1.5zm0 1.11h4.442a2.2 2.2 0 012.221 2.221v8.884H-.486l-.017.525.037-.013V6.341a.555.555 0 00.555-.555.555.555 0 000-1.11.555.555 0 00-.555-.553v-.495A2.835 2.835 0 00-2.687.845v-2.273a2.2 2.2 0 012.22-2.221zm9.994 0h4.442a2.2 2.2 0 012.221 2.221v8.884H7.306v-8.884a2.2 2.2 0 012.221-2.221zm9.994 0h4.442a2.2 2.2 0 012.218 2.221V.849a2.835 2.835 0 00-2.221 2.783v.494h-.009a.555.555 0 00-.547.553.555.555 0 000 1.11.555.555 0 00.555.555v1.11H17.3v-8.882a2.2 2.2 0 012.221-2.221zm-20 1.11a.555.555 0 00-.54.556.555.555 0 000 1.11.555.555 0 101.11 0 .555.555 0 000-1.11.555.555 0 00-.566-.555zm4.442 0a.555.555 0 00-.547.555.555.555 0 000 1.11.555.555 0 101.11 0 .555.555 0 000-1.11.555.555 0 00-.564-.555zm5.552 0a.555.555 0 00-.547.555.555.555 0 000 1.11.555.555 0 101.11 0 .555.555 0 000-1.11.555.555 0 00-.564-.555zm4.442 0a.555.555 0 00-.547.555.555.555 0 000 1.11.555.555 0 101.11 0 .555.555 0 000-1.11.555.555 0 00-.564-.555zm5.552 0a.555.555 0 00-.547.555.555.555 0 000 1.11.555.555 0 101.11 0 .555.555 0 000-1.11.555.555 0 00-.564-.555zm4.442 0a.555.555 0 00-.547.555.555.555 0 000 1.11.555.555 0 101.11 0 .555.555 0 000-1.11.555.555 0 00-.564-.555zM1.745.793a.555.555 0 00-.547.555.555.555 0 000 1.11.555.555 0 101.11 0 .555.555 0 000-1.11.555.555 0 00-.564-.555zm9.994 0a.555.555 0 00-.547.555.555.555 0 000 1.11.555.555 0 101.11 0 .555.555 0 000-1.11.555.555 0 00-.564-.555zm9.994 0a.555.555 0 00-.547.555.555.555 0 000 1.11.555.555 0 101.11 0 .555.555 0 000-1.11.555.555 0 00-.563-.555zM-3.243 1.904a1.682 1.682 0 011.666 1.729v12.708H-3.57a1.327 1.327 0 01-1.339-1.348V3.632a1.682 1.682 0 011.666-1.728zm29.982 0a1.682 1.682 0 011.666 1.729v11.36a1.327 1.327 0 01-1.338 1.348h-1.994V3.632a1.682 1.682 0 011.666-1.728zM3.966 4.127a.555.555 0 00-.547.553.555.555 0 000 1.11.555.555 0 101.11 0 .555.555 0 000-1.11.555.555 0 00-.564-.553zm5.552 0a.555.555 0 00-.547.553.555.555 0 000 1.11.555.555 0 101.11 0 .555.555 0 000-1.11.555.555 0 00-.564-.553zm4.442 0a.555.555 0 00-.547.553.555.555 0 000 1.11.555.555 0 101.11 0 .555.555 0 000-1.11.555.555 0 00-.564-.553zm5.552 0a.555.555 0 00-.547.553.555.555 0 000 1.11.555.555 0 101.11 0 .555.555 0 000-1.11.555.555 0 00-.564-.553zM-.467 8.566h24.43V10.8H-.467zm0 3.344h24.43v4.431H-.467zm-2.221 5.54h1.11v1.11h-1.11zm27.761 0h1.108v1.11h-1.11z"/></g></g></g></svg>