<svg xmlns="http://www.w3.org/2000/svg" width="273.509" height="746.987"><path data-name="Path 44" d="M177.986 1.068c-1.638 2.039-2.8 3.666-4.144 5.131-17.15 18.734-25.34 40.971-25.665 66.181-.217 16.542-.033 33.107-.033 49.66v7.908l-11.054 1.1.043 1.877h73.157c.89 1.692 1.475 2.278 1.475 2.864-.1 29.831 1.128 59.748-.694 89.47-2.647 42.945-23.235 76.909-57.5 102.65-7.181 5.391-7.235 7-.2 12.149 45.766 33.54 69.565 78.764 70.151 135.442.586 56.331-1.562 112.749-.347 169.058a174.345 174.345 0 009.079 51.862c4.588 13.592 9.828 28.822 20.784 38.693 5.663 5.1 13.429 7.506 20.469 10.012-14.861 5.109-34.951-.521-46.167-13.874-32.575-38.747-51.97-86.672-52.513-137.5-.727-67.612-.163-135.225-.13-202.837.011-18.864-7.311-34.322-21.489-46.612a53.957 53.957 0 00-4.816-3.211c0 3.547.043 6.009-.011 8.472-.542 26.316.759 52.827-2.083 78.894-4.057 37.272-21.261 69.185-48.022 95.534-12.735 12.54-28.507 17-47.881 14.449 2.8-1.649 4.35-2.69 6-3.525 16.532-8.4 27.726-21.348 34.56-38.606a179.1 179.1 0 0012.724-70.292c-.521-26.1-.13-52.22-.13-78.33v-8.719h-11.13v7.355c.011 28.442.456 56.9-.076 85.326-.824 44.4-21.239 77.766-58.934 100.687-9.991 6.075-20.892 6.292-33.41 2.734 2.495-1.54 3.721-2.43 5.055-3.1 26.652-13.527 41.177-35.5 44.887-64.846a158.158 158.158 0 001.169-19.496c.087-67.84-.13-135.681.119-203.532.152-39.387 16.727-71.029 47.447-95.263 4.491-3.536 6.335-6.78 6.172-12.6a177.33 177.33 0 013.026-38.541 149.422 149.422 0 0130.85-66.2 170.231 170.231 0 0115.62-16.629c2.788-2.647 5.63-5.228 8.483-7.789 2.647-2.376 5.163-4.805 8.352-6.433a6.036 6.036 0 013.2-.618 26.234 26.234 0 013.607 1.045zm-29.676 306.42c9.557-14.438 16.358-28.225 16.456-44.279.228-38.878.076-77.766.087-116.643v-7.538H148.31zm-45.1 26.316V184.988c-7.572 15.523-10.468 32.065-10.663 48.977-.369 30.471-.109 60.952-.109 91.434v8.407z" fill="rgba(0,0,0,0.02)"/></svg>