<svg xmlns="http://www.w3.org/2000/svg" width="23" height="24"><path data-name="Rectangle 892" fill="none" d="M0 0h23v24H0z"/><path data-name="Path 40" d="M13.782 14.832a7.814 7.814 0 01-7.955 1.344A7.9 7.9 0 011.18 7.725a7.864 7.864 0 017.395-6.308h.2a7.886 7.886 0 017.485 6.26 7.819 7.819 0 01-1.95 6.647l6.346 6.17c.136.144.113.192.11.272a.378.378 0 01-.619.252zm-5.1-12.684a7.129 7.129 0 00-6.738 5.493 6.936 6.936 0 009.4 7.859 7.152 7.152 0 004.2-7.689 7.1 7.1 0 00-6.682-5.662h-.179z" fill="#fff"/></svg>