<svg xmlns="http://www.w3.org/2000/svg" width="36.09" height="38.497"><path data-name="sofa (1)" d="M10.15 0a5.358 5.358 0 00-5.339 5.374V15.7c-.108-.016-.211-.044-.322-.052A4.2 4.2 0 002.41 23.64V33.9a2.182 2.182 0 002.166 2.181h.235V37.9a.6.6 0 00.6.6h2.408a.6.6 0 00.6-.6v-1.823h19.25V37.9a.6.6 0 00.6.6h2.406a.6.6 0 00.6-.6v-1.823h.235a2.182 2.182 0 002.169-2.177V23.638a4.2 4.2 0 00-2.08-7.991c-.11.007-.214.036-.322.052V5.374A5.358 5.358 0 0025.939 0zm0 1.2h15.789a4.131 4.131 0 014.135 4.171v10.677a4.218 4.218 0 00-2.406 3.8v4.211H8.42V19.85a4.218 4.218 0 00-2.406-3.8V5.374A4.131 4.131 0 0110.15 1.2zm1.278 4.812a.6.6 0 10.6.6.6.6 0 00-.6-.597zm6.617 0a.6.6 0 10.6.6.6.6 0 00-.601-.597zm6.617 0a.6.6 0 10.6.6.6.6 0 00-.601-.597zM14.435 8.421a.6.6 0 10.6.6.6.6 0 00-.6-.6zm7.218 0a.6.6 0 10.6.6.6.6 0 00-.599-.6zm-10.225 2.406a.6.6 0 10.6.6.6.6 0 00-.6-.6zm6.617 0a.6.6 0 10.6.6.6.6 0 00-.601-.6zm6.617 0a.6.6 0 10.6.6.6.6 0 00-.601-.6zm-10.227 2.406a.6.6 0 10.6.6.6.6 0 00-.6-.6zm7.218 0a.6.6 0 10.6.6.6.6 0 00-.599-.6zM11.428 15.64a.6.6 0 10.6.6.6.6 0 00-.6-.6zm6.617 0a.6.6 0 10.6.6.6.6 0 00-.601-.6zm6.617 0a.6.6 0 10.6.6.6.6 0 00-.601-.6zm7.019 1.208a3.008 3.008 0 01.794 5.949l.01.052h-.007V33.9a.955.955 0 01-.963.977h-2.643V19.848a3 3 0 012.808-3.001zm-27.271 0a3 3 0 012.808 3v15.026H4.576a.955.955 0 01-.963-.977V22.848h-.007l.009-.049a3.008 3.008 0 01.794-5.949zm10.026 1.2a.6.6 0 10.6.6.6.6 0 00-.601-.602zm7.218 0a.6.6 0 10.6.6.6.6 0 00-.6-.602zm-10.226 2.404a.6.6 0 10.6.6.6.6 0 00-.6-.6zm6.617 0a.6.6 0 10.6.6.6.6 0 00-.601-.6zm6.617 0a.6.6 0 10.6.6.6.6 0 00-.601-.6zM8.42 25.264h19.249v2.406H8.42zm0 3.609h19.249v6H8.42zm-2.406 7.218h1.2v1.2h-1.2zm22.858 0h1.2v1.2h-1.2z"/></svg>