<svg xmlns="http://www.w3.org/2000/svg" width="43.782" height="30.1"><path data-name="sofa (2)" d="M6.841 0a4.111 4.111 0 00-4.1 4.1v2.81A3.493 3.493 0 000 10.339v14a3.022 3.022 0 002.736 3v2.082a.684.684 0 00.684.684h2.737a.684.684 0 00.684-.684v-2.057h30.1v2.052a.684.684 0 00.684.684h2.736a.684.684 0 00.684-.684v-2.082a3.022 3.022 0 002.736-3v-14a3.493 3.493 0 00-2.736-3.428V4.1a4.111 4.111 0 00-4.1-4.1h-5.477a4.1 4.1 0 00-3.42 1.847A4.1 4.1 0 0024.627 0h-5.473a4.1 4.1 0 00-3.42 1.847A4.1 4.1 0 0012.314 0zm0 1.368h5.473A2.716 2.716 0 0115.05 4.1v10.95H6.817l-.017.65.045-.016v-2a.684.684 0 00.68-.684.684.684 0 000-1.368.684.684 0 00-.684-.681v-.609A3.493 3.493 0 004.1 6.91V4.1a2.716 2.716 0 012.741-2.732zm12.314 0h5.473A2.716 2.716 0 0127.364 4.1v10.95H16.418V4.1a2.716 2.716 0 012.736-2.732zm12.314 0h5.473A2.716 2.716 0 0139.677 4.1v2.81a3.493 3.493 0 00-2.736 3.428v.609h-.011a.684.684 0 00-.673.681.684.684 0 000 1.368.684.684 0 00.684.684v1.37h-8.209V4.1a2.715 2.715 0 012.736-2.732zM6.83 2.736a.684.684 0 00-.673.684.684.684 0 000 1.368.684.684 0 101.368 0 .684.684 0 000-1.368.684.684 0 00-.695-.684zm5.473 0a.684.684 0 00-.673.684.684.684 0 000 1.368.684.684 0 101.368 0A.684.684 0 0013 3.42a.684.684 0 00-.695-.684zm6.841 0a.684.684 0 00-.673.684.684.684 0 000 1.368.684.684 0 101.368 0 .684.684 0 000-1.368.684.684 0 00-.695-.684zm5.473 0a.684.684 0 00-.673.684.684.684 0 000 1.368.684.684 0 101.368 0 .684.684 0 000-1.368.684.684 0 00-.695-.684zm6.841 0a.684.684 0 00-.673.684.684.684 0 000 1.368.684.684 0 101.368 0 .684.684 0 000-1.368.684.684 0 00-.695-.684zm5.473 0a.684.684 0 00-.673.684.684.684 0 000 1.368.684.684 0 101.368 0 .684.684 0 000-1.368.684.684 0 00-.695-.684zm-27.364 4.1a.684.684 0 00-.673.684.684.684 0 000 1.368.684.684 0 101.368 0 .684.684 0 000-1.368.684.684 0 00-.695-.684zm12.314 0a.684.684 0 00-.673.684.684.684 0 000 1.368.684.684 0 101.368 0 .684.684 0 000-1.368.684.684 0 00-.695-.684zm12.314 0a.684.684 0 00-.673.684.684.684 0 000 1.368.684.684 0 101.368 0 .684.684 0 000-1.368.684.684 0 00-.696-.679zM3.42 8.209a2.073 2.073 0 012.052 2.13V26H3.017a1.635 1.635 0 01-1.649-1.659v-14A2.073 2.073 0 013.42 8.209zm36.941 0a2.073 2.073 0 012.052 2.13v14A1.635 1.635 0 0140.765 26h-2.456V10.339a2.073 2.073 0 012.052-2.13zM12.3 10.948a.684.684 0 00-.673.681.684.684 0 000 1.368A.687.687 0 1013 13a.684.684 0 000-1.368.684.684 0 00-.695-.681zm6.841 0a.684.684 0 00-.673.681.684.684 0 000 1.368.684.684 0 101.368 0 .684.684 0 000-1.368.684.684 0 00-.695-.681zm5.473 0a.684.684 0 00-.673.681.684.684 0 000 1.368.684.684 0 101.368 0 .684.684 0 000-1.368.684.684 0 00-.695-.681zm6.841 0a.684.684 0 00-.673.681.684.684 0 000 1.368.684.684 0 101.368 0 .684.684 0 000-1.368.684.684 0 00-.695-.681zm-24.614 5.47h30.1v2.752h-30.1zm0 4.121h30.1V26h-30.1zM4.1 27.364h1.373v1.368H4.1zm34.2 0h1.368v1.368h-1.359z"/></svg>