<svg xmlns="http://www.w3.org/2000/svg" width="22.538" height="19.772"><path data-name="user (1)" d="M16.806 6.217a5.477 5.477 0 11-.06-.856 5.981 5.981 0 01.06.856.344.344 0 00.687 0 6.265 6.265 0 10-.082.98 6.365 6.365 0 00.078-.975.342.342 0 00-.683-.005zM.588 19.676a15.6 15.6 0 018.265-4.322 14.686 14.686 0 018.732 1.264 16.557 16.557 0 014.363 3.058c.316.307.806-.179.485-.485a16.567 16.567 0 00-8.512-4.469 15.317 15.317 0 00-9.171 1.2 16.952 16.952 0 00-4.647 3.265c-.316.307.169.792.485.485z" fill="#fff"/></svg>